<?xml version="1.0" encoding="UTF-8" standalone="no"?>
<!-- Created with Inkscape (http://www.inkscape.org/) -->
<svg
   xmlns:svg="http://www.w3.org/2000/svg"
   xmlns="http://www.w3.org/2000/svg"
   xmlns:inkscape="http://www.inkscape.org/namespaces/inkscape"
   version="1.0"
   width="66.973999"
   height="119.158"
   viewBox="0 0 66.974 119.158"
   id="Layer_1"
   xml:space="preserve"><defs
   id="defs48">
	
	
	
	
	
	
	
	
	
	
	
	
	
	
	
	
	
	
	
	
	
<filter
   id="filter3530"
   height="2.3177669"
   y="-0.65888351"
   width="2.6883891"
   x="-0.84419453"><feGaussianBlur
     id="feGaussianBlur3532"
     stdDeviation="1.6208535"
     inkscape:collect="always" /></filter><filter
   id="filter3534"
   height="3.299083"
   y="-1.1495415"
   width="2.8792503"
   x="-0.9396252"><feGaussianBlur
     id="feGaussianBlur3536"
     stdDeviation="1.6208535"
     inkscape:collect="always" /></filter><filter
   id="filter3538"
   height="1.6569363"
   y="-0.32846814"
   width="1.5416386"
   x="-0.27081928"><feGaussianBlur
     id="feGaussianBlur3540"
     stdDeviation="1.6208535"
     inkscape:collect="always" /></filter><filter
   id="filter3542"
   height="2.1586416"
   y="-0.57932073"
   width="1.9686677"
   x="-0.4843339"><feGaussianBlur
     id="feGaussianBlur3544"
     stdDeviation="1.6208535"
     inkscape:collect="always" /></filter><filter
   id="filter3546"
   height="2.6644633"
   y="-0.83223164"
   width="2.1487792"
   x="-0.57438958"><feGaussianBlur
     id="feGaussianBlur3548"
     stdDeviation="1.6208535"
     inkscape:collect="always" /></filter><filter
   id="filter3550"
   height="3.0691857"
   y="-1.0345929"
   width="3.0511661"
   x="-1.0255831"><feGaussianBlur
     id="feGaussianBlur3552"
     stdDeviation="1.6208535"
     inkscape:collect="always" /></filter><filter
   id="filter3554"
   height="3.7325461"
   y="-1.366273"
   width="3.171675"
   x="-1.0858374"><feGaussianBlur
     id="feGaussianBlur3556"
     stdDeviation="1.6208535"
     inkscape:collect="always" /></filter></defs>
<path
   d="M 32.829,99.77 C 32.649,101.678 32.253,103.119 31.497,104.235 C 30.741,105.314 29.733,106.035 28.473,106.394 L 28.473,106.394 C 26.241,104.594 24.405,103.766 22.821,103.623 C 21.237,103.478 19.905,104.163 18.969,105.675 L 18.969,105.675 C 16.521,105.459 14.613,105.675 13.101,106.179 C 11.517,106.683 10.257,107.475 9.861,108.7 C 9.357,109.924 9.573,111.292 10.365,113.2 L 10.365,113.2 C 9.861,113.811 9.393,114.568 9.249,115.468 C 8.889,116.332 8.781,118.24 9.069,118.42 C 9.357,118.384 10.401,116.548 11.085,115.972 C 11.733,115.361 12.345,115.18 12.921,115.144 L 12.921,115.144 C 13.317,116.512 14.505,117.52 16.485,118.024 C 18.429,118.42 22.317,118.636 24.693,118.096 C 26.961,117.485 28.401,115 30.129,114.676 C 31.677,114.352 32.901,116.512 34.341,116.153 C 35.744,115.648 37.076,114.281 38.481,111.905 L 38.481,111.905 C 40.172,113.884 41.686,115.144 43.016,115.684 C 44.313,116.08 45.465,114.496 46.329,114.821 C 47.122,115.108 46.833,117.161 47.841,117.377 C 48.814,117.449 50.181,115.469 52.089,115.757 C 53.855,115.973 56.985,118.889 58.714,119.105 C 60.37,119.322 61.593,118.637 62.241,117.053 L 62.241,117.053 C 63.645,116.946 64.69,117.017 65.516,117.269 C 66.309,117.521 66.741,117.954 66.957,118.565 L 66.957,118.565 C 66.309,117.414 65.732,116.441 65.084,115.794 C 64.4,115.074 63.645,114.642 62.961,114.498 L 62.961,114.498 C 62.961,114.102 63.068,113.777 62.996,113.382 C 62.889,112.95 62.889,112.554 62.709,112.194 L 62.709,112.194 C 63.105,112.266 63.609,112.266 64.076,112.482 C 64.545,112.554 65.121,112.842 65.66,113.058 L 65.66,113.058 C 65.228,111.834 64.58,110.898 63.572,110.394 C 62.601,109.854 61.269,109.602 59.72,109.783 L 59.72,109.783 C 58.712,108.631 57.595,107.982 55.976,107.839 C 54.357,107.659 52.521,107.983 50.324,108.811 L 50.324,108.811 C 48.56,108.415 47.228,107.408 46.041,105.931 C 44.889,104.311 44.025,102.368 43.449,99.667 L 43.449,99.667 C 39.92,99.698 36.393,99.734 32.829,99.77 L 32.829,99.77 z "
   style="fill-rule:evenodd;stroke:#000000;stroke-width:0.036;stroke-miterlimit:10"
   id="path5" /><path
   d="M 33.657,100.526 C 33.945,102.254 33.621,103.586 32.973,104.809 C 32.253,105.961 30.453,107.185 29.373,107.509 C 28.185,107.725 27.321,106.898 26.349,106.393 C 25.269,105.853 24.405,104.341 23.361,104.341 C 22.317,104.269 21.129,104.809 19.941,105.961 L 19.941,105.961 C 20.589,106.069 21.381,106.537 22.317,107.365 C 23.217,108.228 25.161,110.497 25.233,110.857 C 25.125,110.964 23.217,109.344 21.849,108.625 C 20.301,107.797 18.429,106.645 16.665,106.573 C 14.865,106.392 12.453,107.077 11.517,108.085 C 10.617,109.021 10.293,110.497 10.941,112.369 L 10.941,112.369 C 11.553,111.901 12.237,111.684 12.849,111.865 C 13.389,111.901 14.361,112.657 14.505,113.161 C 14.541,113.665 14.361,114.133 13.569,114.709 L 13.569,114.709 C 13.461,115.717 14.217,116.617 15.549,117.013 C 16.917,117.409 19.833,117.589 21.777,117.409 C 23.505,117.121 25.053,116.653 26.565,116.005 C 27.969,115.321 29.481,113.665 30.705,113.557 C 31.965,113.413 33.081,115.141 34.053,115.249 C 34.917,115.249 35.492,114.601 36.176,113.881 C 36.752,113.089 37.438,112.081 37.942,110.713 L 37.942,110.713 C 37.114,109.309 36.573,107.905 36.321,106.105 C 36.069,104.341 35.962,102.397 36.286,100.273 L 36.286,100.273 C 35.42,100.346 34.557,100.418 33.657,100.526 L 33.657,100.526 z "
   style="fill:#dba746;fill-rule:evenodd;stroke:#000000;stroke-width:0.036;stroke-miterlimit:10"
   id="path7" /><path
   d="M 37.113,100.526 C 36.427,101.822 36.465,103.334 37.076,105.494 C 37.724,107.582 39.633,111.218 40.857,112.91 C 41.828,114.313 42.763,114.746 43.664,114.782 C 44.602,114.818 45.537,112.802 46.328,113.162 C 46.976,113.378 47.121,116.042 47.877,116.294 C 48.596,116.402 49.496,114.098 50.721,114.098 C 51.873,113.991 53.602,115.106 54.932,115.79 C 56.194,116.474 57.022,117.59 58.102,118.021 C 59.11,118.238 60.118,118.057 60.836,117.769 C 61.412,117.482 61.881,116.942 61.953,116.293 L 61.953,116.293 C 61.015,116.149 60.332,115.825 60.045,115.465 C 59.721,114.997 59.649,114.205 59.973,113.917 C 60.19,113.665 60.764,113.449 61.702,113.665 L 61.702,113.665 L 61.917,111.901 L 61.917,111.901 C 61.089,111.972 60.694,111.865 60.333,111.72 C 59.974,111.468 59.866,111.18 60.009,110.712 L 60.009,110.712 C 58.929,111.216 57.669,111.612 56.23,111.504 C 54.611,111.324 52.99,111.036 51.226,110.352 C 49.39,109.668 47.589,109.201 46.115,107.581 C 44.638,105.961 43.594,103.549 42.695,100.489 L 42.695,100.489 C 40.857,100.49 38.984,100.49 37.113,100.526 L 37.113,100.526 z "
   style="fill:#dba746;fill-rule:evenodd;stroke:#000000;stroke-width:0.036;stroke-miterlimit:10"
   id="path9" /><path
   d="M 51.584,109.346 C 52.664,109.058 53.672,108.699 54.609,108.662 C 55.507,108.446 56.084,108.374 56.912,108.59 C 57.596,108.77 58.316,109.274 59.072,109.958 L 59.072,109.958 C 58.029,110.354 56.949,110.498 55.689,110.39 C 54.393,110.282 53.025,109.886 51.584,109.346 L 51.584,109.346 z "
   style="fill:#dba746;fill-rule:evenodd;stroke:#000000;stroke-width:0.036;stroke-miterlimit:10"
   id="path11" /><path
   d="M 42.764,108.986 C 41.901,109.561 41.686,110.75 42.297,111.578 C 42.873,112.442 44.061,112.658 44.924,112.046 C 45.789,111.47 46.004,110.282 45.393,109.418 C 44.816,108.59 43.629,108.374 42.764,108.986 L 42.764,108.986 z "
   style="fill:#ffc433;fill-rule:evenodd;filter:url(#filter3550)"
   id="path13" /><path
   d="M 54.357,112.118 C 53.457,112.082 53.06,112.658 53.457,113.45 C 53.853,114.206 54.932,114.889 55.832,114.962 C 56.732,114.998 57.129,114.422 56.732,113.63 C 56.336,112.874 55.256,112.189 54.357,112.118 L 54.357,112.118 z "
   style="fill:#ffc433;fill-rule:evenodd;filter:url(#filter3554)"
   id="path15" /><path
   d="M 28.796,110.246 C 27.788,111.506 28.22,112.729 29.804,112.946 C 31.352,113.162 33.44,112.298 34.484,111.038 C 35.492,109.778 35.06,108.554 33.476,108.338 C 31.929,108.122 29.841,108.986 28.796,110.246 L 28.796,110.246 z "
   style="fill:#ffc433;fill-rule:evenodd;filter:url(#filter3546)"
   id="path17" /><path
   d="M 18.212,109.67 C 16.16,109.418 15.152,110.714 15.98,112.55 C 16.808,114.386 19.148,116.078 21.2,116.33 C 23.252,116.546 24.26,115.25 23.432,113.414 C 22.604,111.578 20.265,109.886 18.212,109.67 L 18.212,109.67 z "
   style="fill:#ffc433;fill-rule:evenodd;filter:url(#filter3542)"
   id="path19" /><path
   d="M 37.113,0.014 C 40.136,2.535 42.224,4.622 43.664,6.71 C 45.068,8.69 45.537,10.382 45.357,11.93 L 45.357,11.93 C 46.617,12.722 47.984,14.09 49.316,16.178 C 50.685,18.194 52.664,19.598 53.457,24.278 C 54.141,28.814 53.168,37.346 53.602,43.646 C 53.961,49.946 55.041,55.778 55.87,61.97 C 56.626,68.054 58.641,74.102 58.173,79.97 C 57.634,85.766 56.265,92.606 52.523,96.458 C 48.597,100.166 40.39,102.794 34.99,102.254 C 29.338,101.57 23.794,97.502 19.87,92.822 C 16.018,87.998 13.102,80.258 12.094,74.174 C 10.978,68.054 11.482,62.258 13.462,56.498 L 13.462,56.498 C 11.914,55.166 10.258,54.302 7.954,54.05 C 5.686,53.69 3.094,53.942 0.034,54.662 L 0.034,54.662 C 0.934,52.826 1.762,51.53 2.914,50.378 C 4.03,49.334 5.074,48.434 6.442,48.074 L 6.442,48.074 L 2.77,47.786 L 2.77,47.786 C 3.13,46.886 3.742,46.13 4.75,45.662 C 5.722,45.122 6.946,44.762 8.566,44.582 L 8.566,44.582 C 7.054,43.25 5.83,41.522 4.894,39.398 C 3.958,37.166 2.554,32.666 2.77,31.586 C 2.806,30.47 4.102,31.586 5.686,33.134 C 7.27,34.574 9.358,38.642 12.094,40.622 C 14.722,42.566 17.818,43.79 21.526,44.582 L 21.526,44.582 L 27.358,36.338 L 27.358,36.338 C 26.962,34.934 26.602,33.71 26.566,32.666 C 26.494,31.622 25.81,30.29 26.746,29.93 C 27.61,29.498 29.05,29.318 31.462,29.786 L 31.462,29.786 C 31.498,28.202 32.11,26.366 33.298,24.278 C 34.522,22.118 37.402,19.778 38.338,17.258 C 39.131,14.594 38.375,11.102 37.871,9.014 C 37.223,6.926 36.107,5.594 34.522,4.874 L 34.522,4.874 C 36.611,4.982 38.085,5.45 39.238,6.566 C 40.318,7.646 40.929,9.122 41.074,11.138 L 41.074,11.138 C 41.326,9.41 41.074,7.682 40.463,5.81 C 39.705,3.974 38.732,1.994 37.113,0.014 L 37.113,0.014 z "
   style="fill-rule:evenodd;stroke:#000000;stroke-width:0.036;stroke-miterlimit:10"
   id="path21" /><path
   d="M 38.516,8.258 C 39.633,11.102 39.92,13.586 39.778,15.854 C 39.417,18.014 38.229,19.886 37.186,21.614 C 36.141,23.234 34.341,24.53 33.585,25.934 C 32.757,27.338 32.397,28.598 32.505,29.858 L 32.505,29.858 C 33.297,29.858 34.017,30.326 34.81,31.262 C 35.53,32.09 36.214,33.386 36.862,35.15 L 36.862,35.15 C 38.553,33.998 39.344,33.782 39.237,34.358 C 39.13,35.006 36.214,37.022 36.034,38.606 C 35.71,40.046 37.653,41.702 37.546,43.034 C 37.187,44.186 36.069,45.338 34.881,45.95 C 33.693,46.49 32.325,46.67 30.921,46.49 C 29.409,46.238 28.113,45.482 26.493,44.366 L 26.493,44.366 C 26.565,43.178 26.853,42.206 27.213,41.162 C 27.501,40.082 28.725,38.822 28.797,38.354 C 28.833,37.814 28.545,36.77 27.537,38.138 C 26.385,39.434 24.333,42.89 22.353,46.13 C 20.193,49.226 17.205,53.294 15.621,56.822 C 14.037,60.206 13.425,62.726 13.389,66.903 C 13.317,71.043 14.073,77.199 15.513,81.627 C 16.845,86.019 18.861,89.871 21.705,93.039 C 24.441,96.062 28.329,98.907 32.253,100.022 C 36.069,100.995 41.145,100.382 44.71,99.159 C 48.274,97.755 51.19,95.27 53.314,92.247 C 55.257,89.079 56.554,85.119 56.914,81.195 C 57.31,77.163 56.123,72.735 55.691,68.882 C 55.043,64.886 54.502,61.862 53.925,58.298 C 53.386,54.806 52.917,51.278 52.665,47.858 C 52.378,44.294 52.161,41.054 52.161,37.598 L 52.161,37.598 C 51.153,40.406 50.073,42.89 49.065,44.654 C 47.95,46.382 46.905,47.786 45.79,48.47 L 45.79,48.47 C 45.538,49.694 44.782,50.594 43.665,51.026 C 42.477,51.458 39.813,51.71 38.878,51.098 C 37.905,50.234 37.653,48.146 37.978,46.778 C 38.123,45.41 39.166,43.718 40.283,43.25 C 41.326,42.782 43.306,42.926 44.279,43.682 C 45.142,44.33 45.611,45.374 45.681,46.958 L 45.681,46.958 C 46.798,45.842 47.841,44.294 48.958,42.17 C 50.073,40.046 51.009,37.454 52.161,34.394 L 52.161,34.394 C 52.665,32.018 52.809,29.606 52.593,27.158 C 52.234,24.53 51.443,21.146 50.65,19.526 C 49.677,17.906 48.49,17.474 47.627,17.798 C 46.799,18.05 46.15,19.202 45.682,21.254 L 45.682,21.254 C 45.178,19.85 44.963,18.878 45.178,17.906 C 45.395,16.97 45.899,16.178 46.834,15.674 L 46.834,15.674 L 44.35,12.758 L 44.35,12.758 C 44.422,11.642 44.387,10.382 43.846,9.122 C 43.414,7.862 42.479,6.458 41.434,5.054 L 41.434,5.054 C 42.155,7.574 42.514,9.734 42.514,11.534 C 42.514,13.334 42.155,14.774 41.434,15.854 L 41.434,15.854 C 41.075,13.334 40.715,11.57 40.211,10.274 C 39.74,8.942 39.129,8.366 38.516,8.258 L 38.516,8.258 z "
   style="fill:#f6eb14;fill-rule:evenodd;stroke:#000000;stroke-width:0.036;stroke-miterlimit:10"
   id="path23" /><path
   d="M 33.765,27.734 C 33.765,28.562 34.161,29.21 34.665,29.21 C 35.206,29.21 35.602,28.562 35.602,27.734 C 35.602,26.906 35.206,26.222 34.665,26.222 C 34.161,26.222 33.765,26.906 33.765,27.734 L 33.765,27.734 z "
   style="fill-rule:evenodd;stroke:#000000;stroke-width:0.036;stroke-miterlimit:10"
   id="path25" /><path
   d="M 36.932,29.174 C 36.932,30.434 37.545,31.442 38.336,31.442 C 39.092,31.442 39.705,30.434 39.705,29.174 C 39.705,27.95 39.092,26.906 38.336,26.906 C 37.545,26.906 36.932,27.95 36.932,29.174 L 36.932,29.174 z "
   style="fill-rule:evenodd;stroke:#000000;stroke-width:0.036;stroke-miterlimit:10"
   id="path27" /><path
   d="M 40.928,23.81 C 40.965,24.062 42.26,24.17 42.873,24.962 C 43.34,25.646 43.773,28.202 44.025,28.166 C 44.24,28.058 44.636,25.25 44.384,24.458 C 43.988,23.63 43.052,23.054 42.404,23.018 C 41.721,22.874 40.857,23.414 40.928,23.81 L 40.928,23.81 z "
   style="fill-rule:evenodd;stroke:#000000;stroke-width:0.036;stroke-miterlimit:10"
   id="path29" /><path
   d="M 20.48,45.59 C 19.724,47.066 18.86,48.47 17.744,50.198 C 16.628,51.818 15.404,53.582 13.928,55.49 L 13.928,55.49 C 11.012,53.834 8.744,52.862 6.692,52.574 C 4.64,52.25 3.092,52.502 1.904,53.474 L 1.904,53.474 C 2.84,52.286 3.848,51.314 5.072,50.27 C 6.296,49.226 7.556,48.254 9.14,47.354 L 9.14,47.354 L 5.072,47.174 L 5.072,47.174 C 6.08,46.49 7.052,46.094 7.988,45.842 C 8.852,45.518 9.788,45.482 10.652,45.59 L 10.652,45.59 C 8.96,44.294 7.592,42.53 6.404,40.442 C 5.108,38.174 3.704,33.566 3.74,32.846 C 3.704,32.162 5.036,34.718 6.764,36.482 C 8.456,38.174 11.66,41.666 14.036,43.214 C 16.269,44.798 18.464,45.41 20.48,45.59 L 20.48,45.59 z "
   style="fill:#f6eb14;fill-rule:evenodd;stroke:#000000;stroke-width:0.036;stroke-miterlimit:10"
   id="path31" /><path
   d="M 41.973,44.006 C 41.073,43.934 40.03,44.87 39.668,45.842 C 39.164,46.742 38.588,48.866 39.309,49.586 C 40.03,50.162 42.909,50.306 43.916,49.73 C 44.709,48.938 45.068,46.85 44.709,45.842 C 44.313,44.87 42.801,43.934 41.973,44.006 L 41.973,44.006 z "
   style="fill:#99d9e5;fill-rule:evenodd;stroke:#000000;stroke-width:0.036;stroke-miterlimit:10"
   id="path33" /><path
   d="M 27.825,30.362 C 28.941,30.254 29.985,30.182 31.101,30.542 C 32.181,30.686 33.261,31.19 34.197,32.054 C 34.917,32.918 35.637,34.142 35.961,35.87 L 35.961,35.87 C 35.133,36.446 34.773,37.454 34.88,38.498 C 34.988,39.47 36.285,41.378 36.392,42.422 C 36.285,43.502 35.347,44.474 34.556,45.05 C 33.548,45.482 32.216,45.626 30.992,45.482 C 29.732,45.302 28.544,44.726 27.284,43.898 L 27.284,43.898 C 29.012,42.602 30.236,41.378 31.352,40.37 C 32.324,39.29 33.008,38.426 33.404,37.634 L 33.404,37.634 C 32.972,35.906 32.288,34.502 31.352,33.278 C 30.417,31.946 29.193,31.154 27.825,30.362 L 27.825,30.362 z "
   style="fill:#ffc433;fill-rule:evenodd;stroke:#000000;stroke-width:0.036;stroke-miterlimit:10"
   id="path35" /><path
   d="M 29.697,32.306 C 28.797,31.334 28.329,30.974 27.897,31.082 C 27.429,31.226 27.213,32.018 27.393,33.026 C 27.609,33.782 28.581,35.186 29.049,36.122 C 29.337,37.058 29.877,37.994 29.697,38.786 C 29.445,39.506 28.221,40.334 27.825,40.982 C 27.393,41.594 27.213,42.314 27.285,42.854 L 27.285,42.854 L 32.433,37.994 L 32.433,37.994 C 31.857,36.086 31.353,34.718 30.921,33.746 C 30.489,32.774 29.984,32.342 29.697,32.306 L 29.697,32.306 z "
   style="fill:#ffc433;fill-rule:evenodd;stroke:#000000;stroke-width:0.036;stroke-miterlimit:10"
   id="path37" /><path
   d="M 40.281,37.994 C 40.281,39.65 41.324,40.946 42.584,40.946 C 43.844,40.946 44.889,39.65 44.889,37.994 C 44.889,36.338 43.844,35.042 42.584,35.042 C 41.324,35.042 40.281,36.338 40.281,37.994 L 40.281,37.994 z "
   style="fill:#faf185;fill-rule:evenodd;filter:url(#filter3530)"
   id="path39" /><path
   d="M 8.529,50.162 C 8.529,51.098 9.465,51.854 10.617,51.854 C 11.769,51.854 12.669,51.098 12.669,50.162 C 12.669,49.226 11.769,48.47 10.617,48.47 C 9.464,48.47 8.529,49.226 8.529,50.162 L 8.529,50.162 z "
   style="fill:#faf185;fill-rule:evenodd;filter:url(#filter3534)"
   id="path41" /><path
   d="M 17.708,66.866 C 17.708,70.141 20.912,72.805 24.872,72.805 C 28.868,72.805 32.072,70.141 32.072,66.866 C 32.072,63.626 28.868,60.962 24.872,60.962 C 20.913,60.962 17.708,63.626 17.708,66.866 L 17.708,66.866 z "
   style="fill:#faf185;fill-rule:evenodd;filter:url(#filter3538)"
   id="path43" /><path
   d="M 46.545,58.478 C 46.221,60.025 45.357,61.754 43.664,63.518 C 41.9,65.283 37.473,67.586 36.609,69.027 C 35.744,70.323 37.293,71.006 38.336,71.474 C 39.309,71.834 41.721,70.538 42.08,71.474 C 42.297,72.411 41.576,74.283 39.92,77.09 L 39.92,77.09 C 42.225,76.478 43.809,75.902 44.816,75.362 C 45.789,74.822 45.931,74.246 45.537,73.778 L 45.537,73.778 C 45.68,75.866 45.969,77.45 46.545,78.53 C 47.012,79.538 47.733,81.734 48.705,79.969 C 49.533,78.133 51.656,68.917 51.873,67.729 C 51.873,66.469 50.361,70.645 49.713,72.481 C 49.065,74.173 48.633,78.169 48.129,77.954 C 47.516,77.63 47.121,75.326 46.545,70.898 L 46.545,70.898 L 42.225,75.65 L 42.225,75.65 C 43.702,72.229 44.133,70.07 43.664,69.17 C 43.088,68.198 39.848,70.106 39.201,70.034 C 38.408,69.782 38.553,69.349 39.633,68.162 C 40.858,66.902 44.637,64.418 45.969,62.798 C 47.121,61.178 47.264,59.738 46.545,58.478 L 46.545,58.478 z "
   style="fill-rule:evenodd;stroke:#000000;stroke-width:0.036;stroke-miterlimit:10"
   id="path45" />
</svg>