<?xml version="1.0" encoding="utf-8"?>
<!-- Generator: Adobe Illustrator 15.0.0, SVG Export Plug-In . SVG Version: 6.00 Build 0)  -->
<!DOCTYPE svg PUBLIC "-//W3C//DTD SVG 1.1 Tiny//EN" "http://www.w3.org/Graphics/SVG/1.1/DTD/svg11-tiny.dtd">
<svg version="1.1" baseProfile="tiny" id="ƒŒƒCƒ_x201E__x7C__1"
	 xmlns="http://www.w3.org/2000/svg" xmlns:xlink="http://www.w3.org/1999/xlink" x="0px" y="0px" width="171px" height="223px"
	 viewBox="0 0 171 223" xml:space="preserve">
<g>
	<path d="M148.835,112.298c-2.053-0.429-5.563-1.682-8.314-0.832c-0.663,0.202-1.273,0.841-1.767,1.247
		c-1.611,1.306-3.394,2.826-5.404,3.638c-0.357-1.01-0.721-1.406-1.351-2.079c-0.806-0.857-1.949-1.728-3.014-2.286
		c-0.572-0.302-1.832-0.429-2.183-0.936c-0.325-0.471-1.307-3.419-0.542-3.572c0.766-0.153,3.368-4.899,5.052-8.879
		c1.883-4.451,3.606-7.731,4.516-10.18c0.085,0.772,1.367,4.911,1.761,10.333c0.565,7.794,0.238,14.194,0.332,14.211
		c0.785-1.15,5.205-6.43,8.471-14.084c3.126-8.289,4.239-15.291,4.287-15.512c0.464,4.169,0.995,15.231,0.995,15.231
		c0.627-2.41,2.346-7.73,2.985-9.925c2.909-9.976,3.514-18.611,2.296-29.188c-1.023-8.873-6.206-22.96-13.318-33.271
		c-7.163-10.382-15.411-20.31-32.454-18.676c-9.59,0.918-28.665,7.599-35.516,13.502c-4.976,4.286-8.292,8.567-12.043,13.543
		c-2.15-1.686-5.178-1.448-6.123,1.939c-0.88,3.14,2.468,10.267,3.572,12.349c0.508,0.961,0.842,2.069,0.714,1.735
		c0.279,0.747,0.973,3.134,1.123,3.878c0.305,1.552,0.612,1.684,1.225,3.062c-1.023,0.487-3.61,1.347-4.851,1.506
		c-1.809,0.227-5.304,0.178-5.763,0.943c-0.582,0.969,0.99,2.865,3.292,4.057c0.695,0.36,1.433,0.401,2.056,0.716
		c1.393,0.705,5.205,3.502,6.593,4.311c5.613,3.266,12.757,4.082,12.859,4.592s-1.615,0.741-2.959,1.735
		c-2.848,2.098-6.328,4.389-6.65,12.261c-0.075,1.818,0.724,3.238,0.831,4.573c0.127,1.611-1.461,2.923-2.182,3.845
		c-0.676-1.429-1.607-2.338-2.702-3.326l-1.543-0.718c0,0-1.633-4.695,0-6.94c1.633-2.246,8.436-7.643,7.858-10.818
		c-0.408-2.245-2.415-4.503-8.334-3.278c-5.499,1.138-7.654,7.909-8.879,8.113s-2.896-3.803-5.052-6.889
		c-3.895-5.575-10.291-4.273-10.291-4.273s-10.818-7.96-11.838-6.736s0.408,12.655,0.408,12.655s-3.674,3.062-5.715,5.919
		c-2.041,2.857-2.449,7.348-3.266,7.348S7.392,92.247,6.78,93.88c-0.613,1.633,9.593,5.715,10.41,6.736
		c0.816,1.02,3.062,7.756,9.593,9.593s12.894,3.661,17.35,2.245c3.742-1.189,4.695-2.347,4.695-2.347
		c0.365-0.031,2.472,1.968,5.103,1.837c4.083-0.204,5.284-2.518,5.715-2.552c0.974-0.081,2.055-0.017,3.455-0.107
		c4.167-0.276,8.021-5.242,9.561-8.314c0.221,0.598,0.624,1.315,0.728,1.871c0.208,1.127-0.253,2.121-0.416,2.91
		c-1.065,5.083-2.877,9.256-5.196,13.095c-0.334,0.549-0.691,1.059-1.039,1.663c-0.332,0.568-0.926,1.114-1.247,1.663
		c-0.922,1.559,3.407-0.961,3.741-1.143c2.504-1.377,7.385-4.254,9.041-6.339c1.117,3.797,1.872,6.568,2.677,10.625
		c0.702,3.55,1.218,8.56,1.76,12.324c0.627,4.374,0.85,7.472,1.486,11.762c-2.091,0.546-3.611,1.449-4.677,3.014
		c-1.938,2.838-0.257,6.461,0.832,10.289c-1.832-0.468-3.111-0.994-5.404-0.728c-1.215,0.14-1.552,1.234-2.598,1.351
		c-1.033,0.11-1.676-0.302-2.806-0.104c-0.89,0.153-1.399,1.01-2.182,1.247c-0.802,0.241-1.66,0.539-2.494,0.624
		c-0.679,0.065-1.156-0.237-1.871,0c-0.312,0.101-0.39,0.503-0.624,0.624c-0.838,0.413-1.851,0.65-2.598,0.936
		c-0.649,0.243-1.526,0.24-2.078,0.624c-0.653,0.448-0.575,1.851-1.248,2.286c-0.841,0.539-2.059,0.429-3.118,0.728
		c-0.685,0.188-1.627,0.672-2.286,1.039c-3.208,1.777-5.498,5.235-6.859,8.833c-0.328,0.864-0.234,1.767-0.624,2.702
		c-0.097,0.224-0.588,0.413-0.728,0.624c-0.48,0.705-0.85,1.827-1.039,2.806c-1.337,6.915,7.312,11.048,11.522,12.196
		c8.659,2.361,13.983-0.546,20.284-3.368c3.68-1.653,7.484-3.112,11.635-4.21c2.699-0.718,5.38-1.189,8.209-1.708
		c1.542-0.286,3.352-0.163,4.573-0.728c0.477,1.922,0.912,3.664,1.974,4.988c2.303,2.871,6.427,4.495,9.457,6.651
		c3.04,2.16,5.895,4.511,8.938,6.755c2.822,2.082,6.728,4.478,11.639,6.547c4.25,1.79,12.081,1.988,19.434-0.52
		c4.195-1.431,12.25-6.534,10.288-13.094c-0.386-1.286-2.108-2.5-2.286-3.014c-0.247-0.705,0.084-1.75,0-2.494
		c-0.094-0.818-0.286-1.854-0.52-2.702c-0.877-3.153-2.962-5.966-5.3-7.69c-0.916-0.675-2.41-0.968-3.222-1.767
		c-0.909-0.89-0.649-2.838-1.767-3.533c-1.413-0.88-3.075-1.098-4.469-1.975c-0.422-0.267-0.597-0.844-1.143-1.039
		c-0.809-0.289-1.79-0.179-2.494-0.52c-0.383-0.188-1.364-0.53-1.767-0.832c-0.279-0.211-0.286-0.653-0.624-0.832
		c-0.555-0.299-1.056-0.097-1.767-0.312c-0.582-0.179-2.195-1.111-2.702-1.559c-0.393-0.348-0.464-1.082-0.935-1.351
		c-0.594-0.341-1.468-0.179-2.079-0.52c-0.88-0.494-0.883-1.54-2.078-1.247c-0.065,0.013-0.25-0.016-0.312,0
		c0,0-0.152,0.084-0.208,0.104c-0.266-1.013,0.17,0.341-0.06-0.714c1.406-0.464,3.904-0.28,5.307-0.51
		c3.604-0.594,7.614,0.931,10.716,0.612c3.179-0.328,5.149-3.005,6.633-5.103c3.115,0.461,10.644,0.437,11.022-0.408
		s-5.472-9.457-7.654-11.532c0.695-1.799-0.391-5.849-0.816-7.654c-1.933-8.151-9.222-13.22-15.275-17.299
		c3.179-2,5.066-5.973,9.041-7.067c3.329-0.919,7.551-0.877,11.12-1.143c2.082-0.159,6.307,0.529,7.898,0.104
		c0.257-0.072,0.263-0.413,0.416-0.52C159.741,115.114,154.454,113.471,148.835,112.298z M102.382,96.294
		c0.244-0.133-0.104,0.52-0.104,0.52c-0.517,1.913-1.172,3.537-1.767,5.3c-0.325-0.978-0.591-2.146-0.832-3.325
		C100.628,98.116,101.421,96.804,102.382,96.294z M99.992,157.193c-0.341-2.293-0.536-4.784-1.559-6.443
		c-0.945-1.533-2.946-2.286-5.404-2.286c-1.319-8.886-3.504-18.901-3.845-27.852c5.992,9.837,9.71,21.713,13.718,33.567
		C101.713,154.988,100.473,155.683,99.992,157.193z M108.258,131.092c-0.494,0.643-1.169,1.285-1.607,1.99
		c-1.166-2.15-1.417-3.38-2.398-5.819c2.168,0.614,3.546,1.073,5.944,1.558C109.496,129.948,109.047,130.06,108.258,131.092z
		 M111.735,103.569c-0.062,0.721-0.571,1.796-0.727,2.494c-0.828,3.676-1.979,6.43-3.269,9.606
		c-0.845-0.806-1.908-1.347-2.551-2.332c-0.753-1.149-1.27-2.361-1.871-3.637c3.179-1.975,5.891-5.167,7.794-8.417
		C111.293,101.955,111.807,102.686,111.735,103.569z"/>
	<path fill="#BFBFBF" d="M99.057,188.474c-1.268,5.574,7.375,8.178,11.951,11.432c4.267,3.033,8.222,6.773,12.678,9.561
		c4.107,2.569,6.573,3.192,8.418,3.533c8.512,1.562,16.251-0.038,21.714-3.337c3.065-1.854,6.965-5.817,5.306-9.653
		c-1.253,4.573-4.521,6.473-8.417,8.417c-2.056,1.023-4.329,1.461-7.067,1.975c-16.403,3.06-23.146-8.005-32.839-13.614
		C107.072,194.632,101.226,192.037,99.057,188.474z"/>
	<path fill="#D9D9D9" d="M98.641,185.149c0.078,1.016,0.084,1.779,0.416,2.598c1.234,3.066,9.058,6.934,12.159,8.73
		c9.697,5.608,16.231,16.55,32.528,13.406c5.112-0.987,8.427-2.179,11.639-4.884c0.991-0.834,4.176-4.186,3.118-6.443
		c-0.101-0.214-0.432-0.266-0.624-0.416c-0.714,1.832-0.929,3.543-2.182,4.78c-4.667,4.599-13.549,7.95-22.759,6.131
		c-3.624-0.717-7.027-2.643-9.873-4.365c-4.137-2.5-7.437-6.173-11.328-8.937c-2.384-1.695-5.06-3.215-7.586-4.677
		c-1.384-0.802-3.222-1.377-4.157-2.598C99.612,187.98,98.816,185.733,98.641,185.149z"/>
	<path fill="#BFBFBF" d="M97.498,184.733c-0.938,0.071-2.452,1.01-3.533,1.247c-4.715,1.026-9.278,1.741-13.406,3.222
		c-9.548,3.42-20.142,10.938-32.008,4.365c-2.877-1.595-5.206-3.676-5.923-7.378c0,0.854,0.023,1.49,0,2.182
		c-0.102,3,3.831,6.239,6.339,7.586c11.546,6.205,20.184-0.61,29.826-4.261c4.806-1.822,10.412-2.705,15.9-3.637
		c1.27-0.218,2.215-0.526,3.222-0.936c-0.036-0.305-0.188-0.971-0.208-1.247C97.664,185.35,97.959,184.694,97.498,184.733z"/>
	<path fill="#D9D9D9" d="M43.354,183.694c-1.03,2.215,0.438,4.735,1.559,6.339c1.309,1.874,3.088,2.851,5.3,3.845
		c11.639,5.219,21.541-2.296,30.553-5.3c4.423-1.478,9.272-1.949,13.926-3.429c-6.359,0.941-12.104,1.883-17.251,4.053
		c-4.485,1.887-8.548,4.573-13.926,5.508c-6.599,1.143-15.949-1.91-18.394-5.508C44.121,187.73,43.448,186.061,43.354,183.694z"/>
	<path fill="#DA2032" d="M145.614,182.966c-4.907,0.503-10.828,2.644-14.965,4.469c-1.422,0.624-3.537,2.387-4.988,2.702
		c-0.188,0.039-0.624-0.104-0.624-0.104c-2.186-1.03-3.774-2.397-5.404-3.949c-1.744,1.082-2.663,3.458-3.118,5.82
		c-0.474,2.432-0.461,5.803,0.831,7.378c0.448,0.546,1.39,0.919,1.975,1.351c1.562,1.149,3.03,2.686,4.78,3.637
		c1.345,0.731,2.637,1.195,4.053,1.871c1.487,0.708,3.287,1.715,5.196,1.975c5.495,0.744,11.022-0.273,14.861-1.663
		c1.478-0.539,6.222-3.274,6.962-4.365c0.663-0.981,1.438-3.079,1.552-4.596c0.487-6.527-2.679-10.539-6.54-13.071
		C148.929,183.596,147.991,182.72,145.614,182.966z"/>
	<path fill="#D9D9D9" d="M146.341,179.745c-1.315-0.114-3.245,0.899-4.365,1.247c-3.962,1.214-7.606,2.264-11.224,3.533
		c-1.565,0.546-3.329,1.121-4.677,1.975c-0.614,0.383-0.805,3.021-0.52,3.014l0.208-0.208c4.235-2.121,8.723-4.235,13.614-5.716
		c2.329-0.708,5.037-1.455,7.794-1.455l0.208-0.416C147.267,181.147,146.984,179.796,146.341,179.745z"/>
	<path fill="#D9D9D9" d="M137.196,175.276c-1.068,0.958,1.897,0.809,0.624,0.208C137.628,175.393,137.456,175.37,137.196,175.276z"
		/>
	<path fill="#808080" d="M113.709,173.405c-0.162,0.646-0.545,1.565-0.52,2.183c0.02,0.526,0.539,1.247,0.728,1.663
		c1.702,3.796,3.702,6.141,6.651,8.625c1.406,1.186,2.569,2.604,4.469,3.326c0-1.582-0.055-2.354-0.936-3.014
		C120.257,183.307,115.041,178.644,113.709,173.405z"/>
	<path fill="#FFCB05" d="M107.163,173.301c-0.961,0.334-2.598,4.083-3.014,5.3c-0.948,2.764-2.537,7.866-0.832,11.12
		c0.149,0.286,5.476,3.017,6.235,3.534c2.182,1.484,4.287,3.173,6.339,4.78c-1.478-5.018,0.968-9.6,3.222-12.471
		c-2.598-1.776-3.962-4.612-5.508-7.482c-0.25-0.465-0.825-1.095-0.935-1.663c-0.143-0.711,0-1.562,0-2.286
		C111.911,174.019,107.357,173.23,107.163,173.301z"/>
	<path fill="#DA2032" d="M56.968,170.496c-3.819,0.416-7.239,2.978-9.042,5.508c-1.357,1.9-3.926,7.232-3.222,10.392
		c0.107,0.491,0.688,1.049,0.936,1.455c2.565,4.206,10.201,6.979,17.563,6.132c2.669-0.309,4.861-1.53,6.962-2.391
		c3.391-1.393,6.395-2.786,9.769-4.157c-0.429-3.826-1.095-6.658-2.494-9.353c-0.497-0.955-1.169-2.075-2.079-2.598
		c-0.893-0.517-1.734,0.124-2.806-0.208c-0.981-0.305-1.907-1.159-2.806-1.559C66.191,172.139,60.865,170.067,56.968,170.496z"/>
	<path fill="#DA2032" d="M102.486,170.288c-2.292,3.579-3.493,7.523-3.09,12.892c0.071,0.984,0.304,2.783,0.612,3.598
		c0.348,0.926,2.007,2.077,2.79,2.633c-2.179-5.878,1.163-12.734,4.053-16.42C104.876,172.603,103.415,171.694,102.486,170.288z"/>
	<path fill="#FFCB05" d="M89.704,167.897c-3.959,3.215-9.424,4.667-14.549,6.755c0.146,0.084,0.364,0.299,0.52,0.416
		c2.997,2.25,4.611,7.385,4.988,12.159c2.475-0.789,4.981-1.396,7.794-1.975c1.734-0.36,3.4-1.039,5.508-1.039
		C95.744,178.875,93.73,169.797,89.704,167.897z"/>
	<path fill="#D9D9D9" d="M58.215,167.897c-0.26,0.555-0.497,1.163-0.832,1.663c4.05-0.789,12.604,3.043,15.173,4.781
		c0.331-2.449-0.26-2.222-2.079-2.91C66.867,170.061,62.736,168.079,58.215,167.897z"/>
	<path fill="#808080" d="M88.457,165.507c-2.205,1.286-4.583,2.754-7.067,3.741c-1.649,0.653-3.212,1.088-4.884,1.663
		c-1.003,0.341-1.922,0.74-3.118,1.039c-0.133,0.88-0.208,1.673-0.208,2.702c1.52-0.318,2.546-0.932,3.845-1.351
		c4.709-1.529,8.727-3.332,12.367-5.819C89.178,166.446,88.95,166.16,88.457,165.507z"/>
	<path fill="#DA2032" d="M100.927,163.325c-0.987,2.121-4.449,3.722-6.963,4.261c-0.948,0.201-2.042,0.208-3.222,0.208
		c2.13,1.922,3.423,4.677,3.949,8.21c0-0.029,0.295,0.52,0,0.52c0.279,2.52,0.49,5.196-0.104,7.482
		c1.159-0.175,2.955-0.386,3.741-1.039c0.23-0.195,0-0.728,0-0.728c0.542-4.881,0.806-9.229,3.118-12.263
		c0.166-0.221,0.666-0.587,0.728-0.831C102.44,168.014,101.236,164.267,100.927,163.325z"/>
	<path fill="#BFBFBF" d="M77.856,162.701c1.383,3.163-2.592,2.585-4.469,1.767c0.101,0.686,0.078,1.14,0.104,1.767
		c-1.711,0.887-4.813,0.676-5.3-1.247c-0.718,0.175-1.088,0.27-1.871,0.416c0.429,0.059,1.614,0.617,1.767,1.247
		c0.039,0.162,0.013,0.728-0.104,0.728c0,0,0.175,0.478,0.104,0.728c-0.276,0.922-2.212,0.958-3.326,0.727
		c-0.906-0.188-1.416-0.708-2.078-1.039c-0.036,0-0.068,0-0.104,0c-1.068-0.948-0.029-1.186-1.767-0.624
		c-0.309,0.098-0.533,0.124-0.728,0.208c-0.042,0.016-0.208,0.104-0.208,0.104H59.67c2.095,0.776,4.459,1.14,6.651,1.871
		c1.857,0.617,4.611,2.475,6.547,2.286c1.286-0.126,2.475-0.867,3.533-1.247c2.462-0.893,4.849-1.595,7.067-2.702
		c1.536-0.77,3.157-1.607,4.469-2.598c-0.809-0.065-1.218-0.068-1.975-0.208c-0.747-0.14-1.621-0.422-2.39-0.624
		c1.741,3.754-2.442,2.79-4.469,2.286c0.578,2.627-2.176,2.211-4.365,1.767c0.169,0.517,0.565,1.591,0.312,2.079
		c-0.741,1.399-5.307-0.049-6.235-0.936c0.601-2.302,1.929-2.494,4.676-1.767c0.309-2.777,2.563-2.669,4.78-1.767
		c0.413-2,1.146-2.146,3.014-2.39C79.945,163.331,79.097,163.022,77.856,162.701z"/>
	<path fill="#00AB4E" d="M100.91,159.719c0.598,2.257,0.904,3.597,1.395,5.933c0.244,1.169,0.387,2.999,0.936,4.019
		c0.325,0.61,1.397,1.567,2.109,1.837c0.922,0.347,5.587,2.755,7.868,0.553c0.109-0.106,0.149-0.461,0.312-0.52
		c1.042-0.387,2.192-0.202,3.221-0.416c2.481-0.52,4.865-1.247,7.067-2.078c1.487-0.565,1.449,0.094,1.102-1.341
		c-0.107-0.429-2.645,0.947-2.755,0.408c-4.293,0.581-12.451-3.955-11.635-7.348C106.957,161.173,102.987,161.976,100.91,159.719z"
		/>
	<path fill="#008739" d="M103.109,155.842c-6.414,4.849,3.175,4.526,7.394,3.902c-0.409-0.867,0.237-0.224-0.51-0.714
		c-0.37-0.244-2.384,0.339-2.755,0.204C103.87,158.01,104.324,156.635,103.109,155.842z"/>
	<path fill="#00AB4E" d="M98.018,152.621c-2.277,4.829-13.433,6.201-18.216,2.927c0.182,0.607,1.071,5.205,1.684,7.348
		c0.244,0.059,1.266,0.478,1.464,0.533c1.182,0.331,2.319,0.714,3.429,0.935c0.871,0.172,2.014,0.01,2.702,0.416
		c0.572,0.334,0.737,1.747,1.351,1.975c2.085,0.77,7.177-2.033,8.313-2.91c0.523-0.406,0.753-1.117,1.247-1.559
		c0,0-0.174-1.407-0.213-1.533C98.912,158.096,98.774,155.118,98.018,152.621z"/>
	<path fill="#008739" d="M94.796,149.918c0,0-0.627,0.065-0.728,0.104c-0.331,0.114,0.353,1.239-1.247,1.975
		c-1.451,0.668-7.2,2.166-8.21,0.104c-0.253-0.52-0.341-1.4-0.312-1.871c-1.351,0.409-6.19,2.793-3.741,4.677
		c2.14,1.649,6.498,2.202,10.08,1.455c2.153-0.451,8.973-2.614,6.547-5.404C96.748,150.455,95.711,149.883,94.796,149.918z"/>
	<path fill="#ED1A3B" d="M141.457,112.298c-0.487,0.094-7.434,5.352-7.482,5.508c-0.306,0.922,0.477,3.075,0.727,3.949
		c0.241,0.851,0.607,1.851,0.728,2.91c4.855-2.254,5.878-6.775,12.783-7.483c4.618-0.477,9.577-0.555,13.614-0.104
		c-0.867-0.338-1.923-0.747-2.806-1.04c-2.199-0.737-4.498-1.237-6.755-1.871C150.063,113.552,144.263,111.743,141.457,112.298z"/>
	<path fill="#FFFFFF" d="M123.375,111.987c-3.664,0.302-7.764,1.712-9.758,3.797c-1.695,1.767-2.428,3.683-2.22,6.736
		c0.117,1.783,0.011,3.025,0.459,4.363c2.332-2.221,6.923-3.99,10.896-4.399c0.604-0.065,1.653-0.344,1.02-0.091
		c4.027,0,7.144,0.611,10.001,1.939c0.179-1.614-0.383-2.192-0.837-3.511c-1.468-4.235-1.007-7.002-5.715-8.21
		C125.83,112.253,124.631,111.879,123.375,111.987z"/>
	<path fill="#ED1A3B" d="M112.047,104.816c-0.883,5.937-3.088,11.064-5.716,15.381c1.075-0.438,3.783-1.644,4.573-2.39
		c0.309-0.296,0.354-0.809,0.624-1.144c0.669-0.838,1.64-1.62,2.494-2.286c-0.383-1.299-0.403-2.598-0.624-4.157
		C113.151,108.515,112.485,106.381,112.047,104.816z"/>
	<path fill="#ED1A3B" d="M74.011,104.816c-0.916,6.161-3.342,12.971-6.962,16.42c0.428-0.224,0.772-0.351,1.143-0.624
		c3.085-2.303,6.777-4.319,9.561-6.963C76.356,110.824,75.525,107.508,74.011,104.816z"/>
	<path fill="#ED1A3B" d="M69.958,94.32c-0.406,0.99-0.815,2.026-1.455,2.806c-0.37,0.445-1.039,0.857-1.247,1.455
		c-0.309,0.867-0.188,1.588-0.52,2.39c-1.098,2.631-3.179,5.417-5.612,6.755c0.458,0.257,0.968,0.669,1.767,0.624
		c0.098-0.006,0.37-0.104,0.312-0.104c3.472-0.471,6.583-4.307,8.313-6.651c0.312-0.425,0.461-0.99,0.832-1.351
		c0.075-0.078-0.299-0.588-0.312-0.624C71.329,97.843,70.614,96.09,69.958,94.32z"/>
	<path fill="#FFFFFF" d="M62.289,93.058c-0.311,1.055-1.133,3.618-2.44,5.313c-2.009,2.606-6.045,4.744-6.242,4.937
		c-0.172,0.166-0.788,3.078-1.684,4.133c-0.601,0.705-0.986,1.572-1.656,2.211c3.68,3.502,11.99-2.307,14.685-8.118
		C68.218,94.492,62.458,93.191,62.289,93.058z"/>
	<path fill="#ED1A3B" d="M107.059,90.371c-0.724,1.351-1.728,2.79-2.702,3.949c-0.24,0.282-1.039,0.812-1.143,1.143
		c-0.104,0.315,0.055,0.809,0,1.143c-0.253,1.448-0.851,3.215-1.351,4.677c-0.198,0.571-1.081,1.406-1.143,1.871
		c-0.094,0.698,0.802,2.144,1.04,2.806c0.367,1.033,0.659,1.991,1.039,3.014c1.188-0.935,7.794-7.687,8.002-8.833
		C111.001,99.006,107.646,91.419,107.059,90.371z"/>
	<path fill="#ED1A3B" d="M112.102,82.245c-0.685,1.475-1.568,2.465-2.341,3.865c-0.413,0.737-1.78,2.069-1.871,2.91
		c-0.084,0.757,2.978,6.817,3.429,8.106c1.734,4.966,2.85,9.894,3.691,16.477c3.114-1.621,5.678-3.246,10.546-2.862
		c-1.318-3.274-2.335-6.463-3.533-9.769C119.412,93.768,115.859,88.228,112.102,82.245z"/>
	<path fill="#FFFFFF" d="M93.324,74.489c-2.608,0.848-15.921,11.125-18.472,6.838c-1.233-2.071,1.003-5.064,2.857-6.327
		c-1.984,0.604-4.572,2.471-5.715,4.082c-1.348,1.89-2.373,5.946-1.327,9.083c2.958,8.879,19.235-9.82,20.907-11.408
		C91.944,76.403,93.473,74.44,93.324,74.489z"/>
	<path fill="#ED1A3B" d="M81.806,73.951c-2.24,0.159-5.033,1.996-6.155,3.894c-1.236,2.091-0.521,4.227,3.385,3.584
		c1.696-0.279,4.502-2.065,5.817-2.857c2.812-1.702,4.617-2.948,7.553-4.413c-1.965,0.217-4.069,0.383-6.443,0.208
		C84.683,74.269,82.963,73.869,81.806,73.951z"/>
	<path fill="#ED1A3B" d="M101.655,71.561c-0.702,0.091-1.257,0.789-1.871,1.039c-1.267,0.51-2.783,0.367-3.949,1.04
		c-0.887,0.506-2.13,2.108-2.919,2.891c-3.053,3.007-6.034,5.97-9.083,8.981c-3.007,2.961-12.198,10.731-14.082,1.638
		c-0.92,3.567,2.593,11.27,4.08,14.589c2.14,4.774,4.334,8.686,5.896,13.782c1.4,4.573,2.088,9.21,2.806,14.238
		c0.743,5.235,2.721,20.002,2.932,21.886c0.552,0.225,2.066,0.842,3.062,0.689c1.294-0.199,2.876-0.648,3.444-1.148
		c0.741-0.656,0.135-2.331,0.019-3.033c-1.243-7.53-2.927-19.088-3.429-22.863c-0.371-2.79-0.182-5.794-0.624-6.651
		c-0.484-0.938-4.358-3.134-5.404-3.845c-1.062-0.724-2.264-1.13-2.495-2.39c1.51,1.023,3.082,2.176,4.677,3.014
		c1.172,0.614,2.667,1.046,3.533,1.975c0.864,0.926,1.095,1.702,1.767,2.702c3.433,5.102,5.953,10.921,8.313,17.147
		c2.098,5.54,1.807,6.663,4.214,13.523c0.118,0.336-1.939-9.491,1.531-14.186c0.097-0.131,1.939-2.143,1.939-2.143
		c-0.645-0.175-1.093-2.409-1.528-3.496c-1.684-4.209-4.136-11.467-4.285-12.509c-0.315-2.179-0.312-3.614-0.624-5.716
		c0.386,0.715,0.64,1.367,0.936,2.391c0.77,2.689,2.754,10.305,3.118,10.6c0.883,0.718,5.748,2.098,7.001,2.173
		c-0.459-3.138-0.705-5.752-0.247-8.824c-0.568,0.166-0.731,0.152-1.144,0.416c-1.393,0.874-3.276,2.03-4.884,2.286
		c0.89-1.893,2.189-3.257,3.014-5.3c-5.229-3.536-7.304-9.57-8.314-17.043c1.232-0.963-0.126,0.033-4.053,3.118
		c0.955-2.965,2.4-5.768,3.222-8.833c1.025-3.833,1.975-7.678,2.957-11.859c0.104-0.458-0.307-0.729-0.463-1.131
		c-0.575-1.472-2.929-1.965-3.845-3.222c-0.195-0.266-1.059-2.101-0.312-2.494c0.318-0.172,0.211,0.821,0.312,1.143
		c0.357,1.156,1.695,1.77,2.702,2.286c0.624,0.318,1.676,0.789,2.218,1.172c0.816-2.653,1.13-5.301,1.429-7.96
		C102.944,71.631,101.927,71.521,101.655,71.561z"/>
	<path fill="#BFBFBF" d="M144.782,178.498c-0.656-0.27-0.994-0.422-1.767-0.624c0.094,0.318,0.12,0.539,0.208,0.832
		c-1.017,0.802-5.897,2.572-7.482,1.039c-0.403-0.39-0.208-1.851-0.208-2.598c-1.776,0.572-3.458,0.422-5.196-0.104
		c-0.386-2.841,0.231-2.861,2.391-3.637c0.987-0.357,0.058-0.617-0.624-1.039c-0.176,0.38-0.497,0.925-0.832,1.143
		c-0.708,0.452-5.547,1.436-6.235,0c-1.247-2.595,1.244-3.361,3.118-3.637c-0.185-0.149-0.341-0.478-0.52-0.624
		c-0.218-0.179-0.565-0.432-0.936-0.416c-1.403,0.052-4.576,1.838-6.131,2.287c-2.104,0.601-4.092,0.925-6.443,1.247
		c0.604,5.437,6.277,10.191,9.769,12.99c0.253,0.202,0.851,0.88,1.143,0.936c0.507,0.094,6.726-2.845,7.898-3.222
		c3.31-1.075,6.911-2.186,10.289-3.118C144.74,179.534,147.523,179.618,144.782,178.498z M117.763,176.315
		c-0.61-0.117-1.02-0.572-1.144-1.144c-0.013-0.059,0.065-0.448,0.104-0.312c0-0.841-0.039-1.601,0.416-1.975
		c0.581-0.481,2.072-0.806,3.014-0.832c2.208-0.065,2.54,0.721,3.118,2.287C123.904,176.056,119.341,176.614,117.763,176.315z
		 M127.323,184.213c-0.334,0.036-0.705,0-1.039,0c0,0-0.799,0.084-1.143-0.104c-1.143-0.633-0.649-3.287,0.312-3.845
		c-1.163,0.341-4.465,0.653-4.78-0.416c-0.078-0.26,0.023-0.666,0-0.936c-0.055-0.61-0.334-1.237,0.104-1.663
		c0.659-0.646,2.708-1.221,3.741-1.351c0.256-0.036-0.055,0.12,0.208,0.104c0.322-0.023,1.069-0.24,1.559-0.104
		c1.234,0.338,1.744,2.695,0.832,3.534c3.433-0.578,3.871-0.198,4.884,2.598C130.775,182.989,129.243,183.989,127.323,184.213z"/>
	<path fill="#808080" d="M140.937,177.978c-0.854,0.172-1.767,0.578-2.91,0.52c-0.364-0.02-1.559-0.208-1.559-0.208
		c-0.211,0.186-0.416,0.101-0.208,0.728c0.452,1.364,4.231,0.367,5.3,0.104C141.392,178.553,141.184,178.358,140.937,177.978z"/>
	<path fill="#808080" d="M135.118,175.38c-1.163,0.464-2.855,0.604-4.365,0.312c0.23,1.955,3.345,1.215,4.884,0.832
		C135.472,175.978,135.287,175.734,135.118,175.38z"/>
	<path fill="#808080" d="M125.453,172.054c0.056,0.371-0.075,0.896,0.104,1.247c0.256,0.507,3.904,0.425,4.677,0
		c0.416-0.234,0.149-1.185-0.312-1.143C128.33,172.298,127.021,172.532,125.453,172.054z"/>
	<path fill="#808080" d="M69.542,168.625c-0.289,2.325,6.593,1.536,2.079,0.728C70.744,169.193,70.137,169.024,69.542,168.625z"/>
	<path fill="#808080" d="M74.011,166.65c0.663,1.241,1.741,1.455,3.637,1.455c-0.062-0.056,0-0.526,0-0.624
		c-0.529-0.072-1.039-0.14-1.455-0.208C75.258,167.115,74.855,166.907,74.011,166.65z"/>
	<path fill="#808080" d="M62.788,166.131c-0.838,1.91,1.767,2.023,3.43,2.39c0.065-0.38,0.081-0.848,0.104-1.143
		c-0.741-0.033-1.169-0.026-1.767-0.208C63.902,166.972,63.297,166.491,62.788,166.131z"/>
	<path fill="#808080" d="M78.896,164.988c-0.253,1.425,1.712,1.468,3.222,1.351c-0.032-0.14-0.312-0.718-0.312-0.728
		c0.084,0.006-0.228,0.11-0.312,0.104C80.539,165.614,79.548,165.368,78.896,164.988z"/>
	<path fill="#808080" d="M68.711,164.676c-0.098,0.331-0.107,0.432-0.208,0.728c0.909,0.529,3.488,2.117,3.741-0.104
		C70.679,165.299,69.702,165.163,68.711,164.676z"/>
	<path fill="#808080" d="M73.596,163.325c0.003,0.003,0,0.728,0,0.728c0.877,0.341,1.89,0.471,3.014,0.624c0,0,0.214-0.714,0-0.52
		C76.174,164.003,74.434,163.711,73.596,163.325z"/>
	<path fill="#808080" d="M129.402,181.719c-0.679,0.27-1.267,0.572-2.182,0.728c-0.737,0.12-1.371-0.055-1.975-0.208
		c0.032,0.315,0,0.728,0,0.728c0.123,0.227,0.11,0.38,0.208,0.624C127.343,183.59,131.389,183.311,129.402,181.719z"/>
	<path fill="#808080" d="M121.088,178.394c0.033,0.468-0.123,0.874,0,1.143c0.432,0.952,3.423,0.253,4.261,0
		c0.094-0.435,0.478-1.133-0.416-1.143C123.55,178.377,122.553,179.072,121.088,178.394z"/>
	<path fill="#808080" d="M121.608,174.237c-1.306,0.412-2.569,0.393-4.053,0.208c-0.708-0.091-0.24,0.715-0.104,1.247
		c1.799,0.267,3.381-0.123,4.677-0.52C121.984,174.912,121.689,174.474,121.608,174.237z"/>
	<path fill="#D9D9D9" d="M139.794,176.107c-1.361-0.049-5.427,1.296-2.39,1.767c0.867,0.133,5.673-0.471,3.949-1.351
		C140.96,176.322,140.223,176.12,139.794,176.107z"/>
	<path fill="#D9D9D9" d="M134.598,173.717c-0.36,0.02-4.979,1.188-3.014,1.559c0.575,0.107,1.494,0.081,2.079,0
		C134.699,175.126,136.981,173.578,134.598,173.717z"/>
	<path fill="#D9D9D9" d="M128.466,170.392c-1.218,0.02-2.27,0.399-2.806,1.143c0.893,0.221,2.046,0.445,3.222,0.312
		C131.084,171.59,130.542,170.356,128.466,170.392z"/>
	<path fill="#D9D9D9" d="M70.582,167.793c-1.802,0.292,1.994,1.559,3.637,1.143c-0.14-0.565,0.126-0.49-0.624-0.728
		c-0.283-0.091-0.517-0.146-0.936-0.208C72.095,167.914,71.352,167.667,70.582,167.793z"/>
	<path fill="#D9D9D9" d="M75.674,165.819c-2.387,0.175,1.081,1.247,2.702,1.247c0.033-0.104,0.208-0.357,0.312-0.52
		C77.831,166.257,76.889,165.728,75.674,165.819z"/>
	<path fill="#D9D9D9" d="M63.827,165.507c-0.601,0.055-0.757,0.341-0.312,0.727c0.718,0.617,5.58,1.276,3.43,0
		c-0.318-0.188-0.497-0.286-0.936-0.416C65.506,165.667,64.463,165.445,63.827,165.507z"/>
	<path fill="#D9D9D9" d="M79.935,164.156c-2.075,0.289,1.646,1.507,3.325,0.624c0.481-0.257-0.857-0.48-1.143-0.52
		C81.582,164.186,80.636,164.056,79.935,164.156z"/>
	<path fill="#D9D9D9" d="M69.75,163.844c-0.646,0.114-0.422,0.315-0.52,0.728c0.896,0.364,2.042,0.416,3.429,0.416
		c0.371-1.004,0.017-0.867-1.247-1.04C71.056,163.899,70.27,163.75,69.75,163.844z"/>
	<path fill="#D9D9D9" d="M75.674,162.493c-3.15,0.072-0.698,1.079,1.039,1.04C78.87,163.48,76.817,162.464,75.674,162.493z"/>
	<path fill="#D9D9D9" d="M128.674,179.641c-0.978,0.11-2.374,0.503-3.014,1.04c-1.13,0.935,0.565,1.393,1.663,1.247
		c0.76-0.104,4.108-1.393,2.702-2.078C129.72,179.699,129.227,179.576,128.674,179.641z"/>
	<path fill="#D9D9D9" d="M125.349,176.523c-0.52,0.013-1.809,0.374-2.286,0.52c-0.584,0.175-0.964,0.283-1.351,0.624
		c-0.867,0.753,2.826,0.429,3.534,0.208c0.312-0.101,0.675-0.442,0.935-0.624C125.92,176.815,126.038,176.5,125.349,176.523z"/>
	<path fill="#D9D9D9" d="M120.153,172.678c-0.383,0.033-1.104,0.221-1.455,0.312c-0.506,0.126-0.844,0.227-1.247,0.416
		c0.052,0.11,0.208,0.416,0.208,0.416c1.552,0.387,3.02,0.208,4.365-0.312C121.851,172.646,121.465,172.558,120.153,172.678z"/>
	<path fill="#ED1A3B" d="M119.552,76.632c0.496-5.379,0.302-11.322,0.122-15.784c-1.652,11.191-6.43,19.927-6.959,20.274
		c-0.021,0.011,4.018,6.004,4.797,7.246C118.14,84.857,119.149,81,119.552,76.632z"/>
	<path fill="#1A1A1A" d="M59.424,59.855c-0.52-0.021,1.946,2.625-2.153,1.84c-3.885-0.744-0.059-1.928-0.331-1.923
		c-2.709,0.05-2.453,1.283-1.313,2.41c1.096,1.083,3.01,2.068,3.888,1.81c0.291-0.088,2.716-1.635,2.468-3.288
		C61.881,60.027,60.727,59.908,59.424,59.855z"/>
	<path fill="#FFFFFF" d="M99.359,58.267c1.056,4.244-5.741,7.001-9.315,7.745c3.763,1.182,14.787,1.68,13.468-4.265
		c-0.098-0.438-0.368-0.484-0.786-0.674c-2.925-1.326-1.119,2.291-1.571,4.041c-0.964-0.684-1.901-0.604-3.255-0.449
		c-0.116,0.453-0.123,1.007-0.449,1.235c-0.579,0.396-1.992,0.225-2.918,0.225c0.6-0.183,1.673-0.477,2.469-0.674
		c0.126-0.558,0.386-1.477,0.898-1.684c0.688-0.284,1.985,0.141,2.469-0.336c0.186-0.186,0-0.449,0-0.449
		c-0.039-0.333-0.112-2.02-0.112-2.02c0.895-0.705,2.571-0.691,1.347-1.571C100.909,58.888,100.31,58.544,99.359,58.267z"/>
	<path fill="#FEDCBD" d="M101.249,51.527c-4.099,0.759-6.117,2.646-8.515,4.133c-2.397,1.488-3.802,3.307-5.841,4.685
		c-0.465,0.314,1.607-2.366,1.916-2.639c-4.671-1.108-8.505-2.297-13.692-1.908c-0.345,0.024-1.984,1.043-3.406,1.075
		c-1.458,0.033-2.696-0.92-2.767-0.963c-2.248,1.406-4.465,2.476-7.52,3.255c2.15,1.028,1.817,2.992,0.112,4.265
		c-0.618,0.456-1.803,0.736-0.898,1.459c2.585,2.066,5.707,4.191,9.091,5.387c8.481,2.992,20.185,4.465,29.63,1.571
		c1.543-0.473,3.767-1.143,4.377-2.469c0.417-0.919,0.195-2.454,0.241-3.302c0.028-0.621,0.134-2.015,0.208-2.646
		c-1.536,4.139-7.025,5.079-12.009,4.041c-1.08-0.228-2.315-1.021-3.255-1.123c-1.494-0.165-4.358,0.451-6.189,0.307
		c6.696-1.075,12.923-2.148,15.505-6.256c0.656-1.048,0.445-2.218-1.038-2.755c0-0.018,0.592-0.163,0.589-0.163
		c3.241,0,5.694,1.403,6.51,4.49c0-3.602,0-6.422,0-9.877C103.558,51.866,102.938,51.215,101.249,51.527z"/>
	<path fill="#472F92" d="M66.906,53.249c-0.191-0.938,0.132-0.711,0.038-0.938c-0.149-0.358-0.171-0.367-0.358-0.666
		c-0.177,0.475-0.101,1.107-0.005,1.642c0.17,0.95,0.498,1.684,1.072,2.488c0.302-0.229,0.228-0.145,0.613-0.32
		C67.928,54.995,67.215,54.087,66.906,53.249z"/>
	<path fill="#FFFFFF" d="M63.331,45.023c-0.61,5.472-0.108,9.067,1.459,12.234c0.926-0.235,1.446-0.755,2.153-1.183
		c-0.312-1.193-0.894-2.126-0.992-3.431c-0.063-0.803,0.333-1.263-0.083-1.777C64.631,49.332,63.966,46.131,63.331,45.023z"/>
	<path fill="#ED1A3B" d="M103.287,44.462c-0.361,2.651-0.947,4.437-2.132,6.173c1.084-0.161,2.09-0.063,3.03,0.225
		C104.01,48.65,103.87,46.233,103.287,44.462z"/>
	<path fill="#FFFFFF" d="M102.406,44.335c0.413-3.219-0.964-5.946-0.964-5.946s-3.857-0.331-7.936,1.102
		c-5.87,2.063-8.331,3.563-12.235,7.737c-1.81,1.929-5.323,7.109-4.827,7.688c0.496,0.579,4.276-0.083,8.324,1.106
		c1.249,0.367,3.954,0.699,5.05,0.373c1.097-0.327,1.814-0.967,2.656-1.539c-1.474-3.403-2.317-12.289,1.699-12.987
		c2.347-0.408,2.448,8.221,1.685,10.901c2.415-1.491,4.729-2.152,4.729-2.152S101.994,47.555,102.406,44.335z"/>
	<path fill="#ED1A3B" d="M153.345,48.278c-3.735-13.033-10.43-22.625-18.616-31.222c-5.244-5.507-11.894-9.158-21.659-8.432
		c-8.126,0.6-25.048,4.298-36.208,12.647c-7.34,5.491-11.074,13.091-12.234,13.971c0.863,1.101,1.207,2.956,1.396,4.394
		c-0.853-1.263-3.308-5.076-5.241-4.915c-0.54,0.042-1.904,0.233-2.356,2.298c-0.868,3.968,2.223,10.466,3.668,12.605
		c0.21-2.711,0.961-9.919-1.933-6.034c0.053-0.677,1.24-6.117,3.555-1.57c0.929,1.824,1.304,5.435,1.736,6.448
		c1.075,2.521,1.91,3.215,2.029,3.513c-0.127-3.1,0.699-4.422,2.352-6.902c-0.827,2.356-3.648,8.767,0.248,10.747
		c1.834,0.932,3.354-0.005,3.885-0.496c2.232-2.067,2.905-3.67,5.55-7.417c3.96-5.611,7.494-8.258,14.979-10.405
		c1.008-0.292,4.394-0.729,6.594-0.526c0.61,0.056-0.112-2.875,0.24-2.704c0.111,0.054,0.878,1.601,1.541,3.308
		s0.821,3.744,1.088,5.08c2.704,13.686,0.385,32.436-1.962,40.09c-1.815,5.92-2.83,12.143-5.103,17.043
		c1.34-0.908,4.837-3.86,5.817-5.103c3.062-3.878,6.021-8.675,9.287-14.696c3.289-6.064,4.593-9.593,6.551-17.243
		c0.418-1.631,1.105-3.406,1.01-5.275c-0.242-4.626-1.098-9.165-1.459-14.03c-0.144-1.887-0.589-4.047-0.112-5.612
		c0.842,3.813,1.179,7.864,1.684,12.122c0.733,6.194,1.866,12.767,1.347,19.754c-0.347,4.623-0.41,8.765-1.122,13.244
		c-0.204,1.273-2.062,5.779-1.571,6.634c2.976,5.181,4.898,11.022,7.246,16.941c1.531-2.143,2.918-3.902,3.641-5.505
		c3.539-7.898,7.411-16.625,8.867-26.488c0.294-2.006,0.708-3.904,1.01-6.173c0.056-0.435,0-1.123,0-1.123
		c0-0.028,0.021-0.326,0-0.337c0.516-3.079,0.719-7.235,0.449-10.887c-0.442-5.907-1.049-11.567-2.02-17.172
		c-0.337-1.926-1.396-4.984-0.898-6.51c1.838,4.521,2.655,9.684,3.255,15.489c0.807,7.874,1.448,16.397,0.112,24.804
		c-0.53,3.325-1.347,6.563-2.133,9.541c-0.316,1.178-1.175,2.69-1.347,3.816c-0.119,0.768,0.33,1.245,0.449,1.796
		c0.512,2.389,0.853,5.184,1.123,7.52c0.726,6.331,0.644,15.231,0.679,15.189c0.43-0.578,5.992-9.546,9.471-21.412
		c2.332-7.952,3.167-18.707,2.982-23.521c-0.007,0.056,0-0.561,0-0.561c-0.235-5.763-1.477-11.385-2.806-16.611
		c-1.102-4.314-3.073-9.07-5.163-12.683c-1.125-1.947-2.739-3.655-3.479-5.949c2.63,3.237,4.847,6.843,6.734,10.887
		c2.143,4.595,3.22,9.67,4.377,15.376c0.596,2.96,1.473,6.594,1.459,10.213c-0.021,3.967-0.347,8.478-0.561,11.673
		c-0.077,1.122-0.442,2.22-0.337,3.592c0.319,4.293,0.786,8.642,0.786,13.244c1.168-3.009,1.792-6.219,2.469-9.877
		c0.716-3.896,1.561-8.309,1.908-12.907C157.287,62.722,155.221,54.83,153.345,48.278z M100.145,32.116
		c-8.94,0.993-13.552,3.276-18.855,7.745c-1.329,1.119-4.413,5.327-5.893,6.295c0.887-2.406,4.946-6.313,6.791-7.754
		c4.118-3.227,8.639-6.75,15.458-7.248c0.897-0.067,1.69,0.422,2.5,0.514C100.145,31.702,100.124,32.105,100.145,32.116z"/>
	<path fill="#472F92" d="M93.989,42.808c-1.816,0.596-2.073,5.091-1.996,6.992c0.121,2.978,0.538,3.637,1.24,4.794
		c0.62-0.372,2.033-1.227,2.149-1.736C95.927,50.431,95.875,42.189,93.989,42.808z M94.162,53.494c-0.58,0.016-1.3-1.736-1.404-3.73
		c-0.135-2.592,0.246-4.565,1.193-4.768c0.768-0.165,1.106,2.858,1.161,4.854C95.167,51.847,94.742,53.478,94.162,53.494z"/>
	
		<ellipse transform="matrix(0.0276 0.9996 -0.9996 0.0276 139.5904 -46.7511)" fill="#FFFFFF" cx="93.825" cy="48.375" rx="1.618" ry="0.426"/>
	<ellipse fill="#FFFFFF" cx="57.602" cy="60.703" rx="1.52" ry="0.701"/>
	<path fill="#FFFFFF" d="M39.829,68.863c-2.037,0.259-3.691,2.972-5.499,3.737c-1.193,0.499-2.468,1.095-3.601,1.44
		c-0.525,0.158-1.159-0.015-1.68,0.24l-0.24,0.24c-2.028,1.65-3.544,1.906-5.666,4.292c-1.545,1.739-2.755,5.362-3.697,7.59
		c-0.874,2.052,0.859,4.235,0.96,6.722c0.071,0.034,0.12,2.235,0.12,2.761c0.079-0.848,0.12,1.894-0.72,3.241
		c-1.924,3.064,2.885,8.51,5.327,9.538c8.942,3.766,20.203,6.244,25.837-2.334c1.751-2.674,2.092-4.926,1.004-8.644
		c1.485,0.795,1.609,2.847,1.44,4.562c1.414-0.702,2.229-1.348,3.372-2.246c6.903-5.421,2.348-8.776,5.871-15.76
		c1.491-2.955,7.629-5.656,6.961-10.083c-0.112-0.747-0.776-1.722-1.32-2.041c-1.305-0.761-3.725-0.458-5.161-0.12
		c-5.559,1.291-7.532,6.737-8.642,12.363c-0.327,1.643-0.308,2.971-0.96,4.201c-1.662,3.106-5.341,4.921-7.562,7.562
		c-1.009,1.197-1.129,2.179-1.681,3.961c-0.945,3.027-3.732,6.463-6.602,7.562c-2.397,0.912-5.555,0.019-7.202-0.96
		c-0.465-0.277-1.028-1.069-1.561-1.2c-0.855-0.214-1.797,0.112-2.521-0.12c-1.253-0.405-2.813-1.575-3.601-2.521
		c-0.308-0.368-0.758-0.646-0.12-0.96c1.114,1.062,2.839,2.258,4.561,2.641c0.825,0.18,0.233-0.176,0-0.48
		c-0.761-0.994-1.332-1.756-1.56-3.001c2.843,2.228,6.594,6.774,12.363,4.801c0.108-0.041,0.469-0.304,0.6-0.36
		c5.06-2.352,4.287-8.444,7.202-12.724c0.623-0.923,2.401-2.123,0.84,0.12c-0.259,0.368-1.316,1.939-0.36,1.08
		c0.976-0.881,2.229-1.792,3.121-2.761c0.619-0.679,0.957-1.474,1.68-2.041l0.12-0.12c0.195-0.233,0.45-0.461,0.6-0.72
		c0.173-0.308,0.379-0.72,0.48-0.96c0.071-0.18,0.071-0.146,0.12-0.24c0.102-0.206,0.31-0.653,0.36-0.84
		c1.557-5.787-2.894-11.356-5.178-14.053C46.342,70.704,42.86,68.473,39.829,68.863z"/>
	<path fill="#FFFFFF" d="M27.223,62.468c-0.509,0.551,0.619,10.521,0.795,10.874s3.359-0.088,6.012-1.591s3.802-2.387,3.448-3.183
		C37.124,67.772,28.283,61.318,27.223,62.468z"/>
	<path fill="#FFFFFF" d="M7.596,93.676c-0.493,0.739,8.487,5.569,9.99,5.569s2.21-2.475,2.033-4.951
		c-0.177-2.475-0.884-6.1-1.945-5.923C16.614,88.548,8.109,92.905,7.596,93.676z"/>
	<path fill="#FFFFFF" d="M67.097,52.56l0.268,0.287c0,0,0,0.268,0.058,0.459c0.057,0.191,0.153,0.574,0.153,0.574
		s-0.383-0.459-0.44-0.766C67.078,52.808,67.097,52.56,67.097,52.56z"/>
	<path fill="#FFFFFF" d="M146.562,136.623c-4.237-5.958-9.657-10.464-17.699-12.614c-1.961-0.525-3.674-1.016-6.382-0.604
		c-0.743,0.111-3.75,0.519-4.378,0.758c-6.262,2.37-7.563,5.686-10.731,9.792c-1.311,1.697-2.918,3.365-3.772,5.487
		c-0.764,1.89-0.761,4.587-0.571,7.087c0.293,3.955,0.432,8.742,2.744,10.746c0.821,0.715,1.754,1.726,3.201,1.144
		c2.458-0.993,4.88-7.22,4.115-10.631c-0.189-0.836-0.307-1.522-1.029-1.715c-0.936-0.254-2.269,0.089-2.858,0.114
		c2.065-1.279,4.439-3.669,7.302,1.635c-0.354,1.072-1.783-1.057-2.729-1.407c0.386,1.458,1.003,2.894,0.571,4.916
		c-0.296,1.361-1.322,2.351-1.714,3.544c-2.008,6.023-1.118,8.667,4.115,10.975c1.429,0.628,3.14,1.54,5.03,1.6
		c4.062,0.125,7.452-1.411,11.088-1.829c0.961-0.114,2,0,2.972,0c-0.425,0.325-0.796,0.658-1.486,0.8
		c2.461,0,5.147,1.043,7.659,0.343c1.029-0.289,5.776-3.397,4.687-4.458c-0.232-0.229-0.732-0.182-1.029-0.343
		c-1.933-1.05-3.09-2.829-2.743-6.173c0.286-2.801,2.883-6.716,6.287-6.173c0.586,0.093,1.357,0.675,1.943,0.915
		C151.623,144.539,149.227,140.371,146.562,136.623z M131.378,155.331c-0.204,1.994-4.762,10.964-6.059,11.203
		c-1.529,0.279-6.412-8.595-6.63-10.517c-0.308-2.654,0.589-4.244,1.829-5.373c0.961-0.879,2.386-1.886,4.001-2.058
		C128.535,148.154,131.778,151.355,131.378,155.331z"/>
	<path fill="#FFFFFF" d="M124.839,149.533c-5.092,0.521-5.894,5.389-5.781,5.95s5.108,10.272,6.118,10.16s5.501-9.486,5.557-10.833
		C130.789,153.463,129.779,149.028,124.839,149.533z"/>
	<path fill="#FFFFFF" d="M144.485,153.014c-2.249,3.177-0.056,6.904,0.618,7.69s12.461,2.245,13.135,1.066s-3.592-6.455-5.389-8.419
		C151.053,151.386,148.021,148.018,144.485,153.014z"/>
</g>
</svg>
