<?xml version="1.0" encoding="UTF-8" standalone="no"?>
<!-- Created with Inkscape (http://www.inkscape.org/) -->
<svg
   xmlns:svg="http://www.w3.org/2000/svg"
   xmlns="http://www.w3.org/2000/svg"
   version="1.0"
   width="398.27725"
   height="578.74323">
  <defs />
  <path
     d="M 190.14865,255.55241 C 185.57865,253.84116 176.5599,249.58741 170.9274,241.13866 C 167.25865,235.63491 160.6399,235.79116 156.0449,238.26491 C 151.73865,240.58366 147.46615,245.80366 149.5924,252.88741 C 151.6724,259.81741 164.6824,267.57116 167.64615,269.26366 C 173.27115,262.43866 181.9974,258.18366 190.14865,255.55241 L 190.14865,255.55241 z"
     style="fill:#ffffff" />
  <path
     d="M 260.8699,261.31866 C 260.0224,258.03116 258.5624,255.13116 256.4849,252.64616 C 250.4249,245.40116 240.61115,243.46741 235.7649,243.46741 C 231.3849,243.46741 226.72865,244.23616 222.96365,245.84616 C 222.9574,245.84866 222.9524,245.85366 222.9449,245.85616 C 220.04865,247.09741 217.69365,248.83991 216.41365,251.13241 C 228.07865,250.95491 237.23365,253.59366 242.6024,258.79866 C 246.43865,262.51616 248.38115,267.45991 248.38115,273.49366 C 248.38115,274.51741 248.32115,275.47491 248.2349,276.40116 C 248.82865,276.41491 249.3999,276.43366 249.94365,276.45491 C 253.8624,276.61241 256.31115,276.70366 261.5549,272.19366 C 261.92865,268.23241 261.71365,264.61991 260.89365,261.38866 C 260.88365,261.36616 260.87615,261.34241 260.8699,261.31866 L 260.8699,261.31866 z"
     style="fill:#ffffff" />
  <path
     d="M 218.69365,276.91241 C 218.5749,276.97741 206.53615,283.63241 206.53615,298.32991 C 206.53615,307.51741 208.9949,315.20491 213.28115,319.42616 C 215.9424,322.04366 219.12115,323.20616 222.7249,322.87866 C 228.3349,322.36616 232.25115,320.21741 234.36115,316.49866 C 238.17365,309.76866 235.16615,299.68241 234.2799,297.07241 L 229.53615,297.57366 C 230.2274,301.14491 231.2549,302.86366 230.7424,303.11241 C 230.4549,303.32241 228.42115,300.45116 227.89865,297.32616 C 227.78865,297.18741 227.7024,297.02366 227.68365,296.82616 C 227.66865,296.67241 227.6999,296.52616 227.75115,296.39366 C 227.35615,293.16616 229.6099,289.93866 230.1149,290.67616 C 230.60865,291.08616 229.1749,292.12116 229.3024,295.71491 L 234.4824,295.16866 C 234.9024,294.73366 235.3524,294.29991 235.81865,293.85991 C 235.8224,293.85491 235.8299,293.84991 235.8349,293.84491 L 235.8399,293.83991 C 236.2424,293.46241 236.6599,293.07866 237.0924,292.68741 C 241.34365,288.84241 246.63115,284.05741 246.63115,273.49366 C 246.63115,268.01116 244.88115,263.53491 241.43115,260.18866 C 235.3224,254.26866 223.82615,251.87991 209.0574,253.46241 C 202.12865,254.20366 178.71615,257.68241 168.3349,271.27241 C 164.75865,275.95616 163.2274,281.33741 163.7799,287.26991 C 165.38115,304.40616 173.59115,307.92741 177.06365,308.64991 C 175.36615,305.02241 174.3774,301.01616 174.3774,297.68366 C 174.3774,287.91741 175.26615,280.92491 187.13365,273.02116 C 187.54365,272.74741 188.08365,272.88241 188.3374,273.32241 C 188.59365,273.76241 188.4699,274.33991 188.0599,274.61366 C 176.93115,282.02366 176.12615,288.27366 176.12615,297.68366 C 176.12615,304.11366 180.2099,313.37616 185.67115,316.15491 C 188.4424,317.56116 191.2774,317.21741 194.11865,315.15616 C 192.3849,313.70366 190.8349,311.96991 189.6249,309.96366 C 186.32365,304.47741 183.07115,292.81991 198.41865,276.37991 C 198.7599,276.01366 199.31365,276.01366 199.65615,276.37991 C 199.9974,276.74616 199.9974,277.33866 199.65615,277.70491 C 185.17615,293.21491 188.07865,303.93741 191.09615,308.94741 C 192.3249,310.98366 193.92615,312.71741 195.71115,314.13366 C 195.9674,314.13366 196.22115,314.23616 196.3949,314.46491 C 196.4649,314.55866 196.51115,314.66116 196.54115,314.76866 C 200.92365,317.90741 206.21115,319.19241 209.9949,318.28616 C 206.6574,313.51866 204.7849,306.45991 204.7849,298.32991 C 204.7849,282.45241 217.78115,275.30616 217.9124,275.23616 C 218.3449,275.00366 218.8699,275.19116 219.0874,275.65491 C 219.3024,276.11866 219.12615,276.68116 218.69365,276.91241 L 218.69365,276.91241 z"
     style="fill:#ffffff" />
  <path
     d="M 166.52865,460.92491 C 166.9074,461.13741 167.06115,461.60366 166.93865,462.02366 C 168.4674,462.93741 170.27865,463.69366 172.36615,464.28741 C 192.13115,469.90491 219.14615,473.67491 234.95115,469.44366 C 247.48615,466.08616 254.73615,463.41616 254.74365,450.32991 C 254.74115,450.29991 254.72865,450.27616 254.72865,450.24616 C 254.72865,450.22241 254.73865,450.19741 254.74115,450.17366 C 254.73115,447.07241 254.31615,443.39116 253.4749,438.98491 C 250.7274,442.27241 241.39615,448.47866 242.5049,449.27991 C 240.26615,447.97116 250.07615,439.75866 252.8024,437.26991 C 252.90365,437.18741 253.0124,437.17241 253.1224,437.18491 L 253.0524,436.84366 L 253.50865,436.48241 C 258.72615,432.37366 261.2549,427.03366 260.27865,422.20491 C 259.0749,416.25241 252.23115,407.94741 226.63115,402.01116 C 226.1599,404.21616 225.67865,406.50116 225.05365,409.48991 C 234.02115,411.31616 239.4724,414.44616 239.00115,417.55616 C 238.52115,420.72741 232.1824,421.96991 221.9699,421.08116 C 221.8924,421.08616 221.8124,421.09616 221.73115,421.07616 C 221.71615,421.07241 221.7049,421.06241 221.6899,421.05741 C 219.3674,420.84741 216.85365,420.53241 214.1599,420.10491 C 199.20865,417.72241 190.89365,414.23866 191.3499,410.54491 C 191.7649,407.18241 198.6749,406.74616 204.7824,407.40741 C 205.18615,405.14866 205.6524,402.59241 206.1449,399.91991 C 186.2774,400.10491 175.87865,404.43616 172.55865,413.91366 C 169.1649,423.61366 174.3999,431.44491 174.45365,431.52116 L 175.0149,432.34116 L 174.83865,432.45616 C 176.0399,435.25866 182.0974,443.89116 182.24365,443.99116 C 181.54615,445.20241 174.2024,437.57616 173.30115,433.50866 C 165.36615,439.12866 160.3099,447.60991 161.19615,454.02616 C 161.5849,456.83366 163.06365,459.20616 165.5299,461.07241 C 165.79615,460.80866 166.19115,460.73491 166.52865,460.92491 L 166.52865,460.92491 z"
     style="fill:#ffffff" />
  <path
     d="M 180.2349,468.24491 C 177.36365,467.57116 174.5724,466.85366 171.91615,466.09866 C 169.6124,465.44241 167.7199,464.62866 166.1674,463.71616 C 162.6224,471.17491 159.42615,479.88491 156.8099,489.14366 C 164.42865,478.90366 172.4224,471.77491 180.2349,468.24491 L 180.2349,468.24491 z"
     style="fill:#ff173d" />
  <path
     d="M 191.8874,485.91741 C 178.82615,483.52741 164.13365,496.14241 150.50115,521.43616 C 148.8649,536.70116 149.3724,551.20866 152.99115,561.92116 C 155.5174,569.40241 159.3724,574.33116 164.44615,576.56991 C 168.50615,578.36241 195.9299,568.80116 223.09365,542.41991 C 217.12865,508.57241 206.0574,488.50991 191.8874,485.91741 L 191.8874,485.91741 z"
     style="fill:#ff173d" />
  <path
     d="M 206.43865,472.54116 C 198.7824,471.85116 190.8724,470.58366 183.41115,468.96241 C 174.1899,472.17991 164.54615,480.84991 155.49365,494.05991 C 153.59115,501.50116 152.0749,509.18991 151.0574,516.76991 C 164.5124,493.25241 179.02615,481.66241 192.1799,484.06991 C 206.95865,486.77366 218.4424,506.94866 224.6074,540.92991 C 228.9674,536.59241 233.30865,531.81866 237.5349,526.58491 C 228.5624,498.97491 218.10115,480.79366 206.43865,472.54116 L 206.43865,472.54116 z"
     style="fill:#ffffff" />
  <path
     d="M 243.5749,468.76241 C 241.12365,469.67491 238.37615,470.45866 235.37365,471.26241 C 228.4374,473.11991 219.4099,473.46741 209.7824,472.81491 C 220.66615,481.85366 230.4274,499.36741 238.8449,524.93866 C 244.01865,518.37616 248.9999,511.11616 253.60615,503.10991 C 254.96365,497.03366 247.6424,473.86991 243.7774,469.72366 C 243.5324,469.46491 243.4724,469.08991 243.5749,468.76241 L 243.5749,468.76241 z"
     style="fill:#ff173d" />
  <path
     d="M 257.89615,451.30116 C 257.34115,451.26491 256.85865,451.23491 256.4499,451.21366 C 256.1824,461.05491 251.8949,465.37116 244.8324,468.27116 C 244.8949,468.31116 244.95865,468.34241 245.0124,468.40116 C 249.21115,472.89741 256.32115,495.22741 255.4224,502.83491 C 257.55365,503.57616 264.5899,505.87116 276.21365,508.19116 C 274.0624,482.76116 286.0674,455.90116 289.7874,448.29116 C 277.28115,452.52491 263.7899,451.67241 257.89615,451.30116 L 257.89615,451.30116 z"
     style="fill:#ff173d" />
  <path
     d="M 326.8999,442.64616 C 305.8674,457.58491 301.3874,481.18366 301.30865,511.96991 C 302.06115,512.05366 302.8124,512.13116 303.5824,512.20991 C 348.7674,516.73366 395.1099,516.79991 396.2624,508.17116 C 397.4124,499.54866 368.50615,463.69366 326.8999,442.64616 L 326.8999,442.64616 z"
     style="fill:#ff173d" />
  <path
     d="M 325.0399,441.73616 C 319.9249,439.22616 314.63615,436.94116 309.1849,434.96616 C 306.9799,437.87866 303.91615,440.69366 300.05365,443.29866 C 297.58115,444.96866 294.94115,446.30616 292.2274,447.38991 C 290.59115,450.52491 275.4074,480.57616 278.00115,508.53741 C 284.0524,509.69741 291.2599,510.84241 299.55865,511.77741 C 299.65615,480.91616 304.1749,457.12616 325.0399,441.73616 L 325.0399,441.73616 z"
     style="fill:#ffffff" />
  <path
     d="M 289.64115,398.95241 C 290.15115,399.68491 290.25365,400.51991 289.9349,401.30616 C 288.8699,403.90616 282.9299,405.81741 272.28115,406.98991 C 265.8649,407.69741 260.18865,407.72741 255.8399,407.19741 C 255.71115,407.22366 255.57615,407.23116 255.4399,407.18991 C 255.39615,407.17741 255.36365,407.14616 255.3249,407.12866 C 250.4149,406.45991 247.3299,405.04116 247.06115,403.00491 C 246.6849,400.11991 251.5574,398.44991 256.00365,397.53366 C 256.1374,394.97991 256.1349,392.19491 256.02115,389.16491 C 239.55115,393.79616 234.5849,399.58741 233.2474,401.77241 C 254.67615,407.80991 260.78615,415.85741 261.9899,421.80866 C 263.08615,427.23366 260.47115,433.10491 254.9949,437.61991 C 255.90615,442.17491 256.3824,446.04241 256.4524,449.33866 C 256.8799,449.35741 257.3849,449.38991 257.99865,449.42866 C 265.4224,449.89991 285.1399,451.14491 299.12115,441.71116 C 307.14365,436.30116 311.53615,430.06616 311.4874,424.15491 C 311.4574,420.06866 309.24615,416.34991 305.28115,413.62116 C 303.21615,415.95491 295.99115,425.27366 296.6949,425.73491 C 294.8874,425.21991 300.70865,415.18741 303.93365,412.71241 L 303.89865,412.69241 L 304.6899,411.84866 C 309.22115,406.98991 310.6524,401.88741 308.71365,397.47866 C 305.79365,390.83741 294.43615,385.00741 275.6249,386.70616 C 275.97865,389.78491 276.44365,392.89741 277.02365,396.00366 C 282.5199,395.43741 288.06365,396.70116 289.64115,398.95241 L 289.64115,398.95241 z"
     style="fill:#ffffff" />
  <path
     d="M 303.48115,318.04241 C 303.9774,318.29116 304.66365,318.48366 305.49865,318.48366 C 306.43365,318.48366 308.1474,318.23241 309.9274,316.73866 C 308.5474,315.79116 307.22865,314.67991 306.02865,313.48866 C 305.2149,315.06366 304.3649,316.58241 303.48115,318.04241 L 303.48115,318.04241 z"
     style="fill:#ffffff" />
  <path
     d="M 316.42865,312.53866 C 314.53615,310.50991 311.92365,305.66116 310.5474,302.98116 C 309.45615,306.09116 308.2249,309.01616 306.8874,311.77491 C 311.1499,316.14741 317.1249,319.64866 321.30365,316.58991 C 319.67615,315.61741 318.0499,314.27491 316.42865,312.53866 L 316.42865,312.53866 z"
     style="fill:#ffffff" />
  <path
     d="M 316.9899,295.03616 C 315.5599,295.48366 314.11115,295.82241 312.65865,296.09116 C 312.25365,297.63616 311.81365,299.14366 311.3449,300.61241 C 312.13865,302.21491 315.5199,308.91366 317.66615,311.21366 C 319.52365,313.20616 321.3749,314.64366 323.20615,315.52991 C 323.21615,315.53491 323.2299,315.53991 323.2449,315.54741 C 325.07115,316.42366 326.8774,316.74616 328.6474,316.50616 C 333.9674,315.78366 337.57115,310.21241 338.8749,307.85116 C 340.50115,304.89991 338.2299,302.93241 334.0774,299.70491 C 330.9349,297.26366 327.4274,294.51116 325.68115,290.45116 C 323.5474,292.26616 320.7224,293.87741 316.9899,295.03616 L 316.9899,295.03616 z"
     style="fill:#ffffff" />
  <path
     d="M 312.3099,265.75741 C 311.85865,270.48616 310.06115,274.40616 307.1074,277.26866 C 311.0724,277.31866 314.6124,276.60866 317.0149,274.73741 C 319.25115,272.99366 320.38865,270.29491 320.38865,266.72116 C 320.38865,256.86616 312.85365,250.65491 308.3249,247.80866 C 310.98115,252.45491 312.9174,259.35866 312.3099,265.75741 L 312.3099,265.75741 z"
     style="fill:#ffffff" />
  <path
     d="M 268.19115,259.99991 C 268.2249,260.11866 268.2349,260.23866 268.2224,260.36116 C 268.41365,262.20991 268.7549,263.72866 269.03365,264.74491 C 271.29365,262.28741 273.90115,259.33741 276.96615,255.76366 C 280.36115,251.80866 284.41615,250.18866 288.39365,251.20366 C 292.4999,252.25116 295.9649,255.99116 297.2174,260.73241 C 298.42365,265.29241 297.3174,269.83366 294.1849,273.18991 C 293.7874,273.61741 293.32115,274.11116 292.8024,274.65616 C 296.53615,275.85616 300.6174,276.78241 304.4774,277.12241 C 308.0299,274.50491 310.08615,270.62491 310.56865,265.56616 C 311.29615,257.90616 308.1549,249.49491 304.6949,245.77866 C 304.6949,245.77866 304.6949,245.77741 304.6924,245.77616 L 304.6899,245.77241 C 298.9474,239.62366 283.5699,231.99741 274.01865,242.21866 L 274.01865,242.21991 L 274.01615,242.22491 C 268.4499,248.18866 267.75865,255.13491 268.19115,259.99991 L 268.19115,259.99991 z"
     style="fill:#ffffff" />
  <path
     d="M 249.87865,278.32866 C 249.2824,278.30491 248.6549,278.28491 248.00115,278.27241 C 246.6799,286.43991 242.06115,290.64741 238.2224,294.12116 C 238.18865,294.14991 238.1599,294.17741 238.1274,294.20866 C 241.51865,295.58366 250.6499,299.00616 257.43865,299.00616 C 264.94115,299.00616 280.70115,284.98491 292.9474,271.86366 C 295.6174,269.00241 296.5599,265.13241 295.5324,261.24366 C 294.46865,257.20866 291.43615,253.90616 287.98865,253.02741 C 285.6324,252.42616 282.02865,252.63366 278.2549,257.03366 C 274.75615,261.11241 271.81365,264.41741 269.2999,267.09866 C 269.2774,267.12241 269.25615,267.14491 269.23365,267.16741 C 266.8049,269.74866 264.77615,271.74491 263.0224,273.28491 C 262.97115,273.34116 262.9199,273.38741 262.85865,273.42741 C 256.91615,278.60991 254.1824,278.50241 249.87865,278.32866 L 249.87865,278.32866 z"
     style="fill:#ffccb2" />
  <path
     d="M 267.64615,266.23366 C 267.4049,265.45366 266.9949,263.93866 266.7074,261.94491 C 265.4149,262.67741 264.02365,262.70366 262.90115,262.47116 C 263.38365,264.96491 263.5599,267.64366 263.41865,270.50616 C 264.66865,269.32616 266.0649,267.91366 267.64615,266.23366 L 267.64615,266.23366 z"
     style="fill:#ffccb2" />
  <path
     d="M 318.0449,276.25491 C 314.5924,278.94241 309.54865,279.42741 304.66615,279.02616 C 304.6099,279.02241 304.55365,279.02491 304.4999,279.00991 C 299.11365,278.54491 293.9699,277.02366 291.3724,276.14866 C 288.0449,279.59241 283.2199,284.37866 278.07615,288.82866 C 282.97115,290.99366 300.9349,298.07866 316.50115,293.23491 C 320.5199,291.98741 323.39115,290.18991 325.4424,288.20616 L 325.4474,288.20116 C 328.1199,285.60991 329.3974,282.69366 329.98865,280.23866 C 331.4474,274.14241 329.4074,268.38616 327.56865,266.41616 C 325.15615,263.83241 322.97865,262.73491 321.6624,262.26991 C 321.96365,263.66741 322.13615,265.14741 322.13615,266.72116 C 322.13615,270.92866 320.7599,274.13741 318.0449,276.25491 L 318.0449,276.25491 z"
     style="fill:#ffccb2" />
  <path
     d="M 305.04865,311.50116 C 306.74615,308.08366 308.2649,304.39241 309.55865,300.40741 L 309.55865,300.40491 C 309.98365,299.10116 310.37865,297.76116 310.7524,296.39366 C 295.1099,298.50366 279.46615,291.56241 276.51365,290.15866 C 269.5874,295.97366 262.3049,300.88116 257.43865,300.88116 C 249.53865,300.88116 239.0549,296.63366 236.62115,295.59866 C 236.3649,295.84241 236.12865,296.08366 235.89115,296.32616 C 236.83365,299.01616 240.16865,309.85616 235.8574,317.46866 C 233.84115,321.02741 230.4449,323.30366 225.77115,324.29491 C 249.0699,347.89366 280.9699,339.04991 296.4624,324.93866 C 296.4799,324.91991 296.50365,324.91491 296.52615,324.89991 C 298.2474,322.74866 299.8899,320.43741 301.44115,317.96116 C 301.4824,317.84241 301.54615,317.72991 301.63615,317.63491 C 301.64365,317.62491 301.65365,317.62491 301.6599,317.61491 C 302.8274,315.72491 303.93865,313.73741 304.97865,311.64491 C 304.9949,311.59366 305.0249,311.54991 305.04865,311.50116 L 305.04865,311.50116 z"
     style="fill:#ffccb2" />
  <path
     d="M 248.3599,244.44991 C 251.74115,245.96491 255.1049,248.18616 257.78865,251.39491 C 259.95865,253.99116 261.4974,257.00241 262.4274,260.38241 C 263.1599,260.67991 264.97615,261.19741 266.4799,259.85991 C 266.10865,254.85866 266.83865,247.96491 271.8724,241.92491 L 265.17115,239.08366 C 259.01615,241.53866 253.2699,243.30241 248.3599,244.44991 L 248.3599,244.44991 z"
     style="fill:#ffccb2" />
  <path
     d="M 173.83865,368.30366 C 188.72115,366.60366 205.8499,349.50491 209.56865,345.61241 C 206.1724,343.11991 202.89365,340.13866 199.9999,337.24866 C 197.89615,342.10241 189.2999,360.00241 173.83865,368.30366 L 173.83865,368.30366 z"
     style="fill:#007fff" />
  <path
     d="M 273.7649,385.93491 C 273.7624,385.90866 273.7724,385.88616 273.7724,385.85741 C 271.8124,367.76116 273.2499,351.20366 273.82615,345.88616 C 266.72865,349.68991 259.85115,352.08491 254.20865,353.58366 C 256.62615,373.18116 258.3749,387.63616 257.7074,398.28616 C 257.7099,398.37616 257.7124,398.46866 257.69115,398.55491 C 257.5249,401.05491 257.2199,403.34491 256.75865,405.43741 C 260.4574,405.81991 265.49865,405.85241 272.1024,405.12491 C 273.9899,404.91991 275.6499,404.69491 277.1249,404.45991 C 276.4874,402.05866 275.9324,399.62366 275.4574,397.17991 C 275.4549,397.16741 275.4499,397.15866 275.4474,397.14616 C 275.4474,397.14116 275.4499,397.13616 275.4499,397.13116 C 274.73115,393.41991 274.1924,389.69241 273.7899,386.02241 C 273.7849,385.99366 273.7674,385.96741 273.7649,385.93491 L 273.7649,385.93491 z"
     style="fill:#007fff" />
  <path
     d="M 204.95865,416.37741 C 207.54365,417.01366 210.6599,417.64866 214.41865,418.24991 C 216.94365,418.64991 219.1924,418.93116 221.2424,419.13366 L 222.57865,412.75116 C 223.71365,407.31741 224.4024,404.01616 225.1174,400.70616 L 225.1174,400.70366 C 226.1499,395.90366 227.23615,391.08116 229.7949,379.71491 C 234.2599,359.88991 236.6799,354.15991 240.58115,354.15991 C 240.87865,354.15991 257.14365,353.14741 274.33615,343.53241 C 274.44365,343.43491 274.56615,343.36241 274.7049,343.32741 C 279.84615,340.41741 285.05615,336.74116 289.94115,332.08241 C 272.26115,343.00491 244.4049,346.77741 223.5799,324.65116 C 223.3399,324.67991 223.1174,324.72366 222.87365,324.74366 C 218.81865,325.11491 215.09365,323.75241 212.0999,320.80616 C 211.7949,320.50741 211.50115,320.19241 211.21615,319.86366 C 206.9824,321.24491 200.7299,319.93116 195.6174,316.31866 C 191.21115,319.79991 187.3949,319.10366 184.9224,317.84866 C 182.22865,316.47741 179.8899,313.82116 178.10365,310.68116 C 175.5274,310.42491 163.9674,308.11991 162.04115,287.45616 C 161.4624,281.28616 162.98615,275.67491 166.51865,270.74741 C 165.66865,270.25991 164.31865,269.45741 162.7224,268.42491 C 143.69615,281.64116 138.40115,307.86866 136.0824,326.51366 C 134.10865,342.34616 136.1599,344.28491 136.5924,344.51366 C 136.9849,344.72366 137.7024,344.33116 138.50615,343.46866 C 150.9449,330.14366 172.04365,319.31866 191.1474,325.16866 L 191.3674,325.23241 L 191.52865,325.40491 C 191.95365,325.86366 192.5324,326.51616 193.2624,327.34616 C 197.46115,332.09241 206.19365,341.96741 214.7999,346.84866 C 217.98865,348.65991 214.6949,370.37866 212.8149,376.67241 C 211.6699,380.50741 209.8149,389.84366 208.20115,398.48366 C 208.28115,398.62491 208.3399,398.78366 208.3399,398.96241 C 208.3399,399.27491 208.18865,399.53866 207.97365,399.70741 C 206.3599,408.40116 205.0399,416.07241 205.0149,416.22866 C 205.0049,416.28116 204.97615,416.32616 204.95865,416.37741 L 204.95865,416.37741 z"
     style="fill:#007fff" />
  <path
     d="M 319.74365,78.46241 C 323.3274,76.82366 327.23365,77.84866 330.82115,81.39616 C 332.04865,82.60991 333.19615,84.06741 334.24615,85.72491 C 341.5649,75.93366 343.9824,42.95366 342.88865,40.30741 C 340.2474,38.57616 309.77365,36.21116 288.6674,44.46991 C 299.77865,53.29616 310.4549,64.23366 319.74365,78.46241 L 319.74365,78.46241 z"
     style="fill:#007fff" />
  <path
     d="M 149.6799,79.01866 L 148.8624,79.89491 L 148.29865,78.81491 C 141.1374,65.13866 145.9599,40.35616 147.8424,38.34241 C 148.18115,37.97866 148.91115,37.56116 151.5849,37.56116 C 158.8699,37.56116 177.98115,40.92491 187.3124,50.92241 L 188.80365,52.52241 L 186.6924,52.52241 C 183.48865,52.52241 160.1074,67.84616 149.6799,79.01866 z M 137.4999,92.12866 C 137.7174,92.59116 137.54115,93.15491 137.1099,93.38616 C 136.6774,93.61866 136.1524,93.42991 135.9349,92.96616 C 125.4324,70.46366 130.6549,27.40491 133.9924,23.82866 C 137.23865,20.34991 178.0274,22.51741 201.65615,40.82616 C 202.04865,41.12991 202.13615,41.71616 201.85115,42.13616 C 201.5699,42.55491 201.02365,42.64866 200.6299,42.34616 C 177.25865,24.23366 137.89115,22.60741 135.2299,25.15366 C 133.08365,27.45366 126.8849,69.38116 137.4999,92.12866 z M 155.25865,236.58991 C 160.49865,233.76741 168.08365,233.64741 172.35115,240.04866 C 179.1649,250.27116 191.6649,254.16491 193.2374,254.62116 C 199.94615,252.73616 205.90615,251.91616 208.8849,251.59616 C 210.78615,251.39241 212.6374,251.25491 214.42865,251.17991 C 215.48115,248.69241 217.4224,246.75741 219.87615,245.30991 C 165.11865,233.83866 152.44865,202.16991 151.96615,188.38866 C 151.6774,180.23116 155.7349,172.12616 160.6524,168.74616 C 167.7424,163.87866 177.77615,165.45366 189.13615,170.17616 C 178.39865,147.55366 174.8174,101.88366 189.73865,80.91741 C 195.81865,72.37366 206.1849,67.07991 216.1824,66.18491 C 233.8549,64.60491 248.69115,77.42866 255.6574,89.41741 C 261.8774,100.12241 267.8149,113.84241 272.7424,125.67866 C 278.5649,139.67491 284.0649,152.89366 288.7499,152.89366 C 296.01615,152.89366 311.31615,123.17991 314.7099,111.61991 L 315.04615,110.46116 C 317.25365,102.90366 319.33865,95.76616 323.19365,95.33366 C 325.6474,95.05616 328.1474,97.50991 331.0574,103.05366 C 335.3149,111.16616 336.21865,123.01741 336.4674,129.98991 C 341.3849,114.03866 339.14615,97.75116 333.5374,87.97366 C 333.52865,87.96366 333.51115,87.95866 333.49865,87.94741 C 333.39615,87.83741 333.3349,87.70241 333.29365,87.56366 C 332.1899,85.70366 330.9599,84.08741 329.63615,82.77491 C 327.34115,80.50991 323.7899,78.27241 319.86365,80.47616 C 319.6174,80.61491 319.34115,80.60241 319.1024,80.48741 C 319.1024,80.66366 319.0699,80.80866 318.9924,80.86366 C 314.7824,81.28116 309.02115,95.25366 308.4449,95.18616 C 307.7124,95.35241 311.7949,80.26116 318.10115,79.21866 C 298.1599,48.85991 271.74115,33.69366 248.49615,21.86241 C 207.12865,0.80491 97.1374,-15.80259 16.54365,37.89741 L 16.7699,37.94741 C 31.8024,41.05991 71.72615,49.32991 104.8224,84.78866 C 105.05115,85.03366 105.1349,85.39366 105.0399,85.72491 C 104.94615,86.05741 104.6899,86.30491 104.3699,86.37241 C 83.93115,90.65366 60.4299,104.59741 41.50615,123.67116 C 20.6249,144.71866 6.6774,170.48866 1.9774,196.50491 C 10.15865,189.70741 28.69365,182.46366 47.9199,178.73116 C 63.1649,175.77366 91.74115,172.56241 111.84865,184.29491 C 112.0899,184.43616 112.25615,184.68991 112.2949,184.98241 C 112.33365,185.27616 112.24365,185.57116 112.04865,185.77991 C 95.3199,203.70116 59.7174,249.61741 88.0449,290.75991 C 89.1974,289.49741 90.45865,288.05866 91.7899,286.54116 C 102.8699,273.89116 121.32115,252.85741 147.6274,252.26491 C 146.08615,245.12366 150.2249,239.29991 155.25865,236.58991 L 155.25865,236.58991 z"
     style="fill:#007fff" />
  <path
     d="M 149.0549,39.70241 C 147.79615,41.43616 143.38115,63.79991 149.2949,76.80241 C 159.10865,66.71741 178.27865,53.68866 184.9249,51.10866 C 174.0549,41.00116 151.30615,38.44491 149.0549,39.70241 L 149.0549,39.70241 z"
     style="fill:#ffccb2" />
  <path
     d="M 209.8899,216.44741 C 196.5924,212.54866 184.0699,201.06616 179.10365,194.56116 C 178.73365,194.11741 177.26365,194.75866 177.47115,197.96741 C 177.65365,200.79741 178.6699,202.08241 178.3699,202.22741 C 178.30115,202.31366 176.65365,200.33116 176.2849,196.67241 C 175.68865,192.90491 177.7424,190.62491 181.33365,188.87241 C 188.70365,184.73116 198.51615,188.23991 198.10115,188.77616 C 197.7124,188.94866 189.86865,185.64241 182.7174,190.09741 C 180.70615,191.35241 179.9899,192.92741 180.2399,193.19616 C 184.1724,197.99116 195.49115,209.92241 208.7674,214.68741 C 221.9949,219.97616 234.66615,216.55366 234.52615,216.62866 C 234.8274,216.97491 223.1199,220.90366 209.8899,216.44741 z M 301.51615,189.69741 C 299.6924,185.91116 301.82365,180.50741 306.5574,175.40991 C 298.49365,172.88366 288.9974,172.82616 275.3174,180.78116 C 252.2974,194.16991 220.77365,187.42616 200.77865,177.58241 C 184.93865,169.78616 171.0449,164.22991 162.54115,170.06866 C 158.1599,173.07866 153.9999,178.49866 153.9999,187.85866 C 153.9999,201.27866 166.75615,232.91741 222.6249,243.95866 C 226.6999,242.28866 231.53365,241.59241 235.7649,241.59241 C 238.10365,241.59241 241.53865,242.02991 245.19615,243.22741 C 250.6399,242.14741 257.4324,240.19116 264.7974,237.23991 C 264.8299,237.22366 264.86115,237.21491 264.8924,237.20241 C 283.7899,229.61366 306.41115,215.43991 319.7199,192.46116 C 311.1424,195.16866 303.73365,194.29741 301.51615,189.69741 L 301.51615,189.69741 z"
     style="fill:#ffccb2" />
  <path
     d="M 320.0224,176.03241 C 320.87615,177.79741 325.2074,177.21491 329.7049,174.72491 C 334.2024,172.23866 337.15615,168.79116 336.30365,167.02616 C 335.4524,165.25866 331.11865,165.84241 326.62365,168.32991 C 322.12615,170.81741 319.1724,174.26491 320.0224,176.03241 L 320.0224,176.03241 z"
     style="fill:#ffffff" />
  <path
     d="M 298.5324,156.84616 C 300.2424,156.08491 303.3649,148.40116 302.25365,141.34991 L 297.5199,148.51866 C 296.4549,154.20116 297.5074,157.30241 298.5324,156.84616 L 298.5324,156.84616 z"
     style="fill:#ffffff" />
  <path
     d="M 225.99365,135.94991 C 224.5949,153.02491 218.9949,166.44366 213.48365,165.92616 C 207.97615,165.40866 204.64365,151.14741 206.0424,134.07241 C 207.44115,116.99866 213.0424,103.57616 218.5524,104.09616 C 224.0624,104.61366 227.3949,118.87616 225.99365,135.94991 z M 323.37615,97.19741 C 320.6649,97.50241 318.5674,104.68491 316.71615,111.01991 L 316.3774,112.18116 C 315.1274,116.43866 311.8874,124.13116 307.87365,131.81741 C 310.04615,146.23616 304.4974,167.05616 298.38365,167.05616 C 293.1599,167.05616 293.53115,156.06866 293.81615,152.24866 C 292.0049,153.83116 290.28365,154.76866 288.7499,154.76866 C 282.9274,154.76866 277.7274,142.26866 271.1424,126.44241 C 266.2474,114.68366 260.37865,100.93866 254.01365,91.15241 C 246.93865,80.27616 232.04865,66.94116 215.29365,68.69616 C 207.7124,69.49116 198.2649,73.87866 192.1949,81.48491 C 176.51615,101.12741 180.4474,149.74116 191.65615,171.25241 C 194.96365,172.70241 198.27615,174.28991 201.50865,175.87866 C 221.1399,185.54241 252.02865,192.19241 274.4824,179.13366 C 289.33115,170.49866 299.42615,170.94866 308.0324,173.91241 C 310.61365,171.43616 313.79615,169.07741 317.4249,167.07241 C 321.8124,164.64491 326.21865,163.07741 330.16865,162.38616 C 331.5849,158.54491 334.8074,147.11241 334.98615,135.50241 C 335.18865,122.36741 332.1174,108.89741 329.53115,103.97491 C 326.4724,98.14491 324.4949,97.07116 323.37615,97.19741 L 323.37615,97.19741 z"
     style="fill:#ffffff" />
  <path
     d="M 218.30115,110.85116 C 216.1374,110.64866 213.9849,115.38116 213.48865,121.42116 C 212.99365,127.46241 214.34615,132.52491 216.50615,132.72741 C 218.6674,132.93116 220.82115,128.19866 221.31615,122.15866 C 221.8124,116.11616 220.46115,111.05491 218.30115,110.85116 L 218.30115,110.85116 z"
     style="fill:#ffffff" />
  <path
     d="M 200.6299,42.34616 C 201.02365,42.64866 201.5699,42.55491 201.85115,42.13616 C 202.13615,41.71616 202.04865,41.12991 201.65615,40.82616 C 178.0274,22.51741 137.23865,20.34991 133.9924,23.82866 C 130.6549,27.40491 125.4324,70.46366 135.9349,92.96616 C 136.1524,93.42991 136.6774,93.61866 137.1099,93.38616 C 137.54115,93.15491 137.7174,92.59116 137.4999,92.12866 C 126.8849,69.38116 133.08365,27.45366 135.2299,25.15366 C 137.89115,22.60741 177.25865,24.23366 200.6299,42.34616 L 200.6299,42.34616 z"
     style="fill:#000000" />
  <path
     d="M 221.31615,122.15866 C 220.82115,128.19866 218.6674,132.93116 216.50615,132.72741 C 214.34615,132.52491 212.99365,127.46241 213.48865,121.42116 C 213.9849,115.38116 216.1374,110.64866 218.30115,110.85116 C 220.46115,111.05491 221.8124,116.11616 221.31615,122.15866 z M 218.5524,104.09616 C 213.0424,103.57616 207.44115,116.99866 206.0424,134.07241 C 204.64365,151.14741 207.97615,165.40866 213.48365,165.92616 C 218.9949,166.44366 224.5949,153.02491 225.99365,135.94991 C 227.3949,118.87616 224.0624,104.61366 218.5524,104.09616 L 218.5524,104.09616 z"
     style="fill:#000000" />
  <path
     d="M 149.2949,76.80241 C 143.38115,63.79991 147.79615,41.43616 149.0549,39.70241 C 151.30615,38.44491 174.0549,41.00116 184.9249,51.10866 C 178.27865,53.68866 159.10865,66.71741 149.2949,76.80241 z M 188.80365,52.52241 L 187.3124,50.92241 C 177.98115,40.92491 158.8699,37.56116 151.5849,37.56116 C 148.91115,37.56116 148.18115,37.97866 147.8424,38.34241 C 145.9599,40.35616 141.1374,65.13866 148.29865,78.81491 L 148.8624,79.89491 L 149.6799,79.01866 C 160.1074,67.84616 183.48865,52.52241 186.6924,52.52241 L 188.80365,52.52241 z"
     style="fill:#000000" />
  <path
     d="M 208.7674,214.68741 C 195.49115,209.92241 184.1724,197.99116 180.2399,193.19616 C 179.9899,192.92741 180.70615,191.35241 182.7174,190.09741 C 189.86865,185.64241 197.7124,188.94866 198.10115,188.77616 C 198.51615,188.23991 188.70365,184.73116 181.33365,188.87241 C 177.7424,190.62491 175.68865,192.90491 176.2849,196.67241 C 176.65365,200.33116 178.30115,202.31366 178.3699,202.22741 C 178.6699,202.08241 177.65365,200.79741 177.47115,197.96741 C 177.26365,194.75866 178.73365,194.11741 179.10365,194.56116 C 184.0699,201.06616 196.5924,212.54866 209.8899,216.44741 C 223.1199,220.90366 234.8274,216.97491 234.52615,216.62866 C 234.66615,216.55366 221.9949,219.97616 208.7674,214.68741 L 208.7674,214.68741 z"
     style="fill:#000000" />
  <path
     d="M 396.2624,508.17116 C 395.1099,516.79991 348.7674,516.73366 303.5824,512.20991 C 302.8124,512.13116 302.06115,512.05366 301.30865,511.96991 C 301.3874,481.18366 305.8674,457.58491 326.8999,442.64616 C 368.50615,463.69366 397.4124,499.54866 396.2624,508.17116 z M 278.00115,508.53741 C 275.4074,480.57616 290.59115,450.52491 292.2274,447.38991 C 294.94115,446.30616 297.58115,444.96866 300.05365,443.29866 C 303.91615,440.69366 306.9799,437.87866 309.1849,434.96616 C 314.63615,436.94116 319.9249,439.22616 325.0399,441.73616 C 304.1749,457.12616 299.65615,480.91616 299.55865,511.77741 C 291.2599,510.84241 284.0524,509.69741 278.00115,508.53741 z M 276.21365,508.19116 C 264.5899,505.87116 257.55365,503.57616 255.4224,502.83491 C 256.32115,495.22741 249.21115,472.89741 245.0124,468.40116 C 244.95865,468.34241 244.8949,468.31116 244.8324,468.27116 C 251.8949,465.37116 256.1824,461.05491 256.4499,451.21366 C 256.85865,451.23491 257.34115,451.26491 257.89615,451.30116 C 263.7899,451.67241 277.28115,452.52491 289.7874,448.29116 C 286.0674,455.90116 274.0624,482.76116 276.21365,508.19116 z M 253.60615,503.10991 C 248.9999,511.11616 244.01865,518.37616 238.8449,524.93866 C 230.4274,499.36741 220.66615,481.85366 209.7824,472.81491 C 219.4099,473.46741 228.4374,473.11991 235.37365,471.26241 C 238.37615,470.45866 241.12365,469.67491 243.5749,468.76241 C 243.4724,469.08991 243.5324,469.46491 243.7774,469.72366 C 247.6424,473.86991 254.96365,497.03366 253.60615,503.10991 z M 224.6074,540.92991 C 218.4424,506.94866 206.95865,486.77366 192.1799,484.06991 C 179.02615,481.66241 164.5124,493.25241 151.0574,516.76991 C 152.0749,509.18991 153.59115,501.50116 155.49365,494.05991 C 164.54615,480.84991 174.1899,472.17991 183.41115,468.96241 C 190.8724,470.58366 198.7824,471.85116 206.43865,472.54116 C 218.10115,480.79366 228.5624,498.97491 237.5349,526.58491 C 233.30865,531.81866 228.9674,536.59241 224.6074,540.92991 z M 164.44615,576.56991 C 159.3724,574.33116 155.5174,569.40241 152.99115,561.92116 C 149.3724,551.20866 148.8649,536.70116 150.50115,521.43616 C 164.13365,496.14241 178.82615,483.52741 191.8874,485.91741 C 206.0574,488.50991 217.12865,508.57241 223.09365,542.41991 C 195.9299,568.80116 168.50615,578.36241 164.44615,576.56991 z M 166.1674,463.71616 C 167.7199,464.62866 169.6124,465.44241 171.91615,466.09866 C 174.5724,466.85366 177.36365,467.57116 180.2349,468.24491 C 172.4224,471.77491 164.42865,478.90366 156.8099,489.14366 C 159.42615,479.88491 162.6224,471.17491 166.1674,463.71616 z M 161.19615,454.02616 C 160.3099,447.60991 165.36615,439.12866 173.30115,433.50866 C 174.2024,437.57616 181.54615,445.20241 182.24365,443.99116 C 182.0974,443.89116 176.0399,435.25866 174.83865,432.45616 L 175.0149,432.34116 L 174.45365,431.52116 C 174.3999,431.44491 169.1649,423.61366 172.55865,413.91366 C 175.87865,404.43616 186.2774,400.10491 206.1449,399.91991 C 205.6524,402.59241 205.18615,405.14866 204.7824,407.40741 C 198.6749,406.74616 191.7649,407.18241 191.3499,410.54491 C 190.89365,414.23866 199.20865,417.72241 214.1599,420.10491 C 216.85365,420.53241 219.3674,420.84741 221.6899,421.05741 C 221.7049,421.06241 221.71615,421.07241 221.73115,421.07616 C 221.8124,421.09616 221.8924,421.08616 221.9699,421.08116 C 232.1824,421.96991 238.52115,420.72741 239.00115,417.55616 C 239.4724,414.44616 234.02115,411.31616 225.05365,409.48991 C 225.67865,406.50116 226.1599,404.21616 226.63115,402.01116 C 252.23115,407.94741 259.0749,416.25241 260.27865,422.20491 C 261.2549,427.03366 258.72615,432.37366 253.50865,436.48241 L 253.0524,436.84366 L 253.1224,437.18491 C 253.0124,437.17241 252.90365,437.18741 252.8024,437.26991 C 250.07615,439.75866 240.26615,447.97116 242.5049,449.27991 C 241.39615,448.47866 250.7274,442.27241 253.4749,438.98491 C 254.31615,443.39116 254.73115,447.07241 254.74115,450.17366 C 254.73865,450.19741 254.72865,450.22241 254.72865,450.24616 C 254.72865,450.27616 254.74115,450.29991 254.74365,450.32991 C 254.73615,463.41616 247.48615,466.08616 234.95115,469.44366 C 219.14615,473.67491 192.13115,469.90491 172.36615,464.28741 C 170.27865,463.69366 168.4674,462.93741 166.93865,462.02366 C 167.06115,461.60366 166.9074,461.13741 166.52865,460.92491 C 166.19115,460.73491 165.79615,460.80866 165.5299,461.07241 C 163.06365,459.20616 161.5849,456.83366 161.19615,454.02616 z M 207.97365,399.70741 C 208.18865,399.53866 208.3399,399.27491 208.3399,398.96241 C 208.3399,398.78366 208.28115,398.62491 208.20115,398.48366 C 209.8149,389.84366 211.6699,380.50741 212.8149,376.67241 C 214.6949,370.37866 217.98865,348.65991 214.7999,346.84866 C 206.19365,341.96741 197.46115,332.09241 193.2624,327.34616 C 192.5324,326.51616 191.95365,325.86366 191.52865,325.40491 L 191.3674,325.23241 L 191.1474,325.16866 C 172.04365,319.31866 150.9449,330.14366 138.50615,343.46866 C 137.7024,344.33116 136.9849,344.72366 136.5924,344.51366 C 136.1599,344.28491 134.10865,342.34616 136.0824,326.51366 C 138.40115,307.86866 143.69615,281.64116 162.7224,268.42491 C 164.31865,269.45741 165.66865,270.25991 166.51865,270.74741 C 162.98615,275.67491 161.4624,281.28616 162.04115,287.45616 C 163.9674,308.11991 175.5274,310.42491 178.10365,310.68116 C 179.8899,313.82116 182.22865,316.47741 184.9224,317.84866 C 187.3949,319.10366 191.21115,319.79991 195.6174,316.31866 C 200.7299,319.93116 206.9824,321.24491 211.21615,319.86366 C 211.50115,320.19241 211.7949,320.50741 212.0999,320.80616 C 215.09365,323.75241 218.81865,325.11491 222.87365,324.74366 C 223.1174,324.72366 223.3399,324.67991 223.5799,324.65116 C 244.4049,346.77741 272.26115,343.00491 289.94115,332.08241 C 285.05615,336.74116 279.84615,340.41741 274.7049,343.32741 C 274.56615,343.36241 274.44365,343.43491 274.33615,343.53241 C 257.14365,353.14741 240.87865,354.15991 240.58115,354.15991 C 236.6799,354.15991 234.2599,359.88991 229.7949,379.71491 C 227.23615,391.08116 226.1499,395.90366 225.1174,400.70366 L 225.1174,400.70616 C 224.4024,404.01616 223.71365,407.31741 222.57865,412.75116 L 221.2424,419.13366 C 219.1924,418.93116 216.94365,418.64991 214.41865,418.24991 C 210.6599,417.64866 207.54365,417.01366 204.95865,416.37741 C 204.97615,416.32616 205.0049,416.28116 205.0149,416.22866 C 205.0399,416.07241 206.3599,408.40116 207.97365,399.70741 z M 173.83865,368.30366 C 189.2999,360.00241 197.89615,342.10241 199.9999,337.24866 C 202.89365,340.13866 206.1724,343.11991 209.56865,345.61241 C 205.8499,349.50491 188.72115,366.60366 173.83865,368.30366 z M 149.5924,252.88741 C 147.46615,245.80366 151.73865,240.58366 156.0449,238.26491 C 160.6399,235.79116 167.25865,235.63491 170.9274,241.13866 C 176.5599,249.58741 185.57865,253.84116 190.14865,255.55241 C 181.9974,258.18366 173.27115,262.43866 167.64615,269.26366 C 164.6824,267.57116 151.6724,259.81741 149.5924,252.88741 z M 147.6274,252.26491 C 121.32115,252.85741 102.8699,273.89116 91.7899,286.54116 C 90.45865,288.05866 89.1974,289.49741 88.0449,290.75991 C 59.7174,249.61741 95.3199,203.70116 112.04865,185.77991 C 112.24365,185.57116 112.33365,185.27616 112.2949,184.98241 C 112.25615,184.68991 112.0899,184.43616 111.84865,184.29491 C 91.74115,172.56241 63.1649,175.77366 47.9199,178.73116 C 28.69365,182.46366 10.15865,189.70741 1.9774,196.50491 C 6.6774,170.48866 20.6249,144.71866 41.50615,123.67116 C 60.4299,104.59741 83.93115,90.65366 104.3699,86.37241 C 104.6899,86.30491 104.94615,86.05741 105.0399,85.72491 C 105.1349,85.39366 105.05115,85.03366 104.8224,84.78866 C 71.72615,49.32991 31.8024,41.05991 16.7699,37.94741 L 16.54365,37.89741 C 97.1374,-15.80259 207.12865,0.80491 248.49615,21.86241 C 271.74115,33.69366 298.1599,48.85991 318.10115,79.21866 C 311.7949,80.26116 307.7124,95.35241 308.4449,95.18616 C 309.02115,95.25366 314.7824,81.28116 318.9924,80.86366 C 319.0699,80.80866 319.1024,80.66366 319.1024,80.48741 C 319.34115,80.60241 319.6174,80.61491 319.86365,80.47616 C 323.7899,78.27241 327.34115,80.50991 329.63615,82.77491 C 330.9599,84.08741 332.1899,85.70366 333.29365,87.56366 C 333.3349,87.70241 333.39615,87.83741 333.49865,87.94741 C 333.51115,87.95866 333.52865,87.96366 333.5374,87.97366 C 339.14615,97.75116 341.3849,114.03866 336.4674,129.98991 C 336.21865,123.01741 335.3149,111.16616 331.0574,103.05366 C 328.1474,97.50991 325.6474,95.05616 323.19365,95.33366 C 319.33865,95.76616 317.25365,102.90366 315.04615,110.46116 L 314.7099,111.61991 C 311.31615,123.17991 296.01615,152.89366 288.7499,152.89366 C 284.0649,152.89366 278.5649,139.67491 272.7424,125.67866 C 267.8149,113.84241 261.8774,100.12241 255.6574,89.41741 C 248.69115,77.42866 233.8549,64.60491 216.1824,66.18491 C 206.1849,67.07991 195.81865,72.37366 189.73865,80.91741 C 174.8174,101.88366 178.39865,147.55366 189.13615,170.17616 C 177.77615,165.45366 167.7424,163.87866 160.6524,168.74616 C 155.7349,172.12616 151.6774,180.23116 151.96615,188.38866 C 152.44865,202.16991 165.11865,233.83866 219.87615,245.30991 C 217.4224,246.75741 215.48115,248.69241 214.42865,251.17991 C 212.6374,251.25491 210.78615,251.39241 208.8849,251.59616 C 205.90615,251.91616 199.94615,252.73616 193.2374,254.62116 C 191.6649,254.16491 179.1649,250.27116 172.35115,240.04866 C 168.08365,233.64741 160.49865,233.76741 155.25865,236.58991 C 150.2249,239.29991 146.08615,245.12366 147.6274,252.26491 z M 342.88865,40.30741 C 343.9824,42.95366 341.5649,75.93366 334.24615,85.72491 C 333.19615,84.06741 332.04865,82.60991 330.82115,81.39616 C 327.23365,77.84866 323.3274,76.82366 319.74365,78.46241 C 310.4549,64.23366 299.77865,53.29616 288.6674,44.46991 C 309.77365,36.21116 340.2474,38.57616 342.88865,40.30741 z M 297.5199,148.51866 L 302.25365,141.34991 C 303.3649,148.40116 300.2424,156.08491 298.5324,156.84616 C 297.5074,157.30241 296.4549,154.20116 297.5199,148.51866 z M 334.98615,135.50241 C 334.8074,147.11241 331.5849,158.54491 330.16865,162.38616 C 326.21865,163.07741 321.8124,164.64491 317.4249,167.07241 C 313.79615,169.07741 310.61365,171.43616 308.0324,173.91241 C 299.42615,170.94866 289.33115,170.49866 274.4824,179.13366 C 252.02865,192.19241 221.1399,185.54241 201.50865,175.87866 C 198.27615,174.28991 194.96365,172.70241 191.65615,171.25241 C 180.4474,149.74116 176.51615,101.12741 192.1949,81.48491 C 198.2649,73.87866 207.7124,69.49116 215.29365,68.69616 C 232.04865,66.94116 246.93865,80.27616 254.01365,91.15241 C 260.37865,100.93866 266.2474,114.68366 271.1424,126.44241 C 277.7274,142.26866 282.9274,154.76866 288.7499,154.76866 C 290.28365,154.76866 292.0049,153.83116 293.81615,152.24866 C 293.53115,156.06866 293.1599,167.05616 298.38365,167.05616 C 304.4974,167.05616 310.04615,146.23616 307.87365,131.81741 C 311.8874,124.13116 315.1274,116.43866 316.3774,112.18116 L 316.71615,111.01991 C 318.5674,104.68491 320.6649,97.50241 323.37615,97.19741 C 324.4949,97.07116 326.4724,98.14491 329.53115,103.97491 C 332.1174,108.89741 335.18865,122.36741 334.98615,135.50241 z M 336.30365,167.02616 C 337.15615,168.79116 334.2024,172.23866 329.7049,174.72491 C 325.2074,177.21491 320.87615,177.79741 320.0224,176.03241 C 319.1724,174.26491 322.12615,170.81741 326.62365,168.32991 C 331.11865,165.84241 335.4524,165.25866 336.30365,167.02616 z M 264.8924,237.20241 C 264.86115,237.21491 264.8299,237.22366 264.7974,237.23991 C 257.4324,240.19116 250.6399,242.14741 245.19615,243.22741 C 241.53865,242.02991 238.10365,241.59241 235.7649,241.59241 C 231.53365,241.59241 226.6999,242.28866 222.6249,243.95866 C 166.75615,232.91741 153.9999,201.27866 153.9999,187.85866 C 153.9999,178.49866 158.1599,173.07866 162.54115,170.06866 C 171.0449,164.22991 184.93865,169.78616 200.77865,177.58241 C 220.77365,187.42616 252.2974,194.16991 275.3174,180.78116 C 288.9974,172.82616 298.49365,172.88366 306.5574,175.40991 C 301.82365,180.50741 299.6924,185.91116 301.51615,189.69741 C 303.73365,194.29741 311.1424,195.16866 319.7199,192.46116 C 306.41115,215.43991 283.7899,229.61366 264.8924,237.20241 z M 271.8724,241.92491 C 266.83865,247.96491 266.10865,254.85866 266.4799,259.85991 C 264.97615,261.19741 263.1599,260.67991 262.4274,260.38241 C 261.4974,257.00241 259.95865,253.99116 257.78865,251.39491 C 255.1049,248.18616 251.74115,245.96491 248.3599,244.44991 C 253.2699,243.30241 259.01615,241.53866 265.17115,239.08366 L 271.8724,241.92491 z M 274.01615,242.22491 L 274.01865,242.21991 L 274.01865,242.21866 C 283.5699,231.99741 298.9474,239.62366 304.6899,245.77241 L 304.6924,245.77616 C 304.6949,245.77741 304.6949,245.77866 304.6949,245.77866 C 308.1549,249.49491 311.29615,257.90616 310.56865,265.56616 C 310.08615,270.62491 308.0299,274.50491 304.4774,277.12241 C 300.6174,276.78241 296.53615,275.85616 292.8024,274.65616 C 293.32115,274.11116 293.7874,273.61741 294.1849,273.18991 C 297.3174,269.83366 298.42365,265.29241 297.2174,260.73241 C 295.9649,255.99116 292.4999,252.25116 288.39365,251.20366 C 284.41615,250.18866 280.36115,251.80866 276.96615,255.76366 C 273.90115,259.33741 271.29365,262.28741 269.03365,264.74491 C 268.7549,263.72866 268.41365,262.20991 268.2224,260.36116 C 268.2349,260.23866 268.2249,260.11866 268.19115,259.99991 C 267.75865,255.13491 268.4499,248.18866 274.01615,242.22491 z M 320.38865,266.72116 C 320.38865,270.29491 319.25115,272.99366 317.0149,274.73741 C 314.6124,276.60866 311.0724,277.31866 307.1074,277.26866 C 310.06115,274.40616 311.85865,270.48616 312.3099,265.75741 C 312.9174,259.35866 310.98115,252.45491 308.3249,247.80866 C 312.85365,250.65491 320.38865,256.86616 320.38865,266.72116 z M 321.6624,262.26991 C 322.97865,262.73491 325.15615,263.83241 327.56865,266.41616 C 329.4074,268.38616 331.4474,274.14241 329.98865,280.23866 C 329.3974,282.69366 328.1199,285.60991 325.4474,288.20116 L 325.4424,288.20616 C 323.39115,290.18991 320.5199,291.98741 316.50115,293.23491 C 300.9349,298.07866 282.97115,290.99366 278.07615,288.82866 C 283.2199,284.37866 288.0449,279.59241 291.3724,276.14866 C 293.9699,277.02366 299.11365,278.54491 304.4999,279.00991 C 304.55365,279.02491 304.6099,279.02241 304.66615,279.02616 C 309.54865,279.42741 314.5924,278.94241 318.0449,276.25491 C 320.7599,274.13741 322.13615,270.92866 322.13615,266.72116 C 322.13615,265.14741 321.96365,263.66741 321.6624,262.26991 z M 334.0774,299.70491 C 338.2299,302.93241 340.50115,304.89991 338.8749,307.85116 C 337.57115,310.21241 333.9674,315.78366 328.6474,316.50616 C 326.8774,316.74616 325.07115,316.42366 323.2449,315.54741 C 323.2299,315.53991 323.21615,315.53491 323.20615,315.52991 C 321.3749,314.64366 319.52365,313.20616 317.66615,311.21366 C 315.5199,308.91366 312.13865,302.21491 311.3449,300.61241 C 311.81365,299.14366 312.25365,297.63616 312.65865,296.09116 C 314.11115,295.82241 315.5599,295.48366 316.9899,295.03616 C 320.7224,293.87741 323.5474,292.26616 325.68115,290.45116 C 327.4274,294.51116 330.9349,297.26366 334.0774,299.70491 z M 306.8874,311.77491 C 308.2249,309.01616 309.45615,306.09116 310.5474,302.98116 C 311.92365,305.66116 314.53615,310.50991 316.42865,312.53866 C 318.0499,314.27491 319.67615,315.61741 321.30365,316.58991 C 317.1249,319.64866 311.1499,316.14741 306.8874,311.77491 z M 305.49865,318.48366 C 304.66365,318.48366 303.9774,318.29116 303.48115,318.04241 C 304.3649,316.58241 305.2149,315.06366 306.02865,313.48866 C 307.22865,314.67991 308.5474,315.79116 309.9274,316.73866 C 308.1474,318.23241 306.43365,318.48366 305.49865,318.48366 z M 261.5549,272.19366 C 256.31115,276.70366 253.8624,276.61241 249.94365,276.45491 C 249.3999,276.43366 248.82865,276.41491 248.2349,276.40116 C 248.32115,275.47491 248.38115,274.51741 248.38115,273.49366 C 248.38115,267.45991 246.43865,262.51616 242.6024,258.79866 C 237.23365,253.59366 228.07865,250.95491 216.41365,251.13241 C 217.69365,248.83991 220.04865,247.09741 222.9449,245.85616 C 222.9524,245.85366 222.9574,245.84866 222.96365,245.84616 C 226.72865,244.23616 231.3849,243.46741 235.7649,243.46741 C 240.61115,243.46741 250.4249,245.40116 256.4849,252.64616 C 258.5624,255.13116 260.0224,258.03116 260.8699,261.31866 C 260.87615,261.34241 260.88365,261.36616 260.89365,261.38866 C 261.71365,264.61991 261.92865,268.23241 261.5549,272.19366 z M 263.0224,273.28491 C 264.77615,271.74491 266.8049,269.74866 269.23365,267.16741 C 269.25615,267.14491 269.2774,267.12241 269.2999,267.09866 C 271.81365,264.41741 274.75615,261.11241 278.2549,257.03366 C 282.02865,252.63366 285.6324,252.42616 287.98865,253.02741 C 291.43615,253.90616 294.46865,257.20866 295.5324,261.24366 C 296.5599,265.13241 295.6174,269.00241 292.9474,271.86366 C 280.70115,284.98491 264.94115,299.00616 257.43865,299.00616 C 250.6499,299.00616 241.51865,295.58366 238.1274,294.20866 C 238.1599,294.17741 238.18865,294.14991 238.2224,294.12116 C 242.06115,290.64741 246.6799,286.43991 248.00115,278.27241 C 248.6549,278.28491 249.2824,278.30491 249.87865,278.32866 C 254.1824,278.50241 256.91615,278.60991 262.85865,273.42741 C 262.9199,273.38741 262.97115,273.34116 263.0224,273.28491 z M 262.90115,262.47116 C 264.02365,262.70366 265.4149,262.67741 266.7074,261.94491 C 266.9949,263.93866 267.4049,265.45366 267.64615,266.23366 C 266.0649,267.91366 264.66865,269.32616 263.41865,270.50616 C 263.5599,267.64366 263.38365,264.96491 262.90115,262.47116 z M 219.0874,275.65491 C 218.8699,275.19116 218.3449,275.00366 217.9124,275.23616 C 217.78115,275.30616 204.7849,282.45241 204.7849,298.32991 C 204.7849,306.45991 206.6574,313.51866 209.9949,318.28616 C 206.21115,319.19241 200.92365,317.90741 196.54115,314.76866 C 196.51115,314.66116 196.4649,314.55866 196.3949,314.46491 C 196.22115,314.23616 195.9674,314.13366 195.71115,314.13366 C 193.92615,312.71741 192.3249,310.98366 191.09615,308.94741 C 188.07865,303.93741 185.17615,293.21491 199.65615,277.70491 C 199.9974,277.33866 199.9974,276.74616 199.65615,276.37991 C 199.31365,276.01366 198.7599,276.01366 198.41865,276.37991 C 183.07115,292.81991 186.32365,304.47741 189.6249,309.96366 C 190.8349,311.96991 192.3849,313.70366 194.11865,315.15616 C 191.2774,317.21741 188.4424,317.56116 185.67115,316.15491 C 180.2099,313.37616 176.12615,304.11366 176.12615,297.68366 C 176.12615,288.27366 176.93115,282.02366 188.0599,274.61366 C 188.4699,274.33991 188.59365,273.76241 188.3374,273.32241 C 188.08365,272.88241 187.54365,272.74741 187.13365,273.02116 C 175.26615,280.92491 174.3774,287.91741 174.3774,297.68366 C 174.3774,301.01616 175.36615,305.02241 177.06365,308.64991 C 173.59115,307.92741 165.38115,304.40616 163.7799,287.26991 C 163.2274,281.33741 164.75865,275.95616 168.3349,271.27241 C 178.71615,257.68241 202.12865,254.20366 209.0574,253.46241 C 223.82615,251.87991 235.3224,254.26866 241.43115,260.18866 C 244.88115,263.53491 246.63115,268.01116 246.63115,273.49366 C 246.63115,284.05741 241.34365,288.84241 237.0924,292.68741 C 236.6599,293.07866 236.2424,293.46241 235.8399,293.83991 L 235.8349,293.84491 C 235.8299,293.84991 235.8224,293.85491 235.81865,293.85991 C 235.3524,294.29991 234.9024,294.73366 234.4824,295.16866 L 229.3024,295.71491 C 229.1749,292.12116 230.60865,291.08616 230.1149,290.67616 C 229.6099,289.93866 227.35615,293.16616 227.75115,296.39366 C 227.6999,296.52616 227.66865,296.67241 227.68365,296.82616 C 227.7024,297.02366 227.78865,297.18741 227.89865,297.32616 C 228.42115,300.45116 230.4549,303.32241 230.7424,303.11241 C 231.2549,302.86366 230.2274,301.14491 229.53615,297.57366 L 234.2799,297.07241 C 235.16615,299.68241 238.17365,309.76866 234.36115,316.49866 C 232.25115,320.21741 228.3349,322.36616 222.7249,322.87866 C 219.12115,323.20616 215.9424,322.04366 213.28115,319.42616 C 208.9949,315.20491 206.53615,307.51741 206.53615,298.32991 C 206.53615,283.63241 218.5749,276.97741 218.69365,276.91241 C 219.12615,276.68116 219.3024,276.11866 219.0874,275.65491 z M 301.6599,317.61491 C 301.65365,317.62491 301.64365,317.62491 301.63615,317.63491 C 301.54615,317.72991 301.4824,317.84241 301.44115,317.96116 C 299.8899,320.43741 298.2474,322.74866 296.52615,324.89991 C 296.50365,324.91491 296.4799,324.91991 296.4624,324.93866 C 280.9699,339.04991 249.0699,347.89366 225.77115,324.29491 C 230.4449,323.30366 233.84115,321.02741 235.8574,317.46866 C 240.16865,309.85616 236.83365,299.01616 235.89115,296.32616 C 236.12865,296.08366 236.3649,295.84241 236.62115,295.59866 C 239.0549,296.63366 249.53865,300.88116 257.43865,300.88116 C 262.3049,300.88116 269.5874,295.97366 276.51365,290.15866 C 279.46615,291.56241 295.1099,298.50366 310.7524,296.39366 C 310.37865,297.76116 309.98365,299.10116 309.55865,300.40491 L 309.55865,300.40741 C 308.2649,304.39241 306.74615,308.08366 305.04865,311.50116 C 305.0249,311.54991 304.9949,311.59366 304.97865,311.64491 C 303.93865,313.73741 302.8274,315.72491 301.6599,317.61491 z M 275.4499,397.13116 C 275.4499,397.13616 275.4474,397.14116 275.4474,397.14616 C 275.4499,397.15866 275.4549,397.16741 275.4574,397.17991 C 275.9324,399.62366 276.4874,402.05866 277.1249,404.45991 C 275.6499,404.69491 273.9899,404.91991 272.1024,405.12491 C 265.49865,405.85241 260.4574,405.81991 256.75865,405.43741 C 257.2199,403.34491 257.5249,401.05491 257.69115,398.55491 C 257.7124,398.46866 257.7099,398.37616 257.7074,398.28616 C 258.3749,387.63616 256.62615,373.18116 254.20865,353.58366 C 259.85115,352.08491 266.72865,349.68991 273.82615,345.88616 C 273.2499,351.20366 271.8124,367.76116 273.7724,385.85741 C 273.7724,385.88616 273.7624,385.90866 273.7649,385.93491 C 273.7674,385.96741 273.7849,385.99366 273.7899,386.02241 C 274.1924,389.69241 274.73115,393.41991 275.4499,397.13116 z M 231.7049,401.37741 C 230.28865,401.00116 228.80365,400.63241 227.25865,400.27616 C 228.2349,395.76116 229.33615,390.85991 231.73115,380.24116 C 235.7424,362.43366 238.1174,356.12366 240.81615,356.12366 C 240.9774,356.12366 245.70865,355.83241 252.7299,354.10866 C 254.3774,367.47366 255.70865,378.41991 256.1699,387.33866 C 237.78865,392.43616 232.89115,399.06991 231.7049,401.37741 z M 308.71365,397.47866 C 310.6524,401.88741 309.22115,406.98991 304.6899,411.84866 L 303.89865,412.69241 L 303.93365,412.71241 C 300.70865,415.18741 294.8874,425.21991 296.6949,425.73491 C 295.99115,425.27366 303.21615,415.95491 305.28115,413.62116 C 309.24615,416.34991 311.4574,420.06866 311.4874,424.15491 C 311.53615,430.06616 307.14365,436.30116 299.12115,441.71116 C 285.1399,451.14491 265.4224,449.89991 257.99865,449.42866 C 257.3849,449.38991 256.8799,449.35741 256.4524,449.33866 C 256.3824,446.04241 255.90615,442.17491 254.9949,437.61991 C 260.47115,433.10491 263.08615,427.23366 261.9899,421.80866 C 260.78615,415.85741 254.67615,407.80991 233.2474,401.77241 C 234.5849,399.58741 239.55115,393.79616 256.02115,389.16491 C 256.1349,392.19491 256.1374,394.97991 256.00365,397.53366 C 251.5574,398.44991 246.6849,400.11991 247.06115,403.00491 C 247.3299,405.04116 250.4149,406.45991 255.3249,407.12866 C 255.36365,407.14616 255.39615,407.17741 255.4399,407.18991 C 255.57615,407.23116 255.71115,407.22366 255.8399,407.19741 C 260.18865,407.72741 265.8649,407.69741 272.28115,406.98991 C 282.9299,405.81741 288.8699,403.90616 289.9349,401.30616 C 290.25365,400.51991 290.15115,399.68491 289.64115,398.95241 C 288.06365,396.70116 282.5199,395.43741 277.02365,396.00366 C 276.44365,392.89741 275.97865,389.78491 275.6249,386.70616 C 294.43615,385.00741 305.79365,390.83741 308.71365,397.47866 z M 372.9099,472.85866 C 361.95865,462.64366 339.3924,444.06741 310.5199,433.47366 C 312.47615,430.42741 313.49865,427.30491 313.4749,424.22616 C 313.4349,419.64116 311.09115,415.49991 306.8874,412.44116 C 311.3949,407.21866 312.69365,401.68741 310.5299,396.76991 C 306.65615,387.95116 293.0099,383.35241 275.6574,384.92866 C 273.6524,365.49366 275.56865,347.99616 275.9399,344.93616 C 285.4524,339.52366 295.18865,331.51866 302.7374,319.70491 C 303.5474,320.17366 304.5924,320.44741 305.7299,320.44741 C 307.87365,320.44741 309.98865,319.51616 311.7599,317.82991 C 315.7249,320.07366 319.98365,320.67866 323.29365,317.57116 C 325.2374,318.40616 327.17615,318.71616 329.1024,318.45491 C 335.18865,317.62991 339.1824,311.49116 340.61365,308.89366 C 343.1324,304.32866 339.34615,301.38866 335.3399,298.27616 C 332.23365,295.86616 328.7599,293.13741 327.3024,289.23366 C 329.96865,286.46991 331.29115,283.39991 331.91615,280.79241 C 333.41115,274.55116 331.62865,267.95116 329.04115,265.17866 C 325.6324,261.52616 322.5999,260.52616 321.33365,260.25491 C 317.96865,250.03116 307.5099,245.05741 306.02615,244.39741 C 299.85115,237.91491 283.79865,230.13616 273.4374,240.56116 L 267.8199,238.17866 C 287.0749,230.05991 309.5799,215.28241 322.4924,191.64866 C 324.3649,190.91991 326.2724,190.04616 328.17615,188.99116 C 339.87115,182.52366 346.9899,172.39491 344.0849,166.36741 C 342.46115,162.99991 338.0549,161.62866 332.44365,162.19491 C 335.3299,154.09741 336.6874,145.32491 336.83365,135.04366 C 343.7424,117.45116 341.64365,98.65741 335.4524,87.46116 C 343.3224,77.74866 346.82365,41.67741 344.3924,39.07616 C 342.06865,36.58491 309.32365,34.05741 287.2074,43.23491 C 274.67115,33.54991 261.64615,26.44741 249.4824,20.25616 C 230.49365,10.59116 192.2999,0.58616 149.77615,0.02491 C 113.61865,-0.45134 60.70115,5.68866 13.9499,37.65866 C 13.6499,37.86366 13.49365,38.24741 13.5624,38.62366 C 13.62865,38.99866 13.89865,39.29491 14.25115,39.36741 L 16.6724,39.87491 C 31.3849,42.92241 70.17115,50.97616 102.6599,84.99991 C 82.2924,89.71866 59.2049,103.58116 40.5424,122.39241 C 18.6774,144.43116 4.2824,171.60991 0.0124,198.91991 C -0.05135,199.32116 0.1349,199.72116 0.47365,199.90866 C 0.81115,200.09491 1.22365,200.02616 1.4924,199.73741 C 12.88865,187.52741 75.4549,166.31491 110.2024,185.44866 C 92.7174,204.45616 57.69115,250.99991 87.48615,292.85866 C 87.6374,293.07366 87.86865,293.20616 88.1224,293.22491 C 88.3749,293.24241 88.62115,293.14241 88.79865,292.95116 C 90.15115,291.50366 91.6799,289.75866 93.29865,287.91241 C 104.25865,275.39991 122.55365,254.53616 148.39365,254.21366 C 150.26865,259.14116 156.44365,264.11116 161.31865,267.42741 C 142.24615,281.20616 136.91615,307.56116 134.5774,326.35491 C 132.34115,344.31866 135.1349,345.79866 136.0474,346.28116 C 136.84865,346.70616 138.17865,346.80866 139.97865,344.87991 C 151.61365,332.41491 172.4149,321.54116 190.68615,326.99741 C 191.0824,327.42866 191.5924,328.00491 192.2274,328.72366 C 193.8574,330.56616 196.1674,333.17616 198.8899,335.97366 C 197.3149,339.75866 187.64865,361.33241 169.46615,368.49866 L 165.89115,369.90491 L 169.6799,370.30991 C 186.7049,372.13366 207.7249,350.57366 211.29865,346.75991 C 212.24615,347.40991 213.20365,348.01741 214.1574,348.56241 C 215.4549,350.24866 213.9724,367.51741 211.3799,376.18866 C 210.2049,380.12991 208.3424,389.47491 206.72615,398.12741 C 185.78865,398.27116 174.7824,402.97366 171.1549,413.34241 C 168.0399,422.24866 171.42115,429.51616 172.77115,431.89241 C 164.04865,437.97366 158.69365,447.11241 159.6999,454.38991 C 160.06115,456.99991 161.3474,460.18741 164.9074,462.81241 C 160.71865,471.60366 157.0149,482.14116 154.15615,493.26866 C 154.15365,493.27116 154.15365,493.27366 154.15115,493.27366 C 154.02365,493.45991 153.9824,493.67866 153.9974,493.89366 C 151.74865,502.75866 150.04115,511.96991 149.0624,520.94491 C 149.02365,521.07366 149.00865,521.20366 149.02115,521.33491 C 147.35865,536.89241 147.88115,551.70116 151.5799,562.64866 C 154.2799,570.64741 158.4624,575.94491 164.01365,578.39116 C 168.1224,580.20241 183.2349,574.99741 200.48615,563.42991 C 211.44365,556.07866 225.7299,544.48741 239.32365,527.56616 C 239.36115,527.53116 239.3874,527.48741 239.41615,527.44866 C 244.8174,520.71741 250.1074,513.17116 255.0324,504.67491 C 257.1949,505.43241 264.6999,507.89116 277.15615,510.31991 C 277.1774,510.32741 277.2049,510.32991 277.2274,510.33491 C 284.41865,511.73616 293.2474,513.12241 303.6524,514.16491 C 319.11615,515.71241 396.33615,522.71741 398.2299,508.52491 C 399.0699,502.21491 388.6599,487.54866 372.9099,472.85866 L 372.9099,472.85866 z"
     style="fill:#000000" />
</svg>
