<?xml version="1.0" encoding="utf-8"?>
<!-- Generator: Adobe Illustrator 15.0.0, SVG Export Plug-In . SVG Version: 6.00 Build 0)  -->
<!DOCTYPE svg PUBLIC "-//W3C//DTD SVG 1.1//EN" "http://www.w3.org/Graphics/SVG/1.1/DTD/svg11.dtd">
<svg version="1.1" id="ƒŒƒCƒ_x201E__x7C__1" xmlns="http://www.w3.org/2000/svg" xmlns:xlink="http://www.w3.org/1999/xlink"
	 x="0px" y="0px" width="189.942px" height="214.431px" viewBox="0 0 189.942 214.431" enable-background="new 0 0 189.942 214.431"
	 xml:space="preserve">
<g>
	<path d="M43.713,68.653c-1.31-4.109-2.219-6.178-6.185-10.842c-1.168-1.374-2.439-2.864-3.861-3.962
		c-1.948-1.506-4.958-2.996-7.819-3.428c-5.359-0.81-5.433,5.178-2.571,7.391c1.131,0.874,3.333,1.992,4.609,2.688
		c3.572,1.941,6.651,3.782,6.209,9.416c-1.044-1.285-2.376-3.27-3.856-4.07c-0.452-0.245-0.967-0.09-1.5-0.322
		c-0.586-0.257-1.185-1.339-1.607-1.821c-1.603-1.828-3.698-3.387-6.212-4.284c-2.179-0.78-4.328-1.838-6.748-2.143
		c-1.576-0.201-3.394,0.127-4.284,0.964c-0.709,0.659-1.565,1.888-1.38,3.65s2.596,3.894,6.397,4.543
		c2.792,0.477,5.969,1.967,6.397,2.596c0.385,0.566,1.589,2.801,1.867,3.457c0.432,1.024-0.081,0.797-0.75,0.536
		c-2.096-0.82-4.271-2.048-7.284-1.821c-1.212,0.09-2.758,0.221-3.749,0.643c-2.099,0.884-7.7,5.16-6.958,8.59
		c0.454,2.101,3.197,2.643,4.821,2.04c2.005-0.75,3.219-2.117,5.351-2.596c1.476-0.334,2.306-0.268,3.642,0.107
		c-2.721,0.709-4.937,2.072-5.998,4.392c-1.349,2.936-0.683,7.193,1.071,9.104c1.667,1.817,4.746,0.907,5.998-0.75
		c0.796-1.061,0.666-3.063,0.321-4.392c0.833-0.094,1.523,0,2.25,0.214c0.351,3.157,1.938,4.954,4.177,6.212
		c-0.803,3.066,0.854,5.202,2.785,6.427c0.332,0.211,1.175,0.228,1.393,0.536c0.368,0.525,0.204,1.306,0.536,1.821
		c0.92,1.429,3.957,2.574,6.534,2.25c0.68-0.087,1.707-0.633,2.463-0.536c0.944,0.117,2.019,1.235,2.785,1.607
		c3.197,1.543,6.895-0.733,9.211-1.821c-1.279,7.612,2.474,14.065,6.748,17.245c0.559,0.415,3.24,1.566,3.428,2.035
		c0.257,0.656,2.537,15.583,2.935,19.151c-2.695,1.048-4.868,1.969-6.49,3.523c-2.225,2.132-2.841,4.402-2.229,6.674
		c0.308,1.148,0.596,1.586,1.178,2.356c-1.111,2.356,0.525,4.425,2.25,5.249c-3.605,0.144-13.437,3.429-21.875,8.529
		c-12.302,7.435-13.127,12.813-13.258,13.965c-0.599,5.175,3.769,5.453,7.177,6.641c2.956,1.028,10.068,2.759,25.737,2.202
		c16.26-0.577,20.873-2.735,23.179-3.337c1.955,3.213,10.917,9.51,12.517,10.508c6.597,4.107,13.923,8.03,22.757,9.908
		c3.956,0.84,11.733,2.825,18.958,0.643c3.053-0.922,6.46-4.412,5.677-8.569c-0.231-1.208-1.22-2.452-1.393-3.535
		c-0.569-3.577-3.165-9.326-9.318-17.138c-1.649-2.094-2.853-3.126-4.417-5.292c15.7,3.585,27.616-2.956,29.422-3.956
		c8.469-4.692,13.682-17.414,14.733-20.53c1.767-5.258,2.361-9.74,3.687-15.32c0.592-2.5,1.739-5.899,2.349-8.406
		c0.545-2.256,3.615-8.076,5.211-9.372c-2.414,1.118-4.319,1.941-6.324,3.438c-0.894,0.663-1.777,1.915-2.566,2.667
		c-0.261-3.291-0.074-7.029,0.75-10.068c2.028-7.511,7.116-16.833,14.353-18.959c0-0.017-0.007-0.321,0-0.321
		c-1.299-0.482-2.373-1.379-3.642-1.714c-9.61-2.541-19.471,0.522-25.921,5.034c-1.018,0.71-1.928,1.617-3,2.356
		c1.928-5.78-0.9-11.501-2.463-16.281c-0.767-2.333-1.225-4.92-1.5-7.605c-0.813-7.899,6.73-14.803,12.863-16.055
		c-1.945-0.589-5.314-1.1-7.912-0.865c-7.213,0.643-12.417,3.744-16.565,7.541c-3.59,3.286-6.695,8.027-8.416,11.95
		c0.422-5.366,2.36-9.476,4.177-13.389c-0.241,0.104-0.248-0.057-0.536,0.214c-3.354,3.12-7.652,9.682-9.318,14.576
		c-3.956,11.621-2.858,18.178-3.833,18.914c-0.88,0.659-3.404,1.352-4.522,1.857c-2.323,1.041-3.813,3.217-6.105,4.177
		c-2.029-6.152-5.332-5.848-9.961-2.57c-0.472-1.158-2.75-4.728-4.011-7.296c-1.788-3.642-4.002-8.854-4.002-8.854l-0.263-1.901
		c0,0-0.031-0.865-1.421-1.792c-0.648-0.432-0.742-0.494-1.656-0.722c1.356-0.418,2.42-1.015,4.499-0.857
		c5.496,0.408,7.594,1.235,10.871,3.775c1.523,1.182,3.988,3.634,5.116,5.214c0.054-0.492,0.721-1.9,0.352-5.553
		c-0.278-2.752-1.431-4.004-2.669-5.758c0.864,0.033,2.601,0.452,6.251,2.031c3.431,1.483,5.733,3.581,6.965,4.039
		c-0.084-1.024-0.214-2.212-0.429-3.32c-0.857-4.358-3.719-8.231-6.641-10.604c3.983-0.592,9.786-1.711,12.619-2.354
		c-3.091-3.863-8.004-6.827-13.005-7.383c2.838-1.784,6.161-5.05,11.459-5.752c1.481-0.196-9.375-4.55-17.126-3.091
		c1.206-3.337,2.456-8.248,3.575-10.151c2.473-4.203,3.616-6.675,7.045-17.183c3.023-9.262,3.802-20.698,1.741-21.856
		c-2.822-1.587-14.293,1.545-22.695,6.868c-1.833,1.161-13.875,9.108-14.648,8.971c-2.989-0.532-7.493,0.086-10.311-0.125
		c-1.577-0.121-3.669,0.385-4.927,0c-1.131-0.349-3.861-3.933-8.682-7.085c-5.233-3.422-11.008-5.071-11.008-5.071
		s-3.448-3.032-8.145-4.021c-4.056-0.854-18.094,0.334-20.927,1.622c3.348,0.902,7.387,1.27,10.202,1.702
		c0.77,0.117,1.861,0.428,2.678,0.535c-0.087,0.067-0.261,0.325-0.321,0.429c-0.054,0.083-0.288,0.244-0.321,0.321
		c-0.134,0.281,0,0.75,0,0.75c0,2.179,0.159,3.225,0.902,4.654c-2.378,0.395-5.316,2.843-8.53,5.316
		c-4.585,3.527-9.162,10.573-9.162,10.573s14.958-8.406,20.003-8.225c0.405,0.864,0.78,1.932,1.178,2.785
		c0.221,0.475,0.401,0.934,0.643,1.393c-1.677,0.697-2.375,1.536-3.775,3.306c-2.565,3.243-7.293,11.002-8.9,16.071
		c-0.294,0.928,10.384-7.912,16.441-11.621c1.112,1.113,3.774,4.169,4.116,5.257c0.211,0.683-0.511,1.336,0.694,5.602
		c0.815,2.883,2.453,6.254,4.661,12.509c0.792,2.244,0.581,4.223,0.581,4.223s-6.482-2.147-9.449,0.079l6.505,6.821L43.713,68.653z
		 M50.023,74.963c-1.49,2.443-2.31,4.909-1.674,7.34c0.837,0.041,4.201-1.881,5.022-2.189c1.373-0.515,0.644,2.061,0.901,3.219
		c0.257,1.159,4.668-3.461,5.851-2.813c0,1.707,0,3.431,0,5.141c0.201-0.1,0.07,0.409,0,0.429c-0.499,0.134-1.925-0.429-2.571-0.429
		c-0.904-0.007-2.188,0.046-2.965,0.15c4.746,3.354,3.139,6.535-0.784,9.062c-1.831,1.175-3.528,2.992-6.641,2.57
		c0.935-1.526,0.234-3.136-0.107-4.284c-0.077-0.254-0.607-0.606-0.536-0.857c0.743-2.597,0.537-4.57-1.853-5.193
		c2.39-5.164,0.172-13.746,0.165-13.74L50.023,74.963z M77.903,140.824c-1.463-0.305-3.103,0.021-4.392,0.214
		c-0.221-1.191-0.593-2.932-0.857-4.284c-0.77-3.893-0.894-7.592-1.178-11.568c0.887,0.097,1.195,0.241,1.5,0.857
		c0.964,1.958,1.115,4.632,1.821,6.748c1.014,3.04,3.086,5.583,4.392,8.355C78.707,141.019,78.312,140.908,77.903,140.824z
		 M93.648,129.685c-2.584-1.088-5.459-4.877-6.943-7.102c-0.651-0.977,1.776-3.285,2.133-5.377
		c1.391-8.159-2.875-12.331-2.837-16.139c-0.061-1.349,0.209-2.752,1.22-4.479c1.229,2.705,2.648,5.522,4.07,8.248
		c0.536,1.027,3.197,4.579,3.32,5.462c0.084,0.626-0.83,1.376-1.071,1.821c-1.171,2.149-2.075,5.898-0.857,8.569
		c0.141,0.311,0.408,0.79,0.643,1.071c1.225,1.477,3.12,2.313,5.784,2.356c0.652,0.01,1.315-0.241,1.821,0.107
		c0.643,0.438,1.018,1.131,2.035,1.285c0.706,0.104,1.5-0.238,1.928,0c0.12,0.067,1.958,2.407,2.356,2.785
		C104.681,130.08,97.679,131.378,93.648,129.685z"/>
	<path fill="#BFBFBF" d="M80.474,184.74c-0.39,5.654,13.895,14.587,15.424,15.531c6.691,4.121,14.268,7.104,23.312,8.851
		c4.844,0.934,10.686,1.686,15.355-0.282c3.237-1.366,4.967-2.772,4.285-7.391c-0.586,1.075-1.452,8.581-17.878,5.541
		c-10.289-1.904-15.298-4.172-23.364-8.53C89.492,194.077,82.8,187.816,80.474,184.74z"/>
	<path fill="#BFBFBF" d="M25.419,184.419c0.268,1.413,0.77,2.741,2.035,3.428c0.72,0.388,9.146,4.309,26.392,3.753
		c17.266-0.557,24.041-2.997,26.093-3.539l0.107-0.428c-0.047-0.117-0.141-0.254-0.214-0.428c-0.816-1.908,0.05-1.717-1.928-1.071
		c-1.173,0.38-13.663,3.018-25.727,3.149c-11.381,0.124-22.352-2.226-24.08-2.935C27.096,185.936,26.229,185.055,25.419,184.419z"/>
	<path fill="#FFFFFF" d="M114.11,170.09c-3.464,0.15-6.529,1.464-8.715,2.967c-10.477,7.201-11.522,21.562-11.211,21.859
		c1.148,1.101,7.588,4.244,8.998,4.82c6.289,2.558,12.706,4.733,20.244,5.999c2.243,0.375,5.118,1.058,7.712,0.535
		c17.178-3.464-2.348-24.609-6.086-28.114c-1.148-1.074-7.044-7.089-8.48-7.769C115.938,170.086,114.856,170.056,114.11,170.09z"/>
	<path fill="#FFFFFF" d="M53.589,163.96c-0.592,0.067-1.907,0.406-2.432,0.566c-2.708,0.813-8.272,3.69-10.662,4.821
		c-3.655,1.724-15.913,9.123-14.112,13.893c1.951,5.178,28.297,5.67,38.131,3.963c0.292-1.53,0.07-4.167-0.285-6.082
		C63.406,176.711,58.182,163.418,53.589,163.96z"/>
	<path fill="#DA2032" d="M106.395,162.782c-0.375,1.115-1.168,1.834-1.928,2.571c-1.128,1.088-2.346,2.32-3.856,2.999
		c-5.51,2.467-12.832,2.757-17.566-1.071c-1.165,3.822-1.714,7.558-1.714,12.425c0,1.188-0.11,2.494,0.214,3.428
		c1.205,3.501,8.027,8.572,11.14,10.604c0.13-3.224,0.979-5.957,1.863-8.35c2.838-7.708,10.208-16.794,20.738-15.964
		c-1.888-1.496-3.568-3.273-5.57-4.713C108.678,163.964,107.576,163.365,106.395,162.782z"/>
	<path fill="#DA2032" d="M60.23,162.461c-1.697,0.101-3.265,0.661-4.809,1.046c5.517,2.142,9.236,12.582,10.106,19.47
		c0.188,1.49-0.076,4.217,0.165,4.227c2.002,0.057,12.623-1.938,13.389-2.678c0.077-0.081,0.053-0.332,0.107-0.429
		c1.064-2.052,0.248-6.001,0.536-8.783c0.321-3.156,1.366-5.945,1.821-8.998c-1.001-0.522-1.821-1.061-1.928-2.463
		c-3.417,1.995-10.139,1.68-14.246,0.536C63.587,163.891,62.168,162.344,60.23,162.461z"/>
	<path fill="#404040" d="M104.574,161.497c-2.898,2.755-8.914,6.831-18.208,5.891c3.782,3.414,12.354,1.311,16.388-1.821
		C103.891,164.684,105.243,163.228,104.574,161.497z"/>
	<path fill="#404040" d="M76.468,161.189c-2.353,0.174-4.309,0.539-6.812,0.736c0.027-0.006-0.566,0.094-0.643,0.107
		c-2.521,0.328-4.278-0.034-6.427,0.214c1.068,0.432,2.31,1.111,3.427,1.393c2.865,0.716,11.298,1.34,12.339-0.688
		C79.455,160.798,78.379,161.045,76.468,161.189z"/>
	<path fill="#FFFFFF" d="M96.495,143.573c-1.429,0.007-4.56,0.248-4.08,1.483c0.433,1.112,4.366-1.123,5.285,1.205
		c0.927,2.349-3.214,4.883-6.428,5.934c-4.847,1.584-10.569,2.163-11.064-0.062c-0.573-2.578,2.72-2.534,2.164-4.265
		c-0.557-1.73-6.676,2.102-4.682,7.737c1.041,2.94,5.331,4.293,6.752,4.1c4.08-0.556,3.964,1.39-1.112,1.113
		c-0.935-0.051-1.726-0.29-2.596-0.742c-1.33,0.942-0.942,2.856-0.259,4.313c1.748,3.726,12.349,2.144,15.372,1.25
		c3.361-0.997,13.675-6.153,10.014-10.909c-0.593-0.77-1.298-1.217-2.226-1.669c-0.392-0.191-1.182-0.126-1.63-0.347
		c-0.81,1.65-4.025,4.21-4.582,3.19c-0.306-0.562,2.225-1.113,4.358-4.543c1.193-1.919,0.78-5.147-0.927-6.397
		C99.912,144.274,98.101,143.563,96.495,143.573z"/>
	<path fill="#FFFFFF" d="M75.263,141.502c-0.345,0.034-1.858-0.025-1.73,0.865c0.247,1.731,3.957-0.162,4.636,1.36
		c0.86,1.929-2.42,3.326-3.692,3.952c-1.935,0.947-10.832,3.779-12.96,2.356c-0.121-0.084-0.509-0.412-0.536-0.536
		c-0.224-0.981,0.809-1.917,1.365-2.188c2.305-0.828,3.637-1.594,2.411-2.411c-1.226-0.817-5.768,1.682-7.201,4.419
		c-1.289,2.45-0.529,6.096,1.926,6.606c3.026,0.628,5.472,0.031,4.325,1.689c-0.218,0.315-4.304,0.42-5.825-0.833
		c-1.864,5.644,11.113,4.591,14.872,3.941c2.212-0.385,3.801-0.927,5.996-1.731c-1.298-0.865-1.848-2.627-2.102-3.894
		c-0.68-3.399,0.167-7.636,5.007-8.9C80.826,142.059,79.607,141.054,75.263,141.502z"/>
	<path fill="#FAA61A" d="M108.001,128.935c-0.375,0.107-0.998,0.947-1.393,1.178c-1.289,0.743-2.761,1.118-4.605,1.285
		c-1.362,0.121-3.234,0.154-4.713,0.321c0.084,0.037,0.542,0.231,0.643,0.321c0.01,0.007,0.107,0.536,0.107,0.536
		c1.56,0.502,3.016,1.349,4.606,1.821c5.583,1.647,13.446,2.042,19.494,0.536c-0.244-1.563-1.808-1.988-2.999-2.57
		c-1.346-0.66-3.47-0.661-5.124-1.028C109.845,130.408,108.634,128.748,108.001,128.935z"/>
	<path fill="#FAA61A" d="M73.94,125.293c0.753,3.02,1.309,6.025,2.464,8.569c0.556,1.225,1.125,2.463,1.821,3.642
		c0.676,1.148,1.56,2.376,2.356,3.428c-1.496-5.081-3.85-9.851-4.947-15.16C75.118,125.611,74.63,125.367,73.94,125.293z"/>
	<path fill="#FAA61A" d="M63.122,124.543c1.047,4.208,1.777,8.944,2.356,13.496c0.462,3.662,1.007,7.29,1.285,10.818
		c2.653-0.067,4.543-0.865,6.427-1.928c-0.154-3.752-1.3-7.38-1.822-11.052c-0.221-1.543-0.957-7.592-1.606-8.55
		C68.478,125.437,65.676,125.179,63.122,124.543z"/>
	<path fill="#404040" d="M113.893,116.831c-0.382,0.315-1.021,2.357-1.393,2.893c-1.523,2.182-3.889,3.859-6.105,5.355
		c4.686,0.693,6.052-2.474,7.069-5.784C113.521,119.101,113.893,116.828,113.893,116.831z"/>
	<path fill="#FAA61A" d="M139.92,114.261c-0.234,0.147-0.348,0.636-0.536,0.857c-0.977,1.138-2.256,2.386-3.427,3.32
		c-2.745,2.182-5.767,3.836-8.783,5.784c-0.77,0.492-1.393,0.86-2.25,1.285c0.422-0.649,0.974-0.854,1.393-1.393
		c0.435-0.565,0.522-1.392,0.857-2.035c1.011-1.968,1.915-3.712,2.571-6.212c-1.339,0.914-6.909,6.738-6.32,8.998
		c0.238,0.914,5.188,4.532,6.212,5.355c0.372,0.298,0.529,0.345,1.071,0.107c3.042-1.349,6.423-4.07,7.819-7.069
		c-0.274,0.211-0.476,0.449-0.75,0.643c-1.878,1.298-4.067,2.166-5.998,3.427c0.74-1.436,1.787-2.39,2.678-3.642
		c1.928-2.715,3.802-5.517,5.355-8.569C139.86,115.021,140.266,114.036,139.92,114.261z"/>
	<path fill="#FFFFFF" d="M141.849,103.228c-0.137,0.649-1.198,3.022-0.75,2.892C142.193,105.795,142.15,104.122,141.849,103.228z"/>
	<path fill="#FFFFFF" d="M104.681,101.729c-0.372,0.067-1.102,0.458-1.5,0.643c-0.586,0.268-1.168,0.609-1.714,0.964
		c-0.756,0.482-0.429,0.974,0,1.607c0.318,0.475,0.736,0.917,1.071,1.393c0.824,1.171,1.583,2.343,2.464,3.427
		c0.137-1.961-0.05-3.799-1.5-4.499c5.242-0.201,1.433,13.125-3.642,13.71c-2.175,0.248-3.806-0.542-3.535-2.678
		c0.007-0.067,0.321-0.536,0.321-0.536c0.137,1.018,0.308,1.925,1.178,2.142c1.111,0.274,1.848-0.281,2.357-0.536
		c-0.372-0.345-0.73-0.603-1.071-0.964c-1.483-1.566-2.701-3.357-3.963-5.141c-0.79,1.038-1.791,2.688-2.035,4.177
		c-0.847,5.078,2.283,8.308,7.819,7.391c1.606-0.268,3.002-1.5,4.392-2.142c-0.057,0.204,0.137,0.516-0.214,0.428
		c-0.234,0.294-0.398,0.586-0.643,0.857c-0.68,0.743-1.489,1.145-2.356,1.714c1.817,0.978,4.234,0.616,5.784-0.536
		c2.209-1.647,5.141-5.292,5.569-8.676c0.288-2.303-0.043-4.345-0.856-5.999c-0.251-0.509-0.392-0.713-0.75-1.071
		c-0.492-0.488-0.696-0.612-1.5-0.856c0.268,1.995,0.823,4.452,0.321,6.427c-0.094-0.077-0.355-0.302-0.428-0.322
		C109.705,108.982,109.33,100.862,104.681,101.729z"/>
	<path fill="#FFFFFF" d="M131.78,97.766c-3.762,0.281-6.721,1.218-9.426,2.57c-1.614,0.8-4.529,3.846-6.212,3.749
		c1.134-0.904,2.272-1.968,3.427-2.892c-0.251,0.067-0.499,0.177-0.643,0.214c-3.273,0.796-4.917,2.771-7.284,4.392
		c0.871,0.689,1.888,1.714,2.356,2.785c1.533,3.501,0.66,12.332-1.071,15.103c-1.071,1.707-2.17,2.657-4.845,2.456
		c-0.191-0.017-1.02,0.371-1.02,0.371s1.483,2.132,3.294,2.85c2.691,1.066,6.4,1.118,9.104,2.356
		c0.767,0.348,1.975,1.055,2.678,1.607c1.975,1.55,4.394,6.723,7.605,4.606c1.778-1.173,0.505-5.122-0.214-6.213
		c-1.155-1.75-2.936-2.634-4.499-3.963c-0.512-0.435-2.012-1.677-2.25-2.25c-0.536-1.279,0.241-2.587,0.643-3.535
		c1.319-3.133,3.856-5.704,6.32-7.712c4.231-3.458,8.927-4.776,10.925-10.604c0.442-1.292,0.733-2.377,0.234-3.66
		c-0.381-0.98-1.902-0.922-2.688-0.463c-2.762,1.593-11.012,11.146-14.577,9.585c1.222-0.405,2.387-0.937,3.32-1.606
		c1.436-1.041,3.026-1.908,4.392-2.999c1.098-0.884,2.112-1.814,3.106-2.785c0.284-0.281-0.119-0.105,0.142-0.434
		c-2.935,0.747-5.354,0.906-7.961,1.933c-1.392,0.545-2.909,1.373-4.177,2.142c-0.335,0.198-0.92,0.884-1.285,0.964
		c-1.024,0.221-0.569-0.372-0.214-0.643c2.534-1.961,5.603-3.498,9.104-4.499c1.61-0.465,3.618-0.689,5.249-0.75
		c0.181-0.83,0.204-1.315-0.429-1.821C134.137,98.023,133.253,97.655,131.78,97.766z"/>
	<path fill="#FAA61A" d="M54.66,95.409c-0.549,0.265-1.018,0.941-1.5,1.286c-1.824,1.295-3.632,1.931-6.212,1.5
		c-1.229,2.805-3.002,4.438-5.355,6.105c1.205,0.756,2.51,1.734,4.391,1.821c1.523,0.067,5.674-1.422,5.999-2.356
		c0.445-1.299,0.354-2.454,0.75-3.749c0.389-1.285,1.038-2.577,1.607-3.856C54.339,96.159,54.924,95.278,54.66,95.409z"/>
	<path fill="#FAA61A" d="M86.151,95.195c-1.108,0.083-2.892,1.084-3.856,1.606c-0.753,0.405-1.644,0.914-2.356,1.393
		c-0.191,0.124-0.368,0.308-0.536,0.428c2.236,0,3.826,0.603,4.392,1.928c-3.464,0.385-4.94,1.968-6.641,4.07
		c-3.283,4.052-3.018,9.164-2.447,14.198c0.38,3.354-1.264,4.113-1.02,5.006s2.311-0.042,2.596,0.834
		c1.135,3.487,2.359,6.103,3.227,8.882c1.473,4.719,5.337,17.604,5.735,17.882c0.398,0.277,2.031,1.348,4.543,0.464
		c3.338-1.175,3.369-1.916,3.369-1.916s-3.229-8.709-4.757-13.002c-1.526-4.284-4.077-10.303-4.284-15.424
		c-0.191,0-0.469,0.063-0.643,0c4.252-1.651,5.18-6.379,3.882-12.127c-0.706-3.125-2.635-6.998-2.133-10.292
		c0.268-1.784,0.885-2.538,1.571-3.931C86.583,95.195,86.358,95.178,86.151,95.195z"/>
	<path fill="#404040" d="M42.449,90.696c-0.709,0.352-1.312,1.607-1.928,2.143c-1.861,1.61-3.752,2.681-6.534,3.427
		c-1.49,0.395-3.016,0.274-4.285,0c-0.365-0.08-0.964,0-0.964,0c0.81,0.127,1.536,1.326,2.678,1.5
		c4.495,0.676,7.849-2.454,9.747-4.606c0.378-0.435,1.459-1.513,1.393-2.25C42.546,90.813,42.617,90.609,42.449,90.696z"/>
	<path fill="#FFFFFF" d="M44.271,87.697c-0.409,1.59-0.683,3.511-1.393,4.82c-1.613,2.959-6.527,7.187-11.354,6.534
		c-1.52-0.208-2.835-1.272-3.856-2.035c0.315,2.122,1.557,3.123,3.106,3.963c1.038,0.563,2.875,0.64,4.07,1.071
		c-1.034,0.151-2.253,0.251-3.32,0.107c4.619,7.444,16.08-1.058,14.888-9.105c-0.707,1.295-1.503,2.675-2.892,3.321v-0.536
		C44.779,93.715,47.591,90.043,44.271,87.697z"/>
	<path fill="#FAA61A" d="M89.479,85.441c-0.423,0.208-0.957,0.631-1.607,1.113c-1.308,0.967-2.507,1.156-3.771,2.658
		c-0.565,0.669-0.749,1.913-1.271,2.663c0.783,0,1.523,0.241,2.142,0.214c1.171-0.053-0.958-0.833,0.536-1.393
		c0.378,0.372,0.656,1.433,1.071,1.714c0.479,0.325,1.155,0.214,1.714,0.429c1.155,0.438,2.132,1.369,3.106,2.035l-0.107,0.428
		c-1.225-0.251-2.149-0.539-3.535-0.428c2.256,5.54,5.269,10.567,8.141,15.531c1.379,2.383,3.938,5.528,5.078,5.817
		c1.14,0.29,3.089-2.574,3.92-5.389c-0.268-0.214-5.289-6.614-7.07-10.176c-1.265-2.53-3.396-7.009-4.576-9.653
		C90.932,85.812,91.179,84.606,89.479,85.441z"/>
	<path fill="#FAA61A" d="M69.013,83.52c-1.279,0.121-3.077,1.075-3.856,1.829c0.278,0.137,1.814,1.19,2.464,1.17
		c2.46-0.08,4.375-1.767,5.998-2.785c-0.271-0.013-1.071,0.107-1.071,0.107C71.59,83.733,69.867,83.436,69.013,83.52z"/>
	<path fill="#FFFFFF" d="M62.8,81.806c0.476,1.178,0.958,1.988,1.607,2.892c0.358-0.321,0.619-0.586,1.071-0.857
		c0.378-0.231,0.82-0.455,1.285-0.643C65.428,82.75,64.063,82.188,62.8,81.806z"/>
	<path fill="#FFFFFF" d="M80.152,80.734c-1.543,0.298-2.658,1.865-3.749,2.678c-2.109,1.566-5.476,4.428-8.783,3.856
		c-2.758-0.482-4.043-1.881-4.927-4.178c-0.188-0.479-0.174-1.322-0.535-1.606c-0.365-0.285-0.837-0.248-1.286-0.429
		c0.057,0.539,0.144,5.523,0.214,5.57c0.331,0.214-0.418,1.258-0.429,1.285c-0.224,0.398,0.007,0.167-0.321,0.428
		c-0.401-1.747-1.757-1.673-3.642-1.928c0.585,0.489,2.48,3.675,2.249,4.82c-0.104,0.496-0.91,1.008-1.178,1.393
		c-1.047,1.476-2.232,3.458-2.892,5.142c-1.021,2.594-2.189,5.971-2.356,8.461c-0.499,7.314,4.274,14.654,9.64,16.496
		c4.003,1.369,7.449,1.751,9.21,1.38c1.762-0.371,2.193-3.128,1.822-5.558c-1.335-8.706,2.483-17.469,9.533-18.423
		c-0.823-0.415-2.611-1.049-4.03-0.681c-0.388,0.097-1.738,0.787-2.41,0.927c0.114-0.161,1.148-1.16,1.299-1.317
		c0.599-0.653,1.617-1.339,2.356-1.821c1.771-1.162,3.979-2.152,6.212-2.785c0.897-0.258,1.804-0.321,2.999-0.321
		c-2.052-1.155-6.775-2.306-9.426-1.393c0.569-0.703,0.914-0.763,2.142-0.857c0.709-2.413,1.483-3.601,3.472-4.703
		c1.078-0.603,4.274-2.767,4.11-3.121c-0.174-0.372-3.667-1.058-6.49-0.186c-3.399,1.051-3.642,3.012-4.198,3.404
		c-0.92,0.643-0.579-0.305-0.429-0.964c0.606-2.702,1.011-3.532,2.142-5.463C80.451,80.835,80.333,80.698,80.152,80.734z"/>
	<path fill="#FFFFFF" d="M142.018,66.403c-5.045,3.622-11.071,10.124-11.951,17.759c-0.154,1.329-0.378,2.701-0.429,3.963
		c-0.894-6.594,0.275-13.52,2.143-18.102c-1.084,1.004-5.092,6.393-6.946,13.687c-1.488,5.853-1.978,10.261-2.48,15.77
		c2.584-1.042,13.278-5.232,14.032,0.321c1.338-0.843,4.428-3.166,5.462-0.214c0.261,0.746-0.023,1.596,0.214,2.463
		c0.137,0.502,0.85,0.931,0.964,1.607c0.516,3.136-2.604,3.377-3.856,4.82c-1.309,1.503-3.23,2.306-4.82,3.535
		c-1.114,0.857-2.232,1.915-3.32,2.785c-0.231,0.181-0.753,0.254-0.857,0.536c-0.274,0.716-0.063,1.429-0.214,2.142
		c-0.13,0.609-0.555,1.389-0.75,1.928c-0.559,1.53-1.306,2.531-1.928,3.963c3.357-2.3,6.829-4.154,9.854-6.748
		c1.606-1.382,3.349-4.258,4.882-5.71c-0.294,1.322-1.317,3.401-1.776,4.532c-1.439,3.528-3.615,6.661-5.784,9.533
		c-0.057,0.07-0.265,0.131-0.321,0.214c-0.057,0.077-0.041,0.231-0.107,0.321c2.45-1.496,4.844-2.899,6.641-5.034
		c3.016-3.592,4.612-8.512,7.176-12.532c0.994-1.566,2.326-3.089,3.535-4.499c0.415-0.489,1.453-0.92,1.714-1.5
		c0.398-0.887,0.529-2.423,0.643-3.321c0.656-5.211-1.821-9.707-3.106-13.71c-3.686-11.461,0.556-19.431,8.676-23.458
		C160.355,60.932,150.609,60.236,142.018,66.403z"/>
	<path fill="#FFFFFF" d="M12.137,58.241c-1.122,0.184-2.062,1.269-2.25,2.356c-0.907,5.211,6.979,4.693,9.961,6.319
		c0.288,0.157,0.683,0.425,0.964,0.643c1.918,1.47,3.227,3.9,3.963,6.534c1.259-1.028-0.077-2.434,0.214-4.713
		c0.225-1.781,1.409-2.872,2.678-3.642c-1.586-1.509-3.079-3.638-5.141-4.605c-2.025-0.951-4.043-1.346-6.32-2.035
		C15.083,58.756,13.827,57.96,12.137,58.241z"/>
	<path fill="#FFFFFF" d="M25.419,51.386c-0.991,0.05-1.824,0.536-2.25,1.393c-2.045,4.104,5.67,6.952,7.819,8.462
		c0.124,0.087,0.304,0.107,0.428,0.214c0.211,0.177,0.438,0.425,0.643,0.643c0.147,0.157,0.285,0.368,0.429,0.536
		c0.188,0.214,0.485,0.425,0.643,0.643c1.131,1.593,2.627,5.101,1.5,7.498c0.596,0.787,1.349,1.982,2.142,2.571
		c1.064,0.79,3.639,1.664,4.606,2.143c-1.881,0.047-4.338-0.78-5.57-1.821c-1.667-1.409-5.252-8.944-8.248-6.962
		c-0.525,0.345-0.984,0.867-1.178,1.5c-0.904,2.925,0.686,7.103,2.249,8.569c0.784,0.733,2.069,1.141,2.678,2.035
		c1.315,1.935-1.255,4.579-1.5,6.534c-0.198,1.557,0.013,3.093,0.107,4.285c-0.013-0.017-1.446-4.891-0.964-6.212
		c0.358-0.988,1.67-2.38,1.392-3.642c-0.234-1.054-3.451-3.16-4.284-4.606c-0.305-0.525-0.355-0.609-0.75,0
		c-0.766,1.172-1.442,4.66-2.035,5.249c0.024-0.154,0.107-0.75,0.107-0.75c-0.167-1.667,0.937-4.238,0.321-5.57
		c-2.233-0.134-3.993-1.171-5.998-1.714c-1.078-0.291-2.354-0.09-3.535,0c-3.836,0.285-4.569,1.784-6.641,3.642
		c-0.79,0.703-2.467,1.841-2.25,3.428c0.556,4.06,6.403,2.125,7.712,0c0.452-0.74,0.392-1.854,0.535-2.892
		c0.003,0.017,0.301,0,0.321,0c0.124,0.927,0.321,1.659,0.22,2.579c2.654-1.071,6.213-0.638,7.599,1.598
		c-0.847,0.225-1.376-0.141-2.571,0c-2.587,0.295-4.763,1.62-5.784,3.535c-1.557,2.909-1.098,8.997,2.892,9.104
		c1.69,0.043,3.13-1.634,2.892-3.963c-0.174-1.667-1.302-2.527-2.249-3.428c0.271-0.161,2.021,0.696,2.249,1.071
		c0.124,0.204,0.127,0.385,0.214,0.643c0.747-0.278,1.593-0.361,2.571-0.214c0.05-0.669,0.053-1.047,0.107-1.713
		c0.067,0,0.375,0.043,0.428,0c0.456,1.121,0.398,2.892,0.857,3.963c1.082,2.544,5.535,6.561,9.64,5.891
		c3.313-0.54,6.393-2.852,7.069-3.642c1.289-1.52,2.889-2.875,3.642-4.927c2.762-7.544-0.663-19.799-3.642-24.636
		c-2.283-3.702-5.994-8.447-10.339-10.077C28.653,51.967,26.641,51.319,25.419,51.386z"/>
	<path fill="#FFFFFF" d="M56.905,35.931c-2.314-0.28-3.779,3.186-5.262,7.512c-1.545,4.507-1.622,13.161,0.343,16.776
		c1.145-0.612,1.919-0.93,3.188-1.482c-0.223-0.757-0.938-1.89-1.03-4.765c-0.129-4.636,0.802-8.157,2.189-8.37
		c1.206-0.185,1.644,2.679,1.644,2.679S58,36.063,56.905,35.931z"/>
	<path fill="#FAA61A" d="M43.461,31.481c-1.148,0.083-1.922,0.158-2.919,0.378c0.871,1.761,1.51,3.343,2.919,4.582
		c0.231-2.102,0.911-3.29,1.854-4.682C44.76,31.675,44.134,31.427,43.461,31.481z"/>
	<path fill="#FAA61A" d="M35.273,21.18c0.375,1.279,0.844,2.263,1.285,3.428c2.009-0.301,4.74-0.539,6.534-0.75
		c-0.462-0.311-0.8-0.565-1.393-0.856C39.832,22.084,37.887,21.468,35.273,21.18z"/>
	<path fill="#FAA61A" d="M48.22,8.517c5.151,4.121,10.84,12.427,10.84,12.427s-0.205-0.507,2.102-0.741
		c1.051-0.111,2.598-0.404,3.585-0.618C57.749,11.865,53.209,10.864,48.22,8.517z"/>
	<path fill="#FAA61A" d="M33.345,7.898c-0.333,0.031-1.202,0.365-1.286,0.75c-0.254,1.114,0.46,3.187,0.765,4.349
		c2.647-0.254,6.472,0.813,8.982,1.649c0.954,0.318,1.878,1.061,2.785,1.393c0.177,0.063,0.184,0.05,0.321,0.107
		C43.002,13.104,35.952,7.653,33.345,7.898z"/>
	<path fill="#FAA61A" d="M118.529,5.04c-0.93-0.841-4.697-0.023-5.678,0.181c-8.967,1.851-15.531,6.437-22.172,10.711
		c-2.47,1.587-4.082,3.505-7.047,4.432C81.583,21,73.198,20.493,70.755,20.493c-8.627,0-12.172,1.892-12.189,1.935
		c-2.596-3.461-4.476-6.396-6.319-8.384C45.942,7.245,42.94,4.654,38.305,4.01c-3.358-0.466-11.203,0-16.483,0.773
		c4.25,0.515,13.141,1.859,15.33,3.146c4.093,2.407,9.285,8.712,9.285,8.712s6.596,4.252,9.505,8.842
		c-1.429-1.162-5.667-5.003-10.247-7.482c-4.872-2.637-6.428-3.091-9.643-3.708c-3.839-0.739-7.271,1.396-10.238,3.497
		c-2.967,2.102-6.31,4.765-9.928,9.39c1.774-1.69,13.282-6.185,15.716-6.954c2.349-0.742,6.939,0.422,13.337,3.279
		c3.924,1.753,9.968,3.764,10.621,4.714c-0.914-0.294-10.118-3.37-11.076-3.396c-3.471-0.111-6.917,0.681-9.558,2.02
		c-2.677,1.355-9.395,12.609-10.013,15.082c-0.358,1.432,11.184-9.759,14.751-10.782c1.748-0.505,5.369-0.86,7.32-0.217
		c4.136,1.234,6.661,1.665,6.902,1.931c0.735,0.81-7.19-1.035-7.458-0.54c-0.619,1.145-1.584,2.934-1.669,4.821
		c-0.256,5.747,2.563,12.725,4.455,18.395c0.181,0.542,0.972,3.792,0.833,4.441c-0.062,0.29,0.662,0.466,0.997,0.185
		c0,0-0.846-2.831-1.061-5.251c-0.676-7.558,0.747-12.677,2.745-16.568c1.762-3.43,3.842-4.784,4.827-3.984
		c1.148,0.931,1.213,5.329,1.069,7.284c-0.254,3.388-0.03,7.133,0.214,10.39c0.154,2.062-0.237,5.441,0.328,5.894
		c0.565,0.454,2.783,0.775,3.348-0.472c0.929-2.052,0.104-6.458,0.104-11.076c0-11.373,4.522-15.953,11.201-11.5
		c5.934,3.956,8.591,14.031,8.839,20.335c0.213,5.435-0.618,7.293-0.618,7.293s2.006-0.187,6.909-2.407
		c5.192-4.451,11.715-6.979,16.812-7.046c0.593-2.025,2.528-6.524,3.251-8.589c1.6-4.583,3.632-7.255,5.376-11.96
		C117.885,23.068,121.233,7.487,118.529,5.04z M113.25,26.288c-1.207,3.621-4.748,12.047-6.696,14.809
		c-1.787-0.663-2.851-3.641-3.821-5.137c-1.65-2.538-4.811-5.829-7.124-7.741c-1.848-1.526-5.583-2.996-7.34-4.405
		c1.108-2.889,10.439-8.787,14.927-11.311c5.934-3.338,11.974-4.976,12.517-3.616C116.354,10.493,116.124,17.665,113.25,26.288z"/>
	<path fill="#E6E6E6" d="M89.661,23.813c8.809,3.584,11.091,8.276,15.874,15.375c0.649-3.889,1.887-16.983,0.165-18.249
		C103.056,18.998,92.824,22.538,89.661,23.813z"/>
	<path fill="#FFFFFF" d="M100.414,15.284c-1.416,0.971-4.286,2.774-5.655,3.801c-1.038,0.773-3.53,3.014-4.45,3.894
		c2.042-0.94,14.784-5.952,16.688-2.688c1.49,2.554-0.258,13.401-0.606,16.434c-0.053,0.435-0.107,2.463-0.107,2.463
		c0.853-0.77,3.534-6.859,5.905-13.613c2.275-6.48,3.802-14.556,2.039-15.669C111.896,8.435,103.065,13.456,100.414,15.284z"/>
	<path fill="#FFFFFF" d="M184.548,94.91c0,0-12.362-3.461-21.881,1.607c-9.519,5.068-13.474,11.125-15.7,15.823
		c-2.225,4.698-5.439,11.002-8.282,13.598c-2.843,2.596-7.541,6.305-7.541,6.305s5.669,0.766,10.131-1.31
		c5.315-2.473,12.609-8.53,12.609-8.53s-4.327,13.227-13.969,18.79c-8.687,5.012-19.403,7.862-19.403,7.862
		s11.451,4.196,19.403,2.522c9.395-1.978,13.351-4.698,13.351-4.698s-3.956,9.024-12.856,12.115
		c-8.901,3.091-9.884,6.008-9.884,6.008s11.868,3.461,18.667,0.371c6.799-3.091,11.244-6.502,11.244-6.502
		s-5.192,9.426-12.856,12.517s-13.351,4.419-13.351,4.419s14.958-0.742,20.892-5.563c5.934-4.821,10.631-10.878,14.216-21.757
		c2.658-8.064,3.344-15.008,4.209-18.593s4.327-9.148,4.327-9.148s-2.102,1.236-3.338,2.349c-1.236,1.113-3.338,4.203-3.338,4.203
		s-0.989-4.574,0.371-11.868c1.36-7.293,5.81-14.958,8.53-17.183S184.548,94.91,184.548,94.91z"/>
	<path fill="#FAA61A" d="M86.023,123.96c0,0,5.811,6.864,12.609,10.137c10.014,4.821,24.106,1.978,24.106,1.978
		s4.203,4.327,7.294,2.719c3.09-1.607,1.483-5.563,1.483-5.563s4.606,0.323,9.89-1.607c4.939-1.805,10.755-6.552,10.755-6.552
		s-2.607,8.876-13.109,15.626c-7.164,4.604-22.499,7.912-22.499,7.912s11.255,5.142,21.269,3.906
		c10.013-1.236,13.592-3.906,13.592-3.906s-4.316,6.996-12.115,10.137c-8.901,3.585-11.738,6.502-11.738,6.502
		s8.973,2.499,14.705,2.027c9.024-0.742,15.087-5.242,15.087-5.242s-4.858,6.385-11.255,9.074
		c-7.416,3.117-13.963,4.154-13.963,4.154s-4.945,0.742-9.024-1.978s-16.324-12.065-16.324-12.065s1.483-2.225,0.618-6.057
		c-0.535-2.369-4.45-3.461-4.45-3.461s1.282-3.851-0.242-6.107c-3.096-4.586-10.761-2.67-10.761-2.67s-1.361-2.638-3.337-8.159
		C85.925,127.255,86.023,123.96,86.023,123.96z"/>
	<path fill="#FFFFFF" d="M80.413,55.261c-0.278-6.397-1.977-10.239-4.121-10.044c-1.417,0.129-2.708,3.474-2.318,9.143
		c0.503,7.304,2.094,8.491,1.607,8.285c-4.047-1.717-6.716-2.886-11.167-3.906c-0.877-7.869-2.642-23.494,4.768-23.865
		c7.417-0.371,14.07,15.614,12.609,25.28c-0.101,0.669-0.664,2.385-1.236,2.596c-0.462,0.164-0.843,0.207-1.028-0.025
		C79.342,62.494,80.691,61.655,80.413,55.261z"/>
	<path fill="#00AEEF" d="M75.827,60.927c-0.392-0.718-0.85-3.037-0.253-3.286c0.597-0.249,0.955,2.467,2.172,2.032
		c0.712-0.255,1.155-2.913,0.655-4.957c-0.086-0.354-0.339-0.699-0.238-1.051c0.123-0.426,0.299-0.895,0.208-2.087
		c-0.079-1.027-0.59-3.245-1.647-3.063c-0.651,0.112-0.746,2.155-0.657,2.974c0.044,0.401,0.193,1.237,0.084,1.249
		c-0.292,0.032-0.336,1.873-0.598,2.189c-0.284,0.344-0.684-0.848-0.814-2.009c-0.438-3.886,0.675-6.358,1.522-6.509
		c1.966-0.352,2.746,3.937,3.258,6.515c0.436,2.191,0.357,8.932-1.485,9.965C77.214,63.349,76.501,62.163,75.827,60.927z"/>
	<path fill="#FFFFFF" d="M77.501,53.975c-0.465,0.087-0.874-0.863-1.018-2.075c-0.2-1.676,0.071-2.581,0.536-2.667
		c0.465-0.087,0.887,1.182,1.042,2.393C78.239,53.009,77.793,53.92,77.501,53.975z"/>
	<path fill="#00AEEF" d="M55.81,57.916c-0.223-0.553-0.529-1.916-0.172-2.091c0.356-0.175,0.354,2.443,1.081,2.14
		c0.425-0.177,0.901-2.733,0.631-4.294c-0.047-0.27-0.192-0.538-0.128-0.802c0.078-0.32,0.188-0.671,0.149-1.578
		c-0.033-0.78-0.308-2.473-0.937-2.359c-0.387,0.07-0.469,1.618-0.426,2.24c0.021,0.305,0.099,0.942,0.034,0.949
		c-0.173,0.018-0.223,1.413-0.381,1.647c-0.173,0.254-0.567-0.665-0.63-1.548c-0.21-2.956,0.879-5.461,1.383-5.557
		c1.169-0.223,1.4,3.864,1.46,5.859c0.171,5.585,0.292,5.475-0.838,5.916C56.886,58.496,56.246,58.997,55.81,57.916z"/>
	<path fill="#FFFFFF" d="M56.814,53.276c-0.276,0.056-0.506-0.673-0.577-1.596c-0.098-1.275,0.074-1.955,0.351-2.011
		s0.511,0.916,0.587,1.837C57.263,52.561,56.988,53.242,56.814,53.276z"/>
	<path fill="#404040" d="M64.971,147.003l0.464,2.225c0,0-3.06,0.742-3.338-0.185S64.971,147.003,64.971,147.003z"/>
	<path fill="#404040" d="M74.15,144.222l0.278,1.947c0,0,3.245-0.742,2.874-1.576C76.932,143.759,74.15,144.222,74.15,144.222z"/>
	<path fill="#404040" d="M83.236,149.971l0.463,1.854c0,0-1.947,0.371-2.225-0.371C81.196,150.712,83.236,149.971,83.236,149.971z"
		/>
	<path fill="#404040" d="M93.25,146.726l1.02,2.781c0,0,2.967-1.483,2.596-2.503C96.495,145.984,93.25,146.726,93.25,146.726z"/>
	<path fill="#1A1A1A" d="M52.152,62.939c-2.417,0.065-2.72,1.236-2.72,1.916c0,0.68,1.16,2.756,3.076,2.817
		c1.916,0.062,3.785-1.829,3.785-2.941C56.293,63.619,54.439,62.877,52.152,62.939z M52.103,65.479
		c-1.035,0-1.873-0.458-1.873-1.023s0.838-1.023,1.873-1.023s1.873,0.458,1.873,1.023S53.138,65.479,52.103,65.479z"/>
	<path fill="#FFFFFF" d="M49.019,61.456c0,0-1.562,1.402-1.84,2.283s-0.354,2.77-0.354,2.77s-5.691-5.451-5.223-5.794
		C43.456,59.354,49.019,61.456,49.019,61.456z"/>
	<path fill="#FFFFFF" d="M46.794,68.131c0,0,0.865,2.364,1.561,3.292s2.271,2.503,2.271,2.503l-5.687-1.221
		c0,0-0.989-1.978-0.386-2.441C45.156,69.8,46.794,68.131,46.794,68.131z"/>
	<path fill="#FFFFFF" d="M106.502,70.345c-0.612-0.047-4.934-1.014-5.228-1.048c1.837-0.274,7.347,0.166,9.014,0.644
		c0.458,0.13,1.932,0.515,1.932,0.515s2.554-0.418,3.863-0.515c3.34-0.251,4.636-1.417,7.598-1.417
		c-0.663-0.844-1.556-1.68-2.477-2.201c-2.957-1.672-4.959-2.963-9.321-3.924c-2.072-0.458-8.37-0.842-10.352-0.571
		c0.15-0.107,3.464-0.88,5.814-0.901c2.724-0.024,4.941,0.313,4.941,0.313s4.44-3.919,9.076-5.464
		c-1.235-0.766-7.29-2.572-13.036-2.084c-5.12,0.435-7.805,1.233-11.713,2.943c-3.956,1.73-4.601,3.072-6.552,4.08
		c-2.874,1.483-6.483,3.487-9.61,3.61c-3.911,0.153-6.051-1.219-9.542-2.563c-2.631-1.018-6.205-2.197-9.09-2.559
		c-4.994-0.633-7.505,1.012-10.994,2.559c-2.96,1.312-4.8,5.175,0.229,10.939c4.449,5.1,10.188,7.829,18.602,9.641
		c1.406,0.303,3.35,0.708,5.051,0.225c0.7-0.201,2.019-0.873,2.661-1.296c2.252-1.485,3.748-1.699,5.127-2.412
		c-0.131,0.974-1.365,2.185-1.807,3.055c-0.385,0.747-0.91,1.356,0.643,1.178c4.312-0.499,8.338-1.613,11.89-3.106
		c1.218-0.516,2.226-1.289,3.535-1.821c-0.776,1.218-2.028,2.012-3.32,2.678c7.195,0.045,11.736,3.644,15.531,7.926
		c0.83-6.139-5.86-11.248-8.979-14.063c0.89,0.358,5.686,3.271,5.98,3.351c0.512,0.137,1.584,0.408,1.992,0.408
		c0.747-0.003,2.434,0.773,3.188,1.104c3.924,1.717,5.028,2.085,7.994,3.844C118.187,76.992,113.4,70.86,106.502,70.345z
		 M52.276,68.41c-1.959-0.065-3.57-2.735-3.384-4.126c0.132-0.991,1.391-1.762,3.224-1.814c1.958-0.056,4.734,0.47,4.919,1.644
		C57.316,65.894,55.569,68.518,52.276,68.41z M80.701,68.911c-1.484,3.212-1.483,9.717-4.409,10.302
		c-1.932,0.386-3.265-0.634-4.99-1.845c-1.509-1.058-3.065-2.449-4.214-4.006c-0.531-0.719-2.109-1.175-3.102-1.618
		c-1.212-0.543-1.862-0.761-1.904-0.838c-0.135-0.25,4.492,1.351,5.303,1.566c2.597,0.689,4.013,0.174,8.465-2.269
		c1.586-0.87,3.683-2.631,5.389-2.491c1.539,0.126,1.549,0.825,1.918,1.511C82.367,68.303,81.186,67.862,80.701,68.911z"/>
	<path fill="#F8C1D9" d="M76.421,78.44c1.597-1.08,2.821-6.587,2.962-8.757c-1.907,0.713-4.905,2.603-6.072,4.151
		c-0.623,0.825-0.939,1.867-0.733,3.397C74.084,78.281,75.531,79.103,76.421,78.44z"/>
	<path fill="#B11116" d="M72.111,73.7c0,0-2.918-0.392-2.611,0.131c0.307,0.522,1.536,2.353,1.843,1.96
		C71.65,75.399,72.111,73.7,72.111,73.7z"/>
	<path fill="#FFFFFF" d="M51.568,75.092c0,0,0.992,0.62,3.477,2.189c2.447,1.545,3.734,2.318,3.734,2.318l-3.863,2.318
		c0,0,0.219-3.826-0.386-3.605c-1.417,0.515-1.288,0.386-3.09,1.674c-1.334,0.953-2.576,1.545-2.576,1.159s0.129-2.704,1.03-4.121
		S51.568,75.092,51.568,75.092z"/>
	<ellipse fill="#FFFFFF" cx="52.103" cy="64.456" rx="1.617" ry="0.699"/>
</g>
</svg>
