<svg xmlns="http://www.w3.org/2000/svg" version="1.0">
  <path transform="scale(32,-32)" d="m 45.049318,200.14024 c 1.388338,-1.27892 8.940817,-3.01806 10.667332,-1.38007 3.218487,3.05349 3.477252,8.00523 8.242937,9.81377 8.441995,3.20368 15.584517,-6.67534 22.950925,-3.68016 5.366824,2.18214 1.821984,13.68908 12.930096,7.667 7.026002,-3.80903 15.595882,-11.20139 23.597422,-11.96052 7.37829,-0.70001 19.75161,-2.78747 21.98118,5.67358 2.09524,7.95133 -38.18462,2.4524 -31.03225,20.54758 5.54927,14.03938 32.55999,-5.59215 42.50771,-4.14018 13.84333,2.02055 14.99514,16.58127 3.7174,23.00101 -7.90973,4.50254 -27.07294,-10.73277 -32.32525,-0.7667 -7.19651,13.65514 19.15386,22.65437 10.18246,35.42157 -12.13993,17.27631 -40.664196,2.7409 -49.134374,-7.97369 -4.829902,-6.10971 5.495291,-10.6083 5.495291,-15.48735 0,-4.15096 -11.284447,-3.48779 -14.061483,-1.38006 -3.96903,3.01244 -5.551292,7.79352 -9.535946,10.7338 -9.844604,7.26437 -32.312639,8.80746 -40.244932,-1.22671 -8.284989,-10.48032 14.680785,-11.95537 17.940512,-12.57389 4.560346,-0.86531 1.755174,-6.11206 3.879028,-8.12703 4.10225,-3.89194 28.041576,2.94988 23.920683,-10.73381 -5.26186,-17.47235 -38.161242,9.24049 -45.740223,4.44686 -11.188521,-7.0766 8.851486,-12.04184 9.859199,-13.95394 2.87787,-5.46066 -4.651811,-10.64755 -2.424393,-14.874 1.624461,-3.08236 4.573634,-5.708 6.626676,-9.04706 z" style="fill: teal; stroke: black; stroke-width: 3; invert-y: true; "/>
</svg>